<?xml version="1.0" encoding="UTF-8"?>
<svg version="1.1" viewBox="0 0 1600 682" width="1280" height="1280" xmlns="http://www.w3.org/2000/svg">
<path transform="translate(38,5)" d="m0 0h1507l11 4 9 8 5 10v620l-5 10-7 7-8 4-5 1h-1509l-10-4-7-6-6-10-1-4v-617l5-10 5-6 9-5z" fill="#F7F7DA"/>
<path transform="translate(1155,198)" d="m0 0 8 1 4 1h10l5-1 17 2v-2l11 1-1 2 10-2h9v3h7l3 2 3-2 3 1-5 6-3 3-5 8v4h-2l1 3-3 2 1 15 1 5 2 12 1 2v6h2l4 18 3 13 1 5 5 5v12l-1 2 1 12 4 10 3 7 1 6h2v2h2l2 5h2l3 7 7 14 6 5 7 11 4 6 3 3v2l5 2 12 10 12 8 7 3 7 4 20 8 9 3v2l10-1 3-3v-6l-4-1-11-4h-5l-2-4 1-3-5-1-14-8-7-9-4-6-6-5-7-9-5-8v-2h-2v-4h-2l-8-16-5-17-1-2-1-21 1-9 2-3 1-2 5 1 1 4-2 5 1 7 2-4h6l-2-3 1-8 4 2 5-3 3-1v4l-2 3h2l-1 7 5-1 2 5 4 4v3l6 1 3 1v4l4 2 1 5 1-4 4-8 4-1h4v2h3l2-3 7-2h5 4v2l3-3 1-2h-2l1-2 5 2 1-2-2-1 2-4 3-1 1-2-4-2v-3l-2-1 1-3 3-1 6 7 1 4v-5l4 2 2 7v2l6-1 2 1-2-5 1-4 6 1 7 3 2 4 4 2 2 4 5 5 6 12 1 3 4-1 2 7 2 17 2 1 3 13 1 16-2 14-6 14-1 10 3 4 7-1 5-3 3-5 5-11 5-9 6-4 2-6 2-1 1-5h2l-1-2-1-25 1-2-2-1-2-10-5-17-4-9-1-5-2-2-2-4-5-8-6-4v-2l-2-1-4-9-3-3v-2h-2l-9-11-4-5-5-3-3-5-10-9h-2v-2l-4-2-11-10-11-7v-2h-2v-2l-5-2-4-3 1-2 14 10 14 11 13 11 8 7 10 10 8 7 10 11 11 14 9 12 12 22 7 19 4 15 2 14v18l-4 20-6 19-7 12-14 15-10 8-16 9-11 4-9 2-11 1h-34l-21-4-21-7-19-10-18-13-10-9-8-7-16-15-3-3-5 1-13 13-13 10-9 6-16 7-11 4-23 7-15 3-1 1-33 4-12 2-11 1h-40l-18-2-26-7-12-4-13-6-14-7-19-13-13-12-16-16-8-11-3-4-3-11-5-5-1-10-2-3-1-7v-30h2l4 9 7 8 11 12 26 15 9 3 11 5 30 11 35 9 33 7 47 7 46 5 22 1 25-1h15v-2h2l-2-5h16l1-3 3-2v-12l-5-6v-2h-2l-1-4 3-1-6-12-16-9v-2l-6-2-10-4-16-7-5-3-57-19-24-7-18-4-6-2-3-7-12-12-7-8-10-13-5-11-1-3v-14l3-11 6-12 9-11 10-8 16-8 13-4 11-3 25-4z" fill="#1F320C"/>
<path transform="translate(127,470)" d="m0 0h304l15 3 18 8 11 8 6 5 9 12 6 11 4 12 2 11v17l-3 14-7 16-8 12-10 10-14 9-10 4-9 3-9 2h-308l-18-5-14-7-10-8-8-8-7-10-6-12-2-6-3-16v-13l3-16 6-15h2l1-5h2l1-4 9-10 11-9 17-9 13-3z" fill="#160359"/>
<path transform="translate(1179,263)" d="m0 0 3 1zm-24-65 8 1 4 1h10l5-1 17 2v-2l11 1-1 2 10-2h9v3h7l3 2 3-2 3 1-5 6-3 3-5 8v4h-2l1 3-3 2 1 15 1 5 2 12 1 2v6h2l4 18 3 13 1 5 5 5v12l-1 2 1 12 4 10 3 7 1 6h2v2h2l2 5h2l3 7 7 14 6 5 7 11 4 6 3 3v2l5 2 12 10 12 8 7 3 7 4 20 8 9 3v2l10-1 3-3v-6l-4-1-11-4h-5l-2-4 1-3-5-1-14-8-7-9-4-6-6-5-7-9-5-8v-2h-2v-4h-2l-8-16-5-17-1-2-1-21 1-9 2-3 1-2 5 1 1 4-2 5 1 7 2-4h6l-2-3 1-8 4 2 5-3 3-1v4l-2 3h2l-1 7 5-1 2 5 4 4v3l6 1 3 1v4l4 2 1 5 1-4 4-8 4-1h4v2h3l2-3 7-2h5 4v2l3-3 1-2h-2l1-2 5 2 1-2-2-1 2-4 3-1 1-2-4-2v-3l-2-1 1-3 3-1 6 7 1 4v-5l4 2 2 7v2l6-1 2 1-2-5 1-4 6 1 7 3 2 4 4 2 2 4 5 5 6 12 1 3 4-1 2 7 2 17 2 1 3 13 1 16-2 14-6 14-1 10 3 4 7-1 5-3 3-5 5-11 5-9 6-4 2-6 2-1 1-5h2l-1-2-1-25 1-2-2-1-2-10-5-17-4-9-1-5-2-2-2-4-5-8-6-4v-2l-2-1-4-9-3-3v-2h-2l-9-11-4-5-5-3-3-5-10-9h-2v-2l-4-2-11-10-11-7v-2h-2v-2l-5-2-4-3 1-2 14 10 14 11 13 11 8 7 10 10 8 7 10 11 11 14 9 12 12 22 7 19 4 15 2 14v18l-4 20-6 19-7 12-9 10-10 1-5 4-9 3h-10l-3 2-11 1-3 1-5-2-29-1-15-3-12-5-9-4-18-10-12-6-22-16-13-12-9-10-8-11-9-14-7-13-4-7-6-15-4-11-8-32-1-9-1-4-1-17-2-7-1-13v-15l-1-8v-9l-2 5-3-1-1 2-1-3h2v-2l-4 1-3-1 2 4 3 2v3h2l-1 4-5-1v3l3 1-4 3-3-2v2h-2v2h4v3h-3v4h-2l-1 3h-5l-3 4-5-1v2l-6-1-3 2h-3l1 3h-4l1-8 1 3 4-1 2-3 13-4 2-3-1-2 4-5 4-1h-3l-4 1-7 3 3 3-2 3-5 3-18 2v2l3 2-1 2 2 1-14 1-1-5h2l1-2 4-1 1-3 4-2v2l9-1h3l1-2h-7l-5 1v-2l5-2 8 1v-2l-9-1-1 2-5 1-5-1-1-3 9-2h7l3 1 3-2 4 1 1-1h5l1-3h5 3l1-2-2-1 5-3-9-3 1 7-3 1v-2h-2l-1-1-3 1v2l-11 3v-2l-6-2-1 3h-3l1-3h-5v4l-3 1-4 2-13 1v-2h2l1-8h-3l-1 4-1-2-3 2 5 1-1 2h-2v2l-7-1v3l9-1v2l-3 3-3-1v-2l-6 1 2 2-7 1-5-1-5 1-1-1-7-1 1-2h8l3 1 7-4 3-1v-3l2-2-2-2-7 1v-2l-7 2-4 1-3-1 1-3 2-1-9-3-2 2-9 1-5-1-6 2 1 2h4l5 1v2l2 2-7 3-10 1v-3l4-1h-2l1-8 3-4-2-2 4-2 3-5 3-2-1-2-1 3-9 1-2 2h-3l-3-6h-3l-2-3 1-3 13-6 13-4 11-3 25-4z" fill="#C7B62E"/>
<path transform="translate(1294,195)" d="m0 0h8l13 4 8 4 10 4 17 9 18 10 7 4 1 3 8 5v2h2v2l5 2 9 7 10 9 9 6 8 8v2l5 3 12 14 1 3h2l6 8v5l2 1 3 4 5 3 10 16 2 9 4 9 4 13 1 8 1 5 1 25h-2v5l-3 1-1 6-7 5-6 12-5 11-4 4-5 2h-5l-4-6 1-9 6-14 2-17-2-19-2-7h-2l-2-18-1-7-4 1-7-12-3-6-4-4-7-8-6-2-6-1 1 8h-8l-2-9h-3l-1 4-2-1-1-5-4-5-3 1-1 2 3 1v3l3 2-1 3h-3l1 3-2 1 1 4-6-2 1 1-1 5h-3l-3-3-1 2-9 1-3 1-2 3-3-1v-2l-4 2v-2l-3 1-1 5h-2l-1 7h-3l-2-6-2-1v-4l-9-2-3-5-4-5-4-1 1-7h-2l2-6-7 3-2 1-3-3v8l1 3h-6l-1 5-2-1-1-9 2-3-1-4-4 1-2 3-1 10 1 20 5 16 6 13 2 6h2v4h2l8 13 4 4v2l4 2 6 7 6 9 7 5 8 4 5 2v5l4 1 7 2 10 4 1 6-4 4h-10l-12-5-20-8-7-5-7-3-14-10-10-8-5-5-4-5-6-10-5-5-5-6-2-5-3-6-2-7h-2l-2-5h-2v-2h-2l-4-12-4-9-1-6-1-9 1-3v-10l-2-4-3-1-1-6-4-16-1-5-1-9h-2l-2-8-4-26v-6l3-3v-2h2l-1-4 7-11 5-5 2-3 5-1h8l6 3v2h2v2l12-1 6-2 2-5 4-1v-2z" fill="#EBDE8A"/>
<path transform="translate(970,318)" d="m0 0h45l35 4 27 5 1-3v4l6 1 18 4 24 7 36 12 23 8 16 8 11 4 8 4v2l5 2 12 7 5 10v2l-2 1v4h2l6 8v12l-5 5-15 1 1 4h-2v2l-40 2-22-1-46-5-47-7-33-7-35-9-22-8-15-6-8-4-7-2-24-14-8-8-7-8-4-5-4-9 1-6 5-5 12-7 13-4 22-4z" fill="#EBDE89"/>
<path transform="translate(1070,217)" d="m0 0 2 1v3l5-1v3l1 5 6-3 8-1 1-2 2 1-1 3h-3l-2 5-4 2 2 3-3 3-1 6 4 4-7-1v3l13-3 2-5-5-1-1 2-5-2 2-4 9-1 3 2 1-2v2l7-3 3-1 3 2 5 1-4 5h6l2-2h6v2l8-2 2 4-3 1v3l-7 5-4 1-4-1h-6l9 2 4-1 5 1h4v-3h6l3 3 1-3h2v-2l-9 1v-3l7 1v-2l2-1-5-2 1-2 4 1 1-4 3 1 1 4-2 4h-2v2l16-3v-2l3-1 3-3 4 1-2 1v2l3-1 1-2 6 2v2l7-3h4v-2l3-3 2 1-1 2h2v2l2-1-1-4 1-3h6l3 3-1 2-3 1v4h-3-5l-1 2-8 2-2-1-4 2-2-1h-7l-7 1v2l9 1 1-3 9 2 1-2-1 5-8-1-5 1v2l6-2 6 1-1 3h-12-4l-1 4-5 2-1 4 12-1-1-3-4-1h2l1-3 18-2 5-3v-3l-2-3 7-2 2-2h7l1-2 1 3-5 2-2-1-1 3h-2l1 4-5 5-11 3-2 3h-4l-2 5 3-1v-2l6-3 6 2v-2h5l3-4h5l1-4h2v-2h3l-1-2-4-1 1-2h2v-2l4 1 2-2-2-1v-3h5l1-3h-2l-1-3-4-4v-2h2l1-2 1 2h3v2h-2l1 2 3-1 3-5h1v13l1 7v16l1 10 2 10 1 16 1 2 2 12 4 18 2 5 2 10 3 7 7 18 4 5 5 10v2h-2l2 7 2 3-1 5-7 1v17l-5 5-11 4-7 5-33 1h-19l-5 3-3 1v-2l-7 1-9 1-7 1 3-2v-2l-3-1-4 5h-2l-4-6-6 1-1-3 1-2-7 3-3 3-5-2-4-3-4-2v-3l39 4 17 2 22 1 25-1h15v-2h2l-2-5h16l1-3 3-2v-12l-5-6v-2h-2l-1-4 3-1-6-12-16-9v-2l-6-2-10-4-16-7-5-3-57-19-24-7-18-4-6-2-3-7-12-12-7-8-10-13-5-11-1-3v-14l3-11 6-12 9-11 10-8z" fill="#293D0B"/>
<path transform="translate(1294,195)" d="m0 0h8l13 4 8 4 10 4 17 9 18 10 7 4 1 3 8 5v2h2v2l5 2 9 7 10 9 9 6 8 8v2l5 3 12 14 1 3h2l6 8v5l2 1 3 4 5 3 10 16 2 9 4 9 4 13 1 8 1 5 1 25h-2v5l-3 1-1 6-7 5-6 12-5 11-4 4-5 2h-5l-4-6 1-9 6-14 2-17-2-19-2-7h-2l-1-9v-12l3-1 5 4 6 3 3 6 3-1-2-13-4-9-4-7-2-1-5-10-1-4h-2l-5-8-9-10-3-5-5-5-5-6-8-7-13-12-18-12-18-9v2l-8-1-20-11-14-8-20-12-8-3-4-1h-8l-1 1h-14l-4 4-8 5-7 10v33l2 10-1 4 3 8 2 10v10l1 10 2 1 2 6 4 4v2h10l5 2-2 8 2 3 3 1 2-8 3-1 1-4 3-3 2-13h1v16l1 13 5 16 6 13 2 6h2v4h2l8 13 4 4v2l4 2 6 7 6 9 7 5 8 4 5 2v5l4 1 7 2 10 4 1 6-4 4h-10l-12-5-20-8-7-5-7-3-14-10-10-8-5-5-4-5-6-10-5-5-5-6-2-5-3-6-2-7h-2l-2-5h-2v-2h-2l-4-12-4-9-1-6-1-9 1-3v-10l-2-4-3-1-1-6-4-16-1-5-1-9h-2l-2-8-4-26v-6l3-3v-2h2l-1-4 7-11 5-5 2-3 5-1h8l6 3v2h2v2l12-1 6-2 2-5 4-1v-2z" fill="#DAD05C"/>
<path transform="translate(1386,310)" d="m0 0 5 5 3 6v-5l4 2 2 7v2l6-1 2 1-2-5 1-4 6 1 7 3 2 4 4 2 2 4 5 5 6 12 1 3 4-1 2 7 1 9v15l-1 13-5 12-5 6h-3l-3 9-12 5-12 3-2 1-21 2-12-1-13-5v-2l-8-1-8-3-6-4v-2l-4-2-11-9-7-9-5-8v-2h-2v-4h-2l-8-16-5-17-1-2-1-21 1-9 2-3 1-2 5 1 1 4-2 5 1 7 2-4h6l-2-3 1-8 4 2 5-3 3-1v4l-2 3h2l-1 7 5-1 2 5 4 4v3l6 1 3 1v4l4 2 1 5 1-4 4-8 4-1h4v2h3l2-3 7-2h5 4v2l3-3 1-2h-2l1-2 5 2 1-2-2-1 2-4 3-1 1-2-4-2v-3l-2-1 1-3z" fill="#C4B687"/>
<path transform="translate(904,345)" d="m0 0h2l4 9 7 8 11 12 26 15 9 3 11 5 30 11 35 9 28 6-3 1-1 2-1 1-3 5 3 2h2l-1-4 5-1v-2h2v3h2l-1 2v2l-3-1 1 2h2l1-2 4 2v2h3v2l3 1v2l6-1 1 4h-2v2l-2-1 1-2-8-1v-2h-7l4 2v2l7-1-2 3 3 2h-7l-1 3h-2l-1-4-4-1 1 3-3 1h-3-2v5h-6v-4h-2v3l-5 1-4-2-8 1 3 2-3 3-5-1-3 1h-1l-1 3-2 2-5-1-7-2v2l-6 2h-3l-1 9 7 3-4 1-8-3v-2l-11-1-14-8-16-11-13-12-16-16-8-11-3-4-3-11-5-5-1-10-2-3-1-7z" fill="#394928"/>
<path transform="translate(1155,198)" d="m0 0 24 3 4 3 6 1v-2l4-2 2 2-4 2 14 1 1-2h6l2 2 11 3v-3l6 1 1 3-2 2v2h-2v4h-2v5l-2 2-1 5h-2v2l-6 1-3-1 2 4 3 2v3h2l-1 4-5-1v3l3 1-4 3-3-2v2h-2v2h4v3h-3v4h-2l-1 3h-5l-3 4-5-1v2l-6-1-3 2h-3l1 3h-4l1-8 1 3 4-1 2-3 13-4 2-3-1-2 4-5 4-1h-3l-4 1-7 3 3 3-2 3-5 3-18 2v2l3 2-1 2 2 1-14 1-1-5h2l1-2 4-1 1-3 4-2v2l9-1h3l1-2h-7l-5 1v-2l5-2 8 1v-2l-9-1-1 2-5 1-5-1-1-3 9-2h7l3 1 3-2 4 1 1-1h5l1-3h5 3l1-2-2-1 5-3-9-3 1 7-3 1v-2h-2l-1-1-3 1v2l-11 3v-2l-6-2-1 3h-3l1-3h-5v4l-3 1-4 2-13 1v-2h2l1-8h-3l-1 4-1-2-3 2 5 1-1 2h-2v2l-7-1v3l9-1v2l-3 3-3-1v-2l-6 1 2 2-7 1-5-1-5 1-1-1-7-1 1-2h8l3 1 7-4 3-1v-3l2-2-2-2-7 1v-2l-7 2-4 1-3-1 1-3 2-1-9-3-2 2-9 1-5-1-6 2 1 2h4l5 1v2l2 2-7 3-10 1v-3l4-1h-2l1-8 3-4-2-2 4-2 3-5 3-2-1-2-1 3-9 1-2 2h-3l-3-6h-3l-2-3 1-3 13-6 13-4 11-3 25-4zm24 65 3 1z" fill="#6C7E4A"/>
<path transform="translate(1331,271)" d="m0 0 26 3 11 3 21 10 14 8 13 12 11 10 8 11 7 14 1 9-3 1-7-12-3-6-4-4-7-8-6-2-6-1 1 8h-8l-2-9h-3l-1 4-2-1-1-5-4-5-3 1-1 2 3 1v3l3 2-1 3h-3l1 3-2 1 1 4-6-2 1 1-1 5h-3l-3-3-1 2-9 1-3 1-2 3-3-1v-2l-4 2v-2l-3 1-1 5h-2l-1 7h-3l-2-6-2-1v-4l-9-2-3-5-4-5-4-1 1-7h-2l2-6-7 3-2 1-3-3v8l1 3h-6l-1 5-2-1-1-9 2-3-1-4-4 1-2 2 1-7 2-3-4-1-2-1v-5l4 1 4-4h2v-4h2l2-6 6-7 13-5z" fill="#DBD2A0"/>
<path transform="translate(970,318)" d="m0 0h45l35 4 27 5 1-3v4l6 1 18 4 24 7 36 12 23 8 16 8 11 4 8 4v2l5 2 12 7 5 10v2l-2 1v4h2l6 8v12l-5 5-15 1 1 4h-2v2l-40 2-22-1-46-5-47-7-33-7-35-9-22-8-15-6-8-4-7-2-24-14-8-8-7-8-4-5-4-9 1-6 5-5 5-2v2h-2l-2 10h-2l2 6 4 4v2h2l3 3v2l5 2 4 3v2l4 1 9 6 16 8 11 5 9 3 10 2 14 6 12 5 15 5 26 5 22 5 36 5 29 3h9l7-1h45l8 1-3-5-15-9v-5l1-1h10l-1 6 8 4 7 1 4-7 1-2h-7l-3-1 1-3 4-1-1-9-5-5-11-6-6-5-5-3-3-2-9-3-17-9-11-5-13-4-9-3-10-3-14-4-12-3-13-5-14-3-10-1-7-2-24-6-19-2h-36l-21 2 3-3z" fill="#D7CE5B"/>
<path transform="translate(1077,304)" d="m0 0h6l4 4 4-3 4 2 7 6 6 1 1 3h2l2-3 5 1 1 2 9-1v2l3 1v2l10-1 5 3-2 1 3 3 2-1v3h2l1-2v2l6-4h6v3l-4-1 1 3-1 2h2v-2l7-2v-2l5-1v3l6 2v3h-2v2l7-1 4-3-4-6v-2l6-1v-2l-3-1 3-1h6l-3-5 5-1v5l1 3h4v2h4v-3h3v-5l4 1-1-3-3-2h7l2 5 1 9 3 13 2 15 4 14 3 10v6l-5-2-8-2v-2l-6-2-10-4-16-7-5-3-57-19-7-2v-2l-6-1v-3l-4 1-2-4h-7l-5-5-6-5-1-4 6 1 1 2h1l-1-3-9-3-4-1v-3h-2z" fill="#20330D"/>
<path transform="translate(1297,359)" d="m0 0 2 4 3-1 3 3v2h2v2l4 1v3h2l3 3 3-1 1-2h-3l1-4v-4-3l5 2v3l-1 3 5-5h2l1 3-2 2v3l2 1h-3l-2 2-3-1 3 6 3 1 3-2v-2l5 2-1 3 2 1h2l-3-6-2-3 1-3 4-2h2l4-1 1-4 3 1 2 10h-2v2h3l3 3 2-9h5l1 2 7 2 2-3-1-2 4 1 4 4 5-2-1-2 4 1-1 4 5 2 3 4 2-10 6-1v4h2l2 3v9l-4-1 2 4 2 1 1 5-4 2v-2l-4-1-2-4-1 2 3 5v2h-2v2l-6 2-1 3h-2l1 5-3 3-5 1-7-7h-5l4 7v3l7 1 2 1v4l7 1 2 2h7l17-5 9-6 5-5 5-4 6-10 5-11h1v7l-5 12-5 6h-3l-3 9-12 5-12 3-2 1-21 2-12-1-13-5v-2l-8-1-8-3-6-4v-2l-4-2-11-9-7-9-5-8v-2h-2v-4h-2l-8-16z" fill="#796D5D"/>
<path transform="translate(995,340)" d="m0 0h31l23 2 20 5 7 2v2l13 2 2-2 8 1 4 2v2h-8l-1 5-4 4-10 4-10 1-1 5-18 2-3 2-10 3h-14l-2 4-7 4-9-2-11-6-3-3-6-3-10-9v-3h-2l-1-2v-9l5-6 12-6z" fill="#C8B62E"/>
<path transform="translate(1294,195)" d="m0 0h8l13 4 8 4 10 4 17 9 18 10 7 4 1 3 8 5v2h2v2l5 2 9 7 10 9 9 6 8 8v2l5 3 12 14 1 3h2l6 8v5l2 1 3 4 5 3 10 16 2 9 4 9 4 13 1 8 1 5 1 25h-2v5l-3 1-1 6-7 5-6 12-5 11-4 4-5 2h-5l-4-6 1-9 6-14 2-17-2-19-3-8v-5l1 2h2l6 16 2 7 2 13 2 3h4l2-4 4-9 3-14v-11l-4-14-1-7-7-15-3-5-2-7-5-5v-2h-2l-6-8v-2h-2v-3l-4-2-9-9-7-8-5-6-4-4-7-8-5-4-3-1v-2l-5-2-12-12-6-5v-2l-5-2-12-7-10-6-6-3-9-6-8-4-12-3h-6l-4 4 4 1 4 2 6 2 24 12 1 4-7-1-5-4-14-7-6 1-6-3v-2l-9-3-4-2v-2l-5-1-6-3 2-5 3-3h2v-2z" fill="#CDCC4B"/>
<path transform="translate(1061,424)" d="m0 0h11l37 6 2 4 8 2-1 2 5 1 5-5h4l1 4 5-1 4 5v2l5-5 2-1 3 2-1 3 13-2 5-1 2 1v2l5-4 6-1h39l-2 3-5 2-6 7-9 2-4-1-3 3h-6l-7 3h-10l-8 1-3-1-8 3-4 3-9 2 3-7-9 3h-4v-2h-15v-2h-2v-2h-2v2l-4 3-3-2 3-3-4 1v3l-3-1-4-1-1 2-11 1-1 3-3-1v-2l-12 2-5 2h-2l-3 3-4-1 2-4-4-1-2 3h2v4l-4-1-7 1-7-1v2l-7 3-2 3-10-2 1 4-2 1 8 5v2l-11-3-18-7-3-3 10 1 2 3 5 1-5-2 3-1v-8l2-2 4 1 4-1v-2l-2-1 11 2v2l3-2 3-3h-2l1-2 4 1 4-1 3 1 1-2-3-2 5-1h4l1-2v3h8v-3h2v4l5-1 1-4 4-2h3v-2l5 1v4l3-3 3-1-1-2 2-1h-5l-2-2-3-1 2-2 6 1v2h6l2 1 1 1h2l-1-3h-6l-3-3v-2h-3l-4-4-1 3h-4l1-4h1l3-2h-2v-3h-2v2l-4 2v3l-3 1-3-3v-3l3-2z" fill="#2B3F18"/>
<path transform="translate(1287,427)" d="m0 0 7 6 14 11 12 8 10 6 12 6 12 7 16 6 5 2 12 2 29 1 6 2 2-1 11-1 3-2h10l9-3 5-4 9-1-2 4-9 8-15 9-8 4-16 4-11 1h-34l-21-4-21-7-19-10-18-13-2-5 4 1 2 1 1-4h-2l-1 2-1-4-5-1v-3l4-4-1-1h-3v-3l-2-1h2l-3-4-1-6 1-4-3-3z" fill="#37491C"/>
<path transform="translate(905,360)" d="m0 0 2 2h-2l1 8h3l1 5 3 4v2h2l1-2v3l4-1 5 6 2 1v2l-5-1-4-3-1 1-3 2 1 3h2l3 5 3-1 5 5-1 1 4 1 1-3 3 2h3l-2-1 1-2 4 1 4 5v-3l4 1 4 7 4-1 2 1v-4l5 1 1 1 1-2-5-2 1-2-2-1 1-3 4 2 8 3 2 3-1 4 1 1v6l-2-1-1 1 3 3v2h2v2l4 2 1 3 1-8-1-3h-2v-6-3l3 3-1 2 5 2 4 5v6l2 1 5 5v4l5-1-1 8h3l-1 4-5-2-2-4h-2v2h2l-1 7 5 1-1 6-3-3h-3l-1 2-2-1v2h-2l-2 6h2l2 6 4 4-9-1-14-8-16-11-13-12-16-16-8-11-3-4-3-11-5-5-1-10-2-3-1-7v-14zm88 65 2 2h-2z" fill="#42552E"/>
<path transform="translate(1291,322)" d="m0 0 2 4v14l3 13 2 2v3h2v2h2v-2h3v-4l5 1v3l5-2 1 2v-2h2l-2-5 1-2-1-4 5-2 3 2 2 5 2-2 3 3 2 5 1 3h2l-2-4 1-1-2-1v-2l5 2v4l4-3 5 4v2l4 1 2 4 4-2 1-4 2 2 3-1v-2h2v-2h3l2-4v2l2 1-1 3 4 2v2l7-1 4-5h4l1-3 5 1v1h-5l2 6h4l-1-5 1-2-1-5 4-1 1 3 7 4v2h4l1-2 2-1 2 5 2-2 3 4h2l-1-4h-3l-2-6-1-2 1-2h2v-4l-4 1v-3h-2l-3-13v-3l5-1 4 6 5 1 2 6-4 1v2l2 1-1 2h2l1 7 3 5 1 10-3-1v2h-2v-2h-3l2 5v8l-1 5-1 4h3v-2h2l1 5h-2l1 4-3 2h-6l-3-2-1 5h-3l-2 4-2-3-3 3-6 2-3 7-7 5-1 7-4 3h-2v-4l-9-2-4-7v-3l5-1 5 5v2l9-1v-7l2-2 1-2 6-1v-2h2l-4-8 3-3 2 6 4 2 2-2v-4l-3-1-1-4 4 1-1-5-1-7h-2v-4l-6 1-1 11-7-6-2-1v-4l-1 1-4 2-3 1-4-5h-1l-2 4h-4l-10-4-1 7-1 2-3-1v-2h-3v-2h2l-3-10h-2l-1 3-4 1-1 2-3-1-2 4 4 6 1 4-2 1-3-3-2-4-2-1 1 3-5 2-4-3-1-5h3l2-2v-3l2-3v-2h-2l-2 4-3 1 1-5-5-3 2 7-2 1-1 3h3l-1 3-3 1-3-2v-2h-2v-3l-4-1v-2h-2l-4-4h-2l-1-2-2 1-5-16-1-21z" fill="#98896C"/>
<path transform="translate(1309,208)" d="m0 0 11 1 10 3 7 5 7 4 15 8 11 7 7 4v2l4 2 5 5v2l4 2 8 7 2 1v2l4 1 11 10 2 5 4 2 18 20 5 4v3h2l6 8v2h2l7 8 2 7 7 15 2 4 3 15 2 6v11l-4 17-3 6-5 5-4-2-2-9-1-6-2-7-5-13v-3h-2l-2 4-1-9v-12l3-1 5 4 6 3 3 6 3-1-2-13-4-9-4-7-2-1-5-10-1-4h-2l-5-8-9-10-3-5-5-5-5-6-8-7-13-12-18-12-18-9v2l-8-1-20-11-14-8-20-12-2-3 6 2 2 1v2l8 2 4-1 17 9 2 2 6 1v-2l-14-7-6-2v-2l-6-2-7-2-5-3 1-3z" fill="#DBD15D"/>
<path transform="translate(1231,265)" d="m0 0h1v5h2l4 18 3 13 1 5 5 5v12l-1 2 1 12 4 10 3 7 1 6h2v2h2l2 5h2l3 7 7 14 6 5 7 11 4 6 3 3v2l5 2 12 10 12 8 7 3 7 4 20 8 9 3v2l10-1 3-3v-6l-4-1-11-4h-5l-2-4 2-3 5 3 3 1v2h9l5 2 4 2h14l10 2v2h6v2l3 1 1 4 3 2-4 1v2l-12 1-1 1h-15v4 2l3 1-6 3h-11l-4-2-6-1v-2l-7-2-21-8-3-3-8-4-7-3v-2l-4-2-3-2v-2h-3v-2h-3v-2l-5-2-7-6-5-9-2-1-1-3-9-7-6-7-5-14-5-4v-2l-6-2-4-6-1-12 1-2-1-3 1-2-3-1-1-5-3-12-3-7-5-15-4-11-3-28z" fill="#C6C231"/>
<path transform="translate(689,215)" d="m0 0h17l9 4 7 8 3 9v17l-4 10-5 6-10 5h-16l-9-4-5-5-3-4-3-10v-14l3-9 4-6 9-6z" fill="#1A0859"/>
<path transform="translate(457,215)" d="m0 0h17l10 4 6 7 4 11v13l-2 7-3 7-5 5-4 3-7 2h-14l-8-3-7-6-4-8-1-4v-18l4-10 9-8z" fill="#1B095A"/>
<path transform="translate(1155,198)" d="m0 0 8 1 14 2v1h-13l-1 3-10 1-4 6-5-1v2l-3-1v-2l-4 1v-2l-3 4h-6l1 2 1-1h6l-1 4h-2v3l1 3 2 1 1 4 3 2 1 5 2 3-1-8 5 1-1 5 3-2h3l6 3-4 4 2 1 2 3v-2h6l4-1v4l-3 1-4 2-13 1v-2h2l1-8h-3l-1 4-1-2-3 2 5 1-1 2h-2v2l-7-1v3l9-1v2l-3 3-3-1v-2l-6 1 2 2-7 1-5-1-5 1-1-1-7-1 1-2h8l3 1 7-4 3-1v-3l2-2-2-2-7 1v-2l-7 2-4 1-3-1 1-3 2-1-9-3-2 2-9 1-5-1-6 2 1 2h4l5 1v2l2 2-7 3-10 1v-3l4-1h-2l1-8 3-4-2-2 4-2 3-5 3-2-1-2-1 3-9 1-2 2h-3l-3-6h-3l-2-3 1-3 13-6 13-4 11-3 25-4z" fill="#74844F"/>
<path transform="translate(1249,201)" d="m0 0h8l6 3v2h2l1 5h-2l-2 4-4 2 1-5-7 2-7-2-6 3-3 3-2 5v9l2 8h2l1 7v14l5 25 2 13 1 9 2 3 2 10 4 9 4 20 12 24 4 5 10 13 4 4 4 7 6 5 3 6 10 8 4 6 4 2 4 4 5 2 6 3 5 1 2-2-3-11-5-3-6-8-3-3-4-7-5-5-6-5-8-13-2-2v-3l-3-1 2-5 2-1 4 8v2h2v4h2l8 13 4 4v2l4 2 6 7 6 9 7 5 8 4 5 2v5l4 1 7 2 10 4 1 6-4 4h-10l-12-5-20-8-7-5-7-3-14-10-10-8-5-5-4-5-6-10-5-5-5-6-2-5-3-6-2-7h-2l-2-5h-2v-2h-2l-4-12-4-9-1-6-1-9 1-3v-10l-2-4-3-1-1-6-4-16-1-5-1-9h-2l-2-8-4-26v-6l3-3v-2h2l-1-4 7-11 5-5 2-3z" fill="#CDCC4B"/>
<path transform="translate(613,216)" d="m0 0h25l7 2 8 4 6 9 2 7v12l-3 9-4 6-5 4-11 4h-25z" fill="#170559"/>
<path transform="translate(1e3 409)" d="m0 0 8 1 36 9 20 4-3 1-1 2-1 1-3 5 3 2h2l-1-4 5-1v-2h2v3h2l-1 2v2l-3-1 1 2h2l1-2 4 2v2h3v2l3 1v2l6-1 1 4h-2v2l-2-1 1-2-8-1v-2h-7l4 2v2l7-1-2 3 3 2h-7l-1 3h-2l-1-4-4-1 1 3-3 1h-3-2v5h-6v-4h-2v3l-5 1-4-2-8 1 3 2-3 3-5-1-3 1h-1l-1 3-2 2-5-1-7-2v2l-6 2h-3l-1 9 7 3-4 1-8-3v-2l-7-4-1-6h-2l1-2h8l3 3 1-2 5-1h3l-3-5-3-1 1-2 5 2 2 2h3 2l2-2-2-3 3-1h2l3-1 1-2 1 2 1-3 8 1 3 2v-2l-5-2-1-3 4-1v-2h-6l-3-3 4-4-5-2v-4h4l-4-2h-6l-1-2h-7l-1-2h2v-2l-6-1v-1l7 1 2 2h4l-2-5-7-1-2-2-2 2h-2v-3h-2z" fill="#344519"/>
<path transform="translate(1375,231)" d="m0 0 11 7 18 14 13 11 8 7 10 10 8 7 10 11 11 14 9 12 12 22 7 19 4 15 2 14v18l-4 20-6 19-7 12-9 10-10 1-5 4-9 3h-10l-3 2-13 1-1-4 11 1 4-3h12l8-3 5-5h2v-2l5-5 7-10 5-14 4-20v-10l1-9-1-25 1-2-2-1-2-10-5-17-4-9-1-5-2-2-2-4-5-8-6-4v-2l-2-1-4-9-3-3v-2h-2l-9-11-4-5-5-3-3-5-10-9h-2v-2l-4-2-11-10-11-7v-2h-2v-2l-5-2-4-3z" fill="#B5B949"/>
<path transform="translate(228,313)" d="m0 0h15l8 4 5 6 3 7v17l-5 10-5 4-8 3h-12l-10-5-5-8-2-6v-14l4-10 7-6z" fill="#1C0B59"/>
<path transform="translate(461,313)" d="m0 0h14l9 4 6 8 2 7v13l-4 10-5 5-7 3-3 1h-9l-9-3-6-5-4-9v-18l4-8 7-6z" fill="#1C0A59"/>
<path transform="translate(1036,341)" d="m0 0 13 1 20 5 7 2v2l13 2 2-2 8 1 4 2v2h-8l-1 5-4 4-10 4-10 1-1 5-18 2-3 2-10 3h-14l-2 4-7 4-9-2-11-6-3-3-3-2 11-7 11-4 15-1 2-2 10-3-2-1v-3h4v2l15 1 14-5 1-3-14-4-20-5z" fill="#DAD05C"/>
<path transform="translate(1233,338)" d="m0 0 6 1 2 10 3 7 7 18 4 5 5 10v2h-2l2 7 2 3-1 5-7 1v17l-5 5-11 4-7 5-33 1h-19l-5 3-3 1v-2l-7 1-9 1-7 1 3-2v-2l-3-1-4 5h-2l-4-6-6 1-1-3 1-2-7 3-3 3-5-2-4-3-4-2v-3l39 4 17 2 22 1 25-1h15v-2h2l-2-5h16l1-3 3-2v-12l-5-6v-2h-2l-1-4 3-1-6-12-12-7 4-1 4 2-1-8-6-21 1-5 3 1-2-6 5-2z" fill="#43572F"/>
<path transform="translate(1179,199)" d="m0 0 15 1 5 1v-2l11 1-1 2 10-2h9v3h7l3 2 3-2 3 1-5 6-3 3-5 8v4h-2l1 3-3 2 1 15 1 5 2 12 1 3-2 10 3 26 4 11 2 6 4 13 2 3 2 7 2 10 2 1 1 6-1 2 1 11 3 5 6 3 5 5 4 9 3 7 7 8 7 5v3l3 1 4 7 3 7 8 9 21 14 12 6 17 9 9 2 9 5h8l2 1 31 2 7 4-2 1-3-1-29-1-15-3-12-5-9-4-18-10-12-6-22-16-13-12-9-10-8-11-9-14-7-13-4-7-6-15-4-11-8-32-1-9-1-4-1-17-2-7-1-13v-15l-1-8v-9l-2 5-3-1-1 2-1-3h2v-2h2v-2h2l-1-4 2-3h2v-5l2-4h2l-1-3 3-1-1-2-6-2v3h-5l-8-3v-2l-6 1v2l-16-1 1-2 3-1h-3-2v2h-6l-6-4z" fill="#ADB347"/>
<path transform="translate(108,215)" d="m0 0h19l9 2 7 3 4 6v13l-4 6-3 2h-3l16 24v2h-13l-11-17-3-4-6-1v22h-12z" fill="#190759"/>
<path transform="translate(1332,272)" d="m0 0 25 2 11 3 21 10 14 8 13 12 6 6-1 3-7-4v-2l-5-2-3-2v-2l-3 1v-2l-5-1-4-3-2-1-10 1-4-1h-6l-5-2-1 4-6 2-13 1h-3-3v2l-4 3-4-1-8-8-3-1 2-6-1-7 2-3 2-6z" fill="#D8F4D1"/>
<path transform="translate(1214,230)" d="m0 0 2 2h3v2h-2l1 2 3-1 3-5h1v13l1 7v16l1 10 2 10 1 16 1 2 2 12 4 18 1 8-2-3-3-1-1 4v-2l-4 2 1 6-4 1-4-23-1-2-2-19-1-6 1-2-3-1 3-1-1-6-1 3h-2v-4h2l1-4-4 1-3-2 6-3v-3h-8l-1 2-6 1 1 3-3 1-2 1v-5h-9v-2l-2-1 4-1v2l4-1 9 1 1-5v-1l-14 2-2-2-2 1h-7l1-4 6-3 6 2v-2h5l3-4h5l1-4h2v-2h3l-1-2-4-1 1-2h2v-2l4 1 2-2-2-1v-3h5l1-3h-2l-1-3-4-4v-2h2z" fill="#364719"/>
<path transform="translate(970,318)" d="m0 0h45l35 4 27 5 1-3v4l4 1-5 1 17 6 16 4 26 8 17 5 8 3 14 5 12 5 16 7 17 9 4 9 5 7 2 6 3 4v3l-6 4v3l7 3v3l-4 1h-7l-16-7v2l-5-2-9-5v-5l1-1h10l-1 6 8 4 7 1 4-7 1-2h-7l-3-1 1-3 4-1-1-9-5-5-11-6-6-5-5-3-3-2-9-3-17-9-11-5-13-4-9-3-10-3-14-4-12-3-13-5-14-3-10-1-7-2-24-6-19-2h-36l-21 2 3-3z" fill="#DAD05C"/>
<path transform="translate(570,215)" d="m0 0h15l5 12 4 13 4 10 6 18 1 5h-13l-3-9v-4l-22 1-4 12h-13l3-9 7-22 3-8z" fill="#1B0959"/>
<path transform="translate(1107,235)" d="m0 0 10 3-4 5h6l2-2h6v2l8-2 2 4-3 1v3l-7 5-4 1-4-1h-6l9 2 4-1 5 1h4v-3h6l3 3 1-3h2v-2l-9 1v-3l7 1v-2l2-1-5-2 1-2 4 1 1-4 3 1 1 4-2 4h-2v2l16-3v-2l3-1 3-3 4 1-2 1v2l3-1 1-2 6 2v2l7-3h4v-2l3-3 2 1-1 2h2v2l2-1-1-4 1-3h6l3 3-1 2-3 1v4h-3-5l-1 2-8 2-2-1-4 2-2-1h-7l-7 1v2l9 1 1-3 9 2 1-2-1 5-8-1-5 1v2l6-2 6 1-1 3h-12-4v2l-10 1-7-1-2 3-3-1 3-8h-2l1 3-5 1v-2h-2l-1 4 4 1v1l-10 1-9-2-8-1-7 1-10-1-1-3-9 1v-3l-10 1 3-5h2v-2l-3-1 11-2 2-5-5-1-1 2-5-2 2-4 9-1 3 2 1-2v2l7-3z" fill="#495C33"/>
<path transform="translate(347,215)" d="m0 0h15l4 13 3 7 8 24 3 8 2 6h-13l-4-10v-3h-22l-1 7-3 6h-12l3-12 6-17 6-16 4-12z" fill="#1B0959"/>
<path transform="translate(1075,329)" d="m0 0h9l18 4 24 7 36 12 23 8 16 8 11 4 8 4v2l5 2 12 7 5 10v2l-2 1v4h2l6 8v12l-5 5-15 1 1 4h-2v2l-40 2-22-1-28-3v-1l14-1 9 1h62l-3-5-13-10 2-1 10 4 6 3h11v-3l-7-2-1-4 5-4h2l-4-7-4-9-3-4-3-9-6-2-15-8-20-8-14-6-10-3-15-5-44-13-6-1-15-6z" fill="#C5C131"/>
<path transform="translate(1427,348)" d="m0 0 3 3 1 5h2v11l2 12 2-5 1-5h2l3 10 1 3 2-6h1l-1 12-8 17-4 5-5 5-10 8-10 4-11 3h-7l-2-2-5-1v-2l3-2 1-7 8-6 2-6 4-2 5-1 1-3 2 3 2-3h3l1-7 3 3h6l2-3v-2h2l-1-5h-2v2h-3v-8l1-4v-5l-1-5h3v2h2v-2h2l-1-9-3-6z" fill="#B1A670"/>
<path transform="translate(286,215)" d="m0 0h12v58h-12v-25h-23v25h-12v-57h12v22h23z" fill="#150359"/>
<path transform="translate(1287,427)" d="m0 0 7 6 14 11 12 8 10 6 12 6 12 7 16 6-4 1-1 3h-5l-4-5-1-1-3 4-3 1-1 2-8-1-1 2-9-1-2 1 3 2-1 2-6-3-6-1-18-13-3-2-2-5 4 1 2 1 1-4h-2l-1 2-1-4-5-1v-3l4-4-1-1h-3v-3l-2-1h2l-3-4-1-6 1-4-3-3z" fill="#41552D"/>
<path transform="translate(1175,222)" d="m0 0 8 2 2 2 3-2v2h10 3l4 2 1 5v-4l8-3 5 4v2l-4 1-3-1 2 4 3 2v3h2l-1 4-5-1v3l3 1-4 3-3-2v2h-2v2h4v3h-3v4h-2l-1 3h-5l-3 4-5-1v2l-6-1-3 2h-3l1 3h-4l1-8 1 3 4-1 2-3 13-4 2-3-1-2 4-5 4-1h-3l-4 1-7 3 3 3-2 3-5 3-18 2v2l3 2-1 2 2 1-14 1-1-5h2l1-2 4-1 1-3 4-2v2l9-1h3l1-2h-7l-5 1v-2l5-2 8 1v-2l-9-1-1 2-5 1-5-1-1-3 9-2h7l3 1 3-2 4 1 1-1h5l1-3h5 3l1-2-2-1 5-3-9-3 1 7-3 1v-2h-2l-1-1-3 1v2l-11 3v-2l-6-2-1 3h-3l1-3h-5l-4-7 2-4-10 1-6-2 2-4h-3l-5 1-2-4h2l2 2 3-2 6 1h3l4-1 2 1 1 1 5-1v-2zm4 41 3 1z" fill="#7A8752"/>
<path transform="translate(1179,438)" d="m0 0h42l-2 3-5 2-6 7-9 2-4-1-3 3h-6l-7 3h-10l-8 1-3-1-8 3-4 3-9 2 3-7-9 3h-4v-2h-15v-2h-2v-2h-2v2l-4 3-3-2 3-3-4 1v3l-3-1 2-4 4-1 1-3 4-1-2-1v-2l-2-1 3-1 3 1 1-4h10v2l3 1h-2l-1 2-2-1 1 4-3 2v-2h-2v3l6-2 2-4h2l2 3 14-1 9-3h5v2h2v3l5 1 1-7 5-2 2 2h3l2-4z" fill="#293F19"/>
<path transform="translate(1070,217)" d="m0 0 2 1v3l5-1v3l1 5 6-3 8-1 1-2 2 1-1 3h-3l-2 5-4 2 2 3-3 3-1 6 4 4-7-1v3h-10l-3-3v3h-3l2-6v-9l-4 2-2 5-1 3 5-2-1 5-5 2v2l-7 4 3 3v2l-7-1v3l8-1 6-8h2l-1 4h-2l1 3-3 2-2 3-4 1-2-1v2l-4 1 1 10 3 5 7 1-4 2 1 1v2l4 2 2 2 1 6 4 3v2h2l3 5-1 3-6-5-7-8-10-13-5-11-1-3v-14l3-11 6-12 9-11 10-8z" fill="#475A31"/>
<path transform="translate(1258,391)" d="m0 0h3l9 14 10 13 7 8 3 5 1 2-1 4 2 6 1 4v3h3l1-2v4l-4 5 5 2 2 2h2l-1 4h-4l-1 2-15-13-7-7-8-7-6-6-4-2-3 1 2-7-5 1 3-3v-18l8-1-1-6-2-3z" fill="#22340F"/>
<path transform="translate(904,345)" d="m0 0h2l4 9 7 8 11 12 26 15 9 3 12 6v3l2 1-1 3h-3v-2l-12-4-1 2 3 1-1 2 4 2-1 3-6-3v4l-5-1-1 2-5-8h-2l-1 3-5-6-4 1 6 2-2 1-7-2-1 1-3 1-6-2 4-2-5-3h-3l-2-5h-2l-2-5h3l-4-2h6l5 4 4 1v-2l-4-2-3-4-7-1-5-8 1-3-3 1-1-1v-8-2z" fill="#40532D"/>
<path transform="translate(161,215)" d="m0 0h33v11h-21v12h20v10h-20v15h22l-1 10h-33z" fill="#1D0C59"/>
<path transform="translate(1232,452)" d="m0 0h3v2l-15 10-16 7-11 4-23 7-15 3-1 1-33 4-12 2-11 1h-40l-18-2-19-5-2-1v-2l12 3h8l4-1 5 3v-2l3 1 10-1 12-1 6-3 1 1h7l4-1h26l14-1 15-2 12-2 4-1 5-2 13-2 4-2 10-1 21-7 9-6z" fill="#151E1E"/>
<path transform="translate(217,215)" d="m0 0h14l8 3-1 6-2 4-18-3v2l-2 1v5l9 6 9 5 5 6 1 2v11l-7 8-7 3h-14l-9-3-1-1v-11l12 4h9l4-1v-6l-4-4-13-7-5-6-2-5v-7l3-6 5-4z" fill="#1B0A59"/>
<path transform="translate(382,216)" d="m0 0h13l5 16 4 14 3 9 1 4 6-21 6-17 1-5h13l-3 9-14 43-3 5h-13l-8-24-3-8-8-24z" fill="#180659"/>
<path transform="translate(299,521)" d="m0 0h13l9 15 10 17 1-32h9v46h-13l-6-9-13-23-1 32h-9z" fill="#29E474"/>
<path transform="translate(257,531)" d="m0 0h6l6 4 3 4 1 3v14l-4 8-3 3-3 1h-7l-6-3v18h-10v-51h8v4z" fill="#29E373"/>
<path transform="translate(112,314)" d="m0 0h24l6 3 3 4 2 4v8l-4 8-4 3-6 2h-10v17h-11z" fill="#1D0C59"/>
<path transform="translate(523,215)" d="m0 0h15l9 3-2 7-1 3-10-2h-7l-6 3-4 8v14l3 7 4 4 3 1h10l5-2h3v10l-8 3h-14l-10-4-6-7-3-7-1-7v-11l4-11 7-8z" fill="#1B095A"/>
<path transform="translate(1448,375)" d="m0 0 2 1 3 13 1 16-2 14-6 14-2 8-7-1-10 1-16-1-3-1v-3l-4-1-3-2-7-1v-1l10-1 8-3 8-2 10-4 3-8 5-3 5-10 2-5 2-19z" fill="#B5B944"/>
<path transform="translate(64,215)" d="m0 0h33v10l-1 1h-20v14h19v11h-19v22h-12z" fill="#220F5B"/>
<path transform="translate(1484,402)" d="m0 0h1v18l-5 22-8 10-5 4-6 7-11 2-4 1h-5l2-2-8-3v-2l-2-1 1-2-2-2 2-5 3-3 1-6 4-1 3 3 3 5 7-1 5-3 3-5 5-11 5-9 6-4 2-6 2-1z" fill="#C6C130"/>
<path transform="translate(60,314)" d="m0 0h10l1 36 4 4h9l5-5 1-35h10v38l-4 6-5 4-6 2h-10l-7-2v-2l-4-1-4-7z" fill="#170559"/>
<path transform="translate(388,532)" d="m0 0h9l3 8 3 12v4h2v-8l5-16h10l3 9 3 14 6-21 1-2h9l-2 9-7 24-1 2h-11l-5-21v-4h-2l-2 12-3 12-1 1h-10l-3-8-7-24z" fill="#29E474"/>
<path transform="translate(364,531)" d="m0 0 10 1 7 6 3 8v7l-3 8-5 5-5 2h-9l-8-4-4-7-1-4v-8l4-8 5-4z" fill="#29E474"/>
<path transform="translate(211,531)" d="m0 0h7l8 4 4 5 2 8-1 9-4 7-8 4h-9l-8-4-4-6-1-4v-9l4-8 5-4z" fill="#29E474"/>
<path transform="translate(1306,379)" d="m0 0 5 4 4 5 2 1 2-4h3l1 4 4 2 3 3 4 3v5l10 1v2h2v-3h4l1 5-3 1v3h6l5 2-4-5 6 1 2 1 3 5 3 2 1 3 10 3v5l7 2v1h-19l-10-4v-2l-8-1-8-3-6-4v-2l-4-2-11-9-7-9-5-8v-2h-2z" fill="#42562D"/>
<path transform="translate(1390,485)" d="m0 0 2 1v2h7l-3-3h8v2h11l5-1 7 4 3 9-9 2-11 1h-34l-21-4-9-3v-3l8 1 3-5 4-1v2h3l1-2 3 1 9 1 6-1h4z" fill="#20320E"/>
<path transform="translate(1291,322)" d="m0 0 2 4v14l3 13 2 2v3h2v2h2v-2h3v-4l5 1v3l5-2 1 2v-2h2l-2-5 1-2-1-4 5-2 3 2 2 5 2-2 3 3 2 5 1 3h2l-2-4 1-1-2-1v-2l5 2v4l4-3 5 4v2l4 1 1 5-3 2-1-2h-2l-1 3-4 1-1 2-3-1-2 4 4 6 1 4-2 1-3-3-2-4-2-1 1 3-5 2-4-3-1-5h3l2-2v-3l2-3v-2h-2l-2 4-3 1 1-5-5-3 2 7-2 1-1 3h3l-1 3-3 1-3-2v-2h-2v-3l-4-1v-2h-2l-4-4h-2l-1-2-2 1-5-16-1-21z" fill="#97886C"/>
<path transform="translate(327,314)" d="m0 0h26v8h-17v8l-1 2h11l7 3 4 6v11l-4 7-6 4-4 1h-14l-5-3v-8l6 1h12l3-2v-8l-1-3h-15l-4-2 1-24z" fill="#1D0C5A"/>
<path transform="translate(692,225)" d="m0 0h10l5 3 4 5 1 4v15l-4 8-6 4h-7l-5-2-6-7-1-3v-15l4-8z" fill="#F4F3D6"/>
<path transform="translate(461,225)" d="m0 0h9l6 3 4 5 1 3v16l-2 6h-2l-1 3-4 2h-12l-5-4-3-7v-15l4-8z" fill="#F5F5D7"/>
<path transform="translate(157,518)" d="m0 0h9l1 17 4-3 9-1 6 3 3 5v28h-9l-1-23-1-3-7-1-4 4-1 23h-10v-48z" fill="#29E474"/>
<path transform="translate(1053,274)" d="m0 0 8 5v2h-4v2l3 1 1 2 6-2-1-3h2v5h-2v2l5 1v2l-4-1v2l2 1 1 5 5-1 3 5 1 4 1 3h2l2 2 9 4 3 3 3 1-1 2-4-2v-2l-3 1v-2l-2 1 1 3 7 6 3 3 7 1 2 3h4v3l6 1-4 1-16-5-15-3-6-2-3-7-6-6-1-5-1-4h-2v-2l-4-2-2-4v-3l-5-4v-2h-2l1-2 1-1h-5l-3-6 1-3 4 1 1-1z" fill="#364725"/>
<path transform="translate(1068,447)" d="m0 0 5 1-3 1v3l-4 1 4 2 5-1 4 2v5h-9l-10 3h-2l-3 3-4-1 2-4-4-1-2 3h2v4l-4-1-7 1-7-1v2l-7 3-2 3-10-2 1 4-2 1 8 5v2l-11-3-18-7-3-3 10 1 2 3 5 1-5-2 3-1v-8l2-2 4 1 4-1v-2l-2-1 11 2v2l3-2 3-3h-2l1-2 4 1 4-1 3 1 1-2-3-2 5-1h4l1-2v3h8v-3h2v4l5-1 1-4 4-2h3z" fill="#293E19"/>
<path transform="translate(996,405)" d="m0 0h11l20 6 26 5 15 3 9 3 1 1h12l13 2 6 1h8l11 2 5 2h17l5-1h26l10 2 8-1h18l1-4 4 4v3l-4 1h-58l-15-1h-19l-48-7-35-7-32-8-15-5z" fill="#C2C34A"/>
<path transform="translate(155,117)" d="m0 0h14l7 3 5 6 1 3v10l-6 8-5 3h-17v-32z" fill="#827562"/>
<path transform="translate(540,314)" d="m0 0h29v8h-19v13h17v9h-16v19h-11z" fill="#1F0E59"/>
<path transform="translate(131,520)" d="m0 0h8l9 3-1 5-3 3-7-2-6 1-1 1v5l14 8 4 5 1 8-3 6-5 4-4 1h-12l-7-3v-8l9 2h11v-6l-15-10-4-6v-8l6-7z" fill="#29E474"/>
<path transform="translate(1300,371)" d="m0 0 3 4 2 6h2v4h2l8 13 4 4v2l4 2 6 7 6 9 7 5 8 4 5 2v5l4 1 7 2 10 4 1 6-4 4h-10l-12-5-20-8-7-5v-2l4 2 8 3 4-2-3-11-5-3-6-8-3-3-4-7-5-5-6-5-8-13-2-2v-3l-3-1 2-5z" fill="#CDCC4B"/>
<path transform="translate(502,314)" d="m0 0h28v8h-18v13h17v9h-17v19h-10z" fill="#170559"/>
<path transform="translate(1251,371)" d="m0 0 2 1 2 4 6 3 5 5 4 9 3 7 7 8 7 5v3l3 1 4 7 3 7 8 9 21 14 12 6 17 9 9 2 9 5h8l2 1 31 2 7 4-2 1-3-1-29-1-15-3-12-5-9-4-18-10-12-6-22-16-13-12-9-10-8-11-9-14-7-13z" fill="#A7AF47"/>
<path transform="translate(169,314)" d="m0 0h37v9h-13v40h-11v-40h-13z" fill="#200E5B"/>
<path transform="translate(625,226)" d="m0 0h13l6 4 4 7v13l-3 7-4 4-4 2h-12z" fill="#F4F3D5"/>
<path transform="translate(1211,372)" d="m0 0 9 4v2l5 2 12 7 5 10v2l-2 1v4h2l6 8v12l-5 5-15 1 1 4h-2v2l-40 2-22-1-28-3v-1l14-1 9 1h65l-4-7 15 1 5-3-3-4-5-3 1-5 1-4-2-3-2-8v-8l-5-5-2-1v-2l-5-2-8-5z" fill="#C5B52F"/>
<path transform="translate(230,322)" d="m0 0h10l5 3 3 6v14l-3 6-4 4h-11l-6-6-1-5v-13l4-6z" fill="#F5F5D7"/>
<path transform="translate(463,322)" d="m0 0h10l6 5 2 4v12l-3 8-3 3-3 1h-9l-6-7-1-2v-16l4-6z" fill="#F5F5D7"/>
<path transform="translate(1057,233)" d="m0 0h2l1 4-1 8 3-1h2l-1 5-5 2v2l-7 4 3 3v2l-7-1v3l8-1 6-8h2l-1 4h-2l1 3-3 2-2 3-4 1-2-1v2l-4 1 1 10 3 5 7 1-4 2 1 1v2l4 2 2 2 1 6 4 3v2h2l3 5-1 3-6-5-7-8-10-13-5-11-1-3v-14l3-11 6-12 3-1 1-2z" fill="#4B5D34"/>
<path transform="translate(1404,343)" d="m0 0 1 2h3l1 3 6 1 2-4h2l1-2v4h-2l1 4 2 6 3-1 1 2-1 3h-2l-1 3-2-6-2 2-4-4-5 1-1-2-7-4-1-2h-3l2 6v3l-1 3-5 1-1-7 1-1-2 2h-4l-1 3h-2l-1 3h-7v-2l-5-1 1-4-2-1-1 2h-3v2h-2v2l-5 2-1 1-5 3-2-5-1-2h2l-1-4h-3l-1-3 7-2 1-3 2 1 2 4 2 1 1-3 4-1v2l5-2v2h2l1-5 2-2 3 3-1 4 6-3 9-1v3l2 1 1-5 6-1h2z" fill="#B2A671"/>
<path transform="translate(302,313)" d="m0 0h8v50l-1 1h-10l-1-37-6 5-4-1-3-5 15-12z" fill="#28185B"/>
<path transform="translate(1094,428)" d="m0 0 15 2 2 4 8 2-1 2 5 1 5-5h4l1 4 5-1 4 5v2l5-5 2-1 3 2-1 3 13-2 5-1 2 1v2l2 1-4 1-2-2-4 1-1 7h-6l1-4h-2v-2l-13 3-1 1-14 1-2-4-1 2h-2l-1 3-6 1v-3h4v-4l3-1-1-3-5 1h-5l-5-4-5-3v7l-3-1-1-2-3 3-4-1 2-1v-3l-4-1-1-5 5 3-3-4 4-1z" fill="#344517"/>
<path transform="translate(1320,466)" d="m0 0 15 3 1-2v2h10l7 3 10 2 7 3-4 1-1 3h-5l-4-5-1-1-3 4-3 1-1 2-8-1-1 2-9-1-2 1 3 2-1 2-6-3-6-1-12-9h3v-2l1-3h6z" fill="#394829"/>
<path transform="translate(369,313)" d="m0 0h9l6 5 2 5v10l-3 8-4 3h-8l-6-3-3-7v-11l3-7z" fill="#1F0E59"/>
<path transform="translate(113,125)" d="m0 0h5l1 2 4-2h8l5 6v13l-4 5-2 1h-8l-1-1-1 12h-7z" fill="#817462"/>
<path transform="translate(1071,351)" d="m0 0 6 3v5l-7 3-15 2-3 2-11 1-23 6-9 3h-2v2l-6 3-1 1h-5l-3-3-3-2 11-7 11-4 15-1 2-2 10-3-2-1v-3h4v2l15 1 14-5z" fill="#CECD4B"/>
<path transform="translate(404,333)" d="m0 0h8l5 3 3 5v15l-4 6-4 2-9-1-5-6-1-3v-13l4-6z" fill="#1D0B5A"/>
<path transform="translate(1207,240)" d="m0 0 3 1-1 3 6-3h4l-1 4-5-1v3l3 1-4 3-3-2v2h-2v2h4v3h-3v4h-2l-1 3h-5l-3 4-5-1v2l-6-1-3 2h-3l1 3h-4l1-8 1 3 4-1 2-3 13-4 2-3-1-2 4-5 4-1h-3l-4 1-7 3 3 3-2 3-5 3-18 2v2l3 2-1 2 2 1-14 1-1-5h2l1-2 4-1 1-3 4-2v2l9-1h3l1-2h-7l-5 1v-2l5-2 8 1v-2l-9-1-1 2-5 1-5-1-1-3 9-2h7l3 1 3-2 4 1 1-1h5l1-3h5 3l1-2-2-1zm-28 23 3 1z" fill="#8C925E"/>
<path transform="translate(904,345)" d="m0 0h2l4 9 7 8 11 12 16 9-2 4-4-1 2 4h3l-1 2-5-1-10-4h-3l-4-5-7-1-5-8 1-3-3 1-1-1v-8-2z" fill="#36481A"/>
<path transform="translate(1180,355)" d="m0 0 9 1 4-1 9 4 7 3h7v-2l7-1 6 2 4 15v6l-5-2-8-2v-2l-6-2-10-4-16-7-5-3v-2l-3-1z" fill="#16201C"/>
<path transform="translate(1066,235)" d="m0 0h1v10l-3 6h3v-3l3 1v2h15v2l-4 4 5 2-1 2h-3v2h-2v-2l-2 1 2 3-2 1 3 2v1h7l1 2h-10l1 3-6-2-1-2 2-1-2-1v-4l-3-2v2l-2 1 4 4-4-1h-3l-6-2 2-2-1-5 2-1 1-3h-2l-2 4-4 5h-8v-3l7 1v-2l-4-2 5-5h3v-2l4-2 2-5-5 3-2-1 5-8z" fill="#2C4019"/>
<path transform="translate(1418,396)" d="m0 0 4 4 4 1 3-2 2 3-1 7-7 5-1 4-10 6-4 1-3-2v2l-4-1v-3l1-3-2-7 1-5 4-3h2v2l5-3 3-3h2z" fill="#C3B586"/>
<path transform="translate(90,125)" d="m0 0h9l5 3 3 5v10l-6 7-7 1-6-2-4-4-1-3v-10l5-6z" fill="#7F7461"/>
<path transform="translate(1201,236)" d="m0 0h6l3 3-1 2-3 1v4h-3-5l-1 2-8 2-2-1-4 2-2-1h-7l-7 1v2l9 1 1-3 9 2 1-2-1 5-8-1-5 1v2l6-2 6 1-1 3h-12-4v2l-10 1-7-1-2 3-3-1 2-3 4-2-1-2 3-1 2-4 8-2v-4l3-1 3-3 4 1-2 1v2l3-1 1-2 6 2v2l7-3h4v-2l3-3 2 1-1 2h2v2l2-1-1-4z" fill="#22350C"/>
<path transform="translate(1258,391)" d="m0 0h3l9 14 10 13 7 8-1 2-3-1h-5l-2-3v-3l-2-1 2-5h-3v6l-11-1v2l-10 5-2-1 3-2v-18l8-1-1-6-2-3z" fill="#2B3F0D"/>
<path transform="translate(1209,249)" d="m0 0 8 1 1 6-5 3-2 2v-2h-2v3l4 2v-2h7l1 5-3 1-1-2h-3v3h-2v2h6l-1 3-6 1h-2l-2 4-6 1 1 3-3 1-2 1v-5h-9v-2l-2-1 4-1v2l4-1 9 1 1-5v-1l-14 2-2-2-2 1h-7l1-4 6-3 6 2v-2h5l3-4h5l1-4h2v-2h3l-1-2-4-1 1-2h2z" fill="#304212"/>
<path transform="translate(1199,225)" d="m0 0 6 3 1 5v-4l8-3 5 4v2l-4 1-3-1 2 4 3 2v4l-8 2 1-5-9-3 1 7-3 1v-2h-2l-1-1-3 1v2l-11 3v-2l-6-2-1 3h-3l1-4 3-3v-2h2v-3h5l1 5-3 1v2l3-1 4-7 5-4h2l-1-3z" fill="#7D8954"/>
<path transform="translate(1305,330)" d="m0 0 4 1 2 2 4 2 6 1 4 8 5 2 7 1 1 2 4 2-1 4-4 3 1-5-5-2v2l3 1v3 2h-2l-3-4v-4h-4l-3-2-1-4-4-1-2 2 1 4v4 2h-2l1 3-3-1 1-2-5 2v-3l-5-1v4h-3v2h-2v-2h-2l1-3 1 1v-5h2v-2h3l1-2 5 1v-8l-2-4-3 2 1 2-2 3-5 1v-3l1-5 1-2h2z" fill="#B2A670"/>
<path transform="translate(194,125)" d="m0 0h10l6 7v8h-16l2 4h13l-1 5-4 2h-8l-5-3-3-3-1-3v-9l3-5z" fill="#827663"/>
<path transform="translate(1026,448)" d="m0 0 8 1 4 4-2 2 3 2-3 3-5-1-3 1h-1l-1 3-2 2-5-1-7-2v2l-6 2h-3l-1 9 7 3-4 1-8-3v-2l-7-4-1-6h-2l1-2h8l3 3 1-2 5-1h3l-3-5-3-1 1-2 5 2 2 2h3 2l2-2-2-3 3-1h2l3-1 1-2 1 2z" fill="#344518"/>
<path transform="translate(931,426)" d="m0 0h2l4 4v2h2v2h2v2l4-1 1-4 3 1v2h6l2 4 2 5 4 3-3-3 1-3 4 2v2l2 1-1 4 3 1 2 5 1 7-6-3-4-1-8-6-10-9-11-11z" fill="#70804C"/>
<path transform="translate(1139,213)" d="m0 0 10 3 1 2-4 2 3 1-1 5-3 1-1-3h-2l2 3 5-1h3v3 2l6 1h8l-1 5 3 4v2l-4 2h-5l-2 2-1-4-3-1 4-3-7-4-1 2h-3l-1-3v-2h-2l1 4-1 3-2-1-2-5v-2l-4-2v-3l-2-4-2-2 2-3h2l1-2h3z" fill="#6F804C"/>
<path transform="translate(220,125)" d="m0 0h11l5 5v20h-5v-3l-4 3-8 1-4-3-1-8 5-5h11l-2-4h-10l-1-5z" fill="#807361"/>
<path transform="translate(1213,213)" d="m0 0 2 1-1 5h2l1-2 3-2 1 2h2l2 6-2 4v3h-2v2h-2v-2l-4-2h-3l-5 2v2l2 1h-3v-2l-3-1h2l-1-2-5-2-2 1-9-1h-2-3v-2l-12-1 1-5h8l8 3 3-3 5 1-4 3 2 1 3-3 10-1-1-5h6z" fill="#485C32"/>
<path transform="translate(970,318)" d="m0 0h45l35 4 7 1 1 3 3 1h6l13 6-4 1-18-3-19-4-14-4-19-2h-36l-21 2 3-3z" fill="#D9D05D"/>
<path transform="translate(401,314)" d="m0 0h7l-1 5-6 10-18 33-1 1h-8l2-5 13-24 11-19z" fill="#210F5A"/>
<path transform="translate(1071,300)" d="m0 0 3 3 5 3 1 3h2l2 2 9 4 3 3 3 1-1 2-4-2v-2l-3 1v-2l-2 1 1 3 7 6 3 3 7 1 2 3h4v3l6 1-4 1-16-5-15-3-6-2-3-7-6-7 5 1 5 5 7 4 2 2h3v-2l-4-1-4-5-2-1v-2h-5l-1-3-4-2-1-6z" fill="#394928"/>
<path transform="translate(1142,231)" d="m0 0 5 1-1 5 3-2h3l6 3-4 4 2 1 2 3v-2h6l4-1v4l-3 1-4 2-13 1v-2h2l1-8h-3l-1 4-1-2-3 2 5 1-1 2h-2v2l-7-1v3l9-1v2l-3 3-3-1v-2l-6 1 2 2-7 1-5-1-5 1-1-1-7-1 1-2h8l3 1 7-4 3-1v-3l2-2-1-3h2v-2h2v-3l3 1 1 2z" fill="#7A8652"/>
<path transform="translate(1229,361)" d="m0 0 2 1v2h2v5h2l1 1 1-2 3 5 3 11 4 19h4l-1 8 2 11-5 5-4 1 4-4v-12l-5-6v-2h-2l-1-4 3-1-6-12-12-7 4-1 4 2-1-8-2-7z" fill="#71834D"/>
<path transform="translate(1208,420)" d="m0 0 5 2 4 3 1 5-1 1h-23l-7 1v-2h-32l-11 1h-12l-9-3-10-2 2-2 28 3h9l7-1h45l8 1-3-5z" fill="#DAD05C"/>
<path transform="translate(1344,480)" d="m0 0 1 3h10l2 1 3-2 5 1 6 3 3 1 8-1v2l-6 2-10-1h-2l-7-1-1 4-3 2-7-1-3 1-11-4-11-6 3-1 6 3-3-3 3-2 9 1z" fill="#2A3F1A"/>
<path transform="translate(1109,430)" d="m0 0 39 4 17 2v2h14l-5 4-3 1v-2l-7 1-9 1-7 1 3-2v-2l-3-1-4 5h-2l-4-6-6 1-1-3 1-2-7 3-3 3-5-2-4-3-4-2z" fill="#3A4929"/>
<path transform="translate(1214,230)" d="m0 0 2 2h3v2h-2l1 2 3-1 3-5h1v13l1 7v17h-2l-1-2-1 4-10 2v-2h2v-3h3l1-2v4l2-2-1-3-6-1v2l-3-1-1-4 4-1 5-2-2-5-2-2 1-1-2-1v-3h5l1-3h-2l-1-3-4-4v-2h2z" fill="#3D5025"/>
<path transform="translate(1217,426)" d="m0 0 5 4v3l-4 1h-58l-15-1h-13l1-3h17l5-1h26l10 2 8-1h18z" fill="#CCCB4A"/>
<path transform="translate(1058,262)" d="m0 0h3l1 3-1 1h4l4 2-1 8v1l2 5-2 2v-3l-1 3-4 3-3-1v-2l-4-1 1-3 4 1v-2l-6-2h-2l-1 3-4-2-3-3v-7l5 1v-2l6-1z" fill="#2A3F19"/>
<path transform="translate(1405,401)" d="m0 0m-5 1h5l-2 4-2 1 1 8 1 4-2 4 4 2v-2l4 1 4-2h3l-1 3-17 5h-7l-2-2-5-1v-2l3-2 1-7 8-6 2-6z" fill="#B2A670"/>
<path transform="translate(55,118)" d="m0 0h25v5h-9v27h-7v-27h-9z" fill="#9D8F70"/>
<path transform="translate(1470,472)" d="m0 0v3l-10 9-15 9-6 1h-3l-1-7 8 1 1-4 1-1-7 1-5 1-12 1 3-3 11-1 3-2h10l9-3 5-4z" fill="#3E502A"/>
<path transform="translate(1492,431)" d="m0 0h1l-1 8-5 14-7 11-8 9-10 1-5 4-9 3h-10l-3 2-13 1-1-4 11 1 4-3h12l8-3 3-3 9-4 8-9 2-4h2v-2h2l8-16z" fill="#758550"/>
<path transform="translate(1302,439)" d="m0 0 5 2 10 7 12 8 9 4 17 9 9 2 9 5h8l2 1 31 2 7 4-2 1-3-1-29-1-15-3-12-5-9-4-18-10-12-6-11-8-8-6z" fill="#748650"/>
<path transform="translate(905,360)" d="m0 0 2 2h-2l1 8h3l1 5 3 4v2h2l1-2v3l4-1 5 6 2 1v2l-5-1-4-3-1 1-3 2 1 3h2l3 5 3-1 5 5-11 1-6-6-3-1-1-10-2-3-1-7v-14z" fill="#394C23"/>
<path transform="translate(1288,430)" d="m0 0 3 3-1 4 2 6 1 4v3h3l1-2v4l-4 5 5 2 2 2h2l-1 4h-4l-1 2-5-5v-2l-5-5-6-11v-8l5-1h2z" fill="#293F19"/>
<path transform="translate(1445,388)" d="m0 0h1v7l-5 12-5 6h-3l-3 9-12 5-12 3-2 1-21 2-12-1v-1l15-1-6-2v-6h2v4l7 1 2 2h7l17-5 9-6 5-5 5-4 6-10z" fill="#748550"/>
<path transform="translate(1157,356)" d="m0 0 8 1 10 4 12 5 16 7 17 9 4 9 5 7 2 6 3 4v3h-2v-3l-5-2-2-9-6-9-6-5-10-5-5-4-15-5-4-1-9-4v-2l-5-1-8-4z" fill="#CECD4B"/>
<path transform="translate(1206,204)" d="m0 0h6l2 2 11 3v-3l6 1 1 3-2 2v2h-2v4h-2v5l-3-3v-3l-3 1h-3l-3 1v-5l-1 1-7-1-7-3-1-2 2-1-4-2h9z" fill="#73834E"/>
<path transform="translate(364,539)" d="m0 0 7 1 3 5v10l-4 5-5 1-5-4-1-3v-9l3-5z" fill="#170755"/>
<path transform="translate(212,539)" d="m0 0 7 1 3 5v9l-3 5-3 2-5-1-4-5v-10l3-5z" fill="#160655"/>
<path transform="translate(1056,347)" d="m0 0 8 1 7 3-2 4-14 5-13-1-2-1v-2h-4v3l5 1v1l-13 3-2 2h-6l3-5 8-1 3-1 1-4h10l5-1h3v-2l3-1z" fill="#C6C231"/>
<path transform="translate(912,385)" d="m0 0h6l4 3v2l-3 1v2h4l1 2 6 1-1-2 2-3 6 2 10 4-1 4 5 1 2 1 1-2 1 5h-2l-1 3-4-6h-2l-1 3-5-6-4 1 6 2-2 1-7-2-1 1-3 1-6-2 4-2-5-3h-3l-2-5h-2l-2-5h3z" fill="#2B3F17"/>
<path transform="translate(1089,331)" d="m0 0 13 2 24 7 36 12 23 8 16 8 9 3-1 2-9-3-13-6-23-9-22-6-11-4-25-7-16-5z" fill="#C6B42E"/>
<path transform="translate(254,539)" d="m0 0h6l3 4 1 9-3 7-5 2-5-3-1-2v-13z" fill="#170755"/>
<path transform="translate(915,402)" d="m0 0 2 1v2l3 1 3 3-1 6h2l-1-3h3l1-2 6 2 2 2-1 4 5 2-1 5h-4l2 5-3-2v3l-4-2-7-10-6-8z" fill="#556639"/>
<path transform="translate(1148,240)" d="m0 0 3 1 1 4-2 4h-2v2l13-2 3 1-8 2-2 5-2 1 1 2-5 2 1-6h-2l1 3-5 1v-2h-2l-1 4 4 1v1l-10 1-9-2h-3v-2l6-3 4 4 6 1 2-6h-5l-1-3 4-1h3l3 3 1-3h2v-2l-9 1v-3l7 1v-2l2-1-5-2 1-2 4 1z" fill="#43562E"/>
<path transform="translate(243,115)" d="m0 0h7v35h-7z" fill="#847864"/>
<path transform="translate(162,123)" d="m0 0h8l4 5 1 2v8l-5 6-8 1z" fill="#F5F4D6"/>
<path transform="translate(1179,199)" d="m0 0 15 1 5 1v-2l11 1-1 2 10-2h9v3l2 1-6 1h-2v2l2 1-11-1-1-3-6 1v2l-16-1 1-2 3-1h-3-2v2h-6l-6-4z" fill="#BBB280"/>
<path transform="translate(1057,233)" d="m0 0h2l1 4-1 8 3-1h2l-1 5-5 2v2l-7 4 3 3v2l-7-1-1 2 1-6 1-2h-2l1-3 8-5-4 2-4 1 1-11 1-2 3-1 1-2z" fill="#43562A"/>
<path transform="translate(1258,391)" d="m0 0h3l7 11v2l-3 1-1 8 1 5-5 1-3 5-5 3-2-1 3-2v-18l8-1-1-6-2-3z" fill="#354618"/>
<path transform="translate(1201,236)" d="m0 0h6l3 3-1 2-3 1v4h-3-5l-1 2-8 2-2-1-4 2-2-1h-7l-6 1-2-3 2-5 5-1 1 2h-2v2l3-1 1-2 6 2v2l7-3h4v-2l3-3 2 1-1 2h2v2l2-1-1-4z" fill="#45572D"/>
<path transform="translate(1294,195)" d="m0 0h8l10 3 1 2-14-1-2-1 3 7-2 4-3 3-9-3-4-2 2-5 3-3h2v-2z" fill="#C6C138"/>
<path transform="translate(1061,424)" d="m0 0h11l19 3-5 4h-2l-1 5-2-1-1-1v3h-4l-4-4-1 3h-4l1-4h1l3-2h-2v-3h-2v2l-4 2v3l-3 1-3-3v-3l3-2z" fill="#293F19"/>
<path transform="translate(1234,203)" d="m0 0 4 2 3-2 3 1-5 6-3 3-5 8v4h-2l1 3-7 4-2 4-2-1-1 2-1-3h2v-2h2v-2h2l-1-4 2-3h2v-5l2-4h2l-1-3 3-1-1-2-6-2v3h-5l-1-2h3v-2l6-1z" fill="#B4B74B"/>
<path transform="translate(1145,432)" d="m0 0 15 1 60 1 7 1v1l-40 2-22-1-28-3v-1z" fill="#9EA748"/>
<path transform="translate(909,395)" d="m0 0 4 2 5 4 9 1 4 1 1-3 3 2 7 2-2 3v2l-5-2 2 5 4 1v3h-3l1 3h-2l-1-4h2v-2l-7-1-4-2-1 3h-2v2h-2l1-6-3-1-4-5-5-5z" fill="#3C4F28"/>
<path transform="translate(1056,324)" d="m0 0 16 2 5 1 1-3v4l4 1-5 1 17 6 16 4 26 8-4 1-17-4-12-2-12-4-11-4v-2l-9-3-4-2h-7z" fill="#D3CE52"/>
<path transform="translate(120,226)" d="m0 0h10l5 3v7l-3 4-3 1h-9z" fill="#F6F6D8"/>
<path transform="translate(1225,230)" d="m0 0h1l2 15 1 5 2 12 1 3-2 10 1 7v15l-2 3-1-17-2-7-1-13v-15l-1-8z" fill="#A4AC48"/>
<path transform="translate(1356,418)" d="m0 0 10 1 14 4v5l7 2v1h-19l-10-4 3-1 13 3-6-2v-2l-9-1-5-5z" fill="#45582E"/>
<path transform="translate(1084,423)" d="m0 0 13 1 10 2h10l11 2 4 2v3l-13-1-34-5-6-2v-1z" fill="#BFC14A"/>
<path transform="translate(1203,249)" d="m0 0 1 3 7 1v3h-3v4h-2l-1 3h-5l-3 4-5-1v2l-6-1-3 2h-3l1 3h-4l1-8 1 3 4-1 2-3 13-4 2-3-1-2zm-24 14 3 1z" fill="#546537"/>
<path transform="translate(1151,226)" d="m0 0 2 2-2 2 7 2h8l-1 5 3 4v2l-4 2h-5l-2 2-1-4-3-1 4-3-7-4-1 2h-3l-1-3 3-2-1-3z" fill="#586A3C"/>
<path transform="translate(1070,254)" d="m0 0h3l2 3v2l2-1h7l2 2-4 1v2h-2v-2l-2 1 2 3-2 1 3 2v1h7l1 2h-10l1 3-6-2-1-2 2-1-2-1v-4l-3-2v2l-2 1 4 4-4-1h-3l-2-2 1-5 2-2h5l-1-3-2-1z" fill="#20330D"/>
<path transform="translate(1048,425)" d="m0 0 2 1v3l1-3h2l1 4 2 1v-3l3-1 1 4v2l4 1-1-4 5-1v-2h2v3h2l-1 2v2l-3-1-1 5h-3l1 3h-2l-1 4h-4l1-2-3-2-5 1v-2l4-2v-3h-2l-1-2h-2l-2-5z" fill="#304318"/>
<path transform="translate(1190,253)" d="m0 0 6 1-2 4-5 3-18 2v2l3 2-1 2 2 1-14 1-1-5h2l1-2 4-1 1-3 4-2v2l9-1h3l1-2h-7l-5 1v-2l5-2 10 1z" fill="#627041"/>
<path transform="translate(1442,482)" d="m0 0h5l-1 2h-2l-1 4-6 1h-1l1 3-1 2 6-1-3 3-9 2-3-2v-4-2l-5-2-6-1 1-2h9l11-1z" fill="#2C411B"/>
<path transform="translate(1248,427)" d="m0 0 2 1-12 5-7 5-33 1h-16l-17-1v-1h22l25-1h15v-2h2l-2-5 16-1z" fill="#3C4F26"/>
<path transform="translate(577,226)" d="m0 0 2 2 6 18v3h-14l1-8z" fill="#F0EFD2"/>
<path transform="translate(353,226)" d="m0 0h2l6 20v3h-14l2-10z" fill="#F1F1D3"/>
<path transform="translate(1414,324)" d="m0 0h2l4 6 5 1 2 6-4 1v2l2 1-1 2h2l1 5-4-4v-3l-4-2-1 5h-2v-3h-2l-3-13v-3z" fill="#B1A470"/>
<path transform="translate(1121,241)" d="m0 0h6v2l8-2 2 4-3 1v3l-5 2-12-1h-3l-1 2-2-4 1-4 7-1z" fill="#3D4F29"/>
<path transform="translate(123,322)" d="m0 0h8l5 4v6l-3 4-3 1h-7z" fill="#F3F2D4"/>
<path transform="translate(970,318)" d="m0 0h45l11 1-1 3h-10l-9-1h-36l-21 2 3-3z" fill="#DCD26B"/>
<path transform="translate(1066,235)" d="m0 0h1v10l-6 12-6 7h-8v-3l7 1v-2l-4-2 5-5h3v-2l4-2 2-5-5 3-2-1 5-8z" fill="#1C2E0F"/>
<path transform="translate(154,118)" d="m0 0h1v6l7-1v21h-1l-1-10-2 5v2h2l2 6-6 1-2 2z" fill="#A59775"/>
<path transform="translate(1213,226)" d="m0 0 6 4v2l-4 1-3-1 2 4 3 2v4l-8 2 1-5-4-2-10-2 1-2h2l1-3 6 1v-2z" fill="#637543"/>
<path transform="translate(1300,371)" d="m0 0 3 4 2 6h2v4h2l8 13 4 4v2l4 2 3 4-5-1-10-10-4-5-7-11-2-2v-3l-3-1 2-5z" fill="#C2C34A"/>
<path transform="translate(950,389)" d="m0 0 9 1 16 8v3l2 1-1 3h-3v-2l-9-3-7-3-3-2v-2l-6-1z" fill="#293D14"/>
<path transform="translate(1109,430)" d="m0 0 39 4 9 1v1h-22v2l-3 1-1-3 1-2-7 3-3 3-5-2-4-3-4-2z" fill="#3A4929"/>
<path transform="translate(269,117)" d="m0 0h7v22h-6l-1-3z" fill="#867A64"/>
<path transform="translate(1096,233)" d="m0 0 6 2-1 2-5 2-5-1-6 2 1 2h4l5 1v2l2 2-7 3-10 1v-3l4-1h-2l1-8 6-5z" fill="#70814D"/>
<path transform="translate(92,130)" d="m0 0h5l3 2v11l-3 3-5-1-3-4v-7z" fill="#F2F2D2"/>
<path transform="translate(1287,427)" d="m0 0 7 6 5 4v11l2 1-1 3-3-1-1-1h-3v-3l-2-1h2l-3-4-1-6 1-4-3-3z" fill="#394929"/>
<path transform="translate(997,454)" d="m0 0 2 3 3-3 2 2 4 3 1 3-3 2-2-1-4 2-1 2-4-4h-7v-3l1-2h2v-2z" fill="#3B4B2A"/>
<path transform="translate(1079,239)" d="m0 0 4 2 1 4 3 4-7-1v3h-10l-3-3v3h-3l2-4 2-1 2-4 1 3 4-4z" fill="#3D502A"/>
<path transform="translate(1149,234)" d="m0 0 4 2 5 2-4 4 2 1 2 3v-2h6l4-1v4l-3 1-4 2-13 1v-2h2l1-8h-2v-3l-3-1 3-2z" fill="#7D8653"/>
<path transform="translate(1251,202)" d="m0 0h9l3 2v2h2l1 5h-2l-1 3h-3v-3l-11-3v-2l-4-1 3-2z" fill="#C7C233"/>
<path transform="translate(987,462)" d="m0 0h9l4 4 2 1v8l7 3-4 1-8-3v-2l-7-4-1-6h-2z" fill="#394928"/>
<path transform="translate(1155,198)" d="m0 0 8 1 14 2v1h-13l-1 3h-9l-1-1h-7l-2-1v-3h-11v-1z" fill="#B2A874"/>
<path transform="translate(1297,359)" d="m0 0 2 4 3-1 3 3v2h2v2l4 1v3h2l3 3-1 4-5 1-1-3h-2l-5-9h-3l-2-4z" fill="#768651"/>
<path transform="translate(1208,245)" d="m0 0 2 3-5 2-2-1-1 3h-2l1 4-5 5-11 3-2 3h-4v-3l3-1 3-3 5-1 4-2v-3l-2-3 7-2 2-2h7z" fill="#384A1F"/>
<path transform="translate(1053,274)" d="m0 0 8 5v2h-4v2l3 1 1 3-3 1 1 6-2-1-3-2v-2h-2l1-2 1-1h-5l-3-6 1-3 4 1 1-1z" fill="#3A4A29"/>
<path transform="translate(1135,247)" d="m0 0h3v5l9-1v2l-3 3-3-1v-2l-6 1 2 2-7 1-5-1-5 1-1-1-7-1 1-2h8l3 1 7-4z" fill="#788451"/>
<path transform="translate(1139,344)" d="m0 0h13l11 3 10 5v2h-8l-26-9z" fill="#273421"/>
<path transform="translate(1314,393)" d="m0 0h2v2h2l4 5 5 5v2h2v2l9 2v3l6 2 3 2v2l2 1h-7l-6-4v-2l-4-2-11-9-7-9z" fill="#283B12"/>
<path transform="translate(123,130)" d="m0 0 5 1 1 1v11l-2 2h-5l-2-3v-10z" fill="#F5F5D7"/>
<path transform="translate(984,402)" d="m0 0 9 2 9 4-4 2v2h2v4h-2l-1 3-2-1v-4l-2-2-1-5-5 3-5-5h2z" fill="#314319"/>
<path transform="translate(1047,420)" d="m0 0 10 1 10 2-3 1-1 2-1 1-4 1h-2v3l-3-1v-4h-2l1 3h-2l-1-3-5-2-3-2z" fill="#35461C"/>
<path transform="translate(1419,343)" d="m0 0 1 4h-2l1 4 2 6 3-1 1 2-1 3h-2l-1 3-2-6-2 2-4-4-5 1-1-4 3-2-3-1 1-2 7 1 2-4h2z" fill="#B3A771"/>
<path transform="translate(1057,233)" d="m0 0h2l1 4-1 5-4 1-1 4-5 3-2-1 1-10 1-2 3-1 1-2z" fill="#35471C"/>
<path transform="translate(928,378)" d="m0 0h3l2 3v-2l5 1 6 3-2 4-4-1 2 4h3l-1 2-5-1-5-2-3-2v-4-2l-2-2z" fill="#293C0F"/>
<path transform="translate(1181,224)" d="m0 0h2l2 2 3-2v2h8l-1 4-4 1-1 3-3 3v2h-2l-1 3h-3v-2l2-1 1-5 2-3-5-1-2-3z" fill="#647444"/>
<path transform="translate(1101,435)" d="m0 0 3 1 6 4 1 5h-4l-1 3h6l-1 2-5 1-3-1v-2l-3 1-2-1 1-3 3 1-2-7z" fill="#2C4119"/>
<path transform="translate(1445,388)" d="m0 0h1v7l-5 12-5 6h-3v2l-5 4h-2l2-4 4-5 5-5z" fill="#687A48"/>
<path transform="translate(1375,231)" d="m0 0 11 7 18 14 13 11 8 7h-3l-8-7h-2v-2l-4-2-11-10-11-7v-2h-2v-2l-5-2-4-3z" fill="#B6B553"/>
<path transform="translate(1069,314)" d="m0 0 5 1 5 5 7 4 4 3 4 2h-4v2l-12-3-3-7z" fill="#4D5D35"/>
<path transform="translate(1093,324)" d="m0 0 4 2 3 3 7 1 2 3h4v3l6 1-4 1-16-5-9-2v-4z" fill="#405225"/>
<path transform="translate(1207,240)" d="m0 0 3 1-1 3 6-3h4l-1 4-5-1v3l3 1-4 3-3-2v2l-5 1 1-3 1-1h-5l-2 2-3-1 2-4h5 3l1-2-2-1z" fill="#7D8A54"/>
<path transform="translate(1058,262)" d="m0 0h3l1 3-6 4-2 3-1 8-5-2-3-3v-7l5 1v-2l6-1z" fill="#344519"/>
<path transform="translate(1082,250)" d="m0 0h8l2 1 5-1 1 2-2 2 3 1v2h-4v2l-5 1v-3l-10 1 3-5h2v-2z" fill="#43572E"/>
<path transform="translate(193,140)" d="m0 0 3 4h13l-1 5-4 2h-8l-4-2-1-8z" fill="#9C8E70"/>
<path transform="translate(1142,224)" d="m0 0h2l2 2 3-2 6 1h3l4-1 2 1 2 6-2-1-1 2-7 1-6-2 2-4h-3l-5 1z" fill="#8E935D"/>
<path transform="translate(1178,234)" d="m0 0h5l1 5-3 1v2h11v2l-10 3v-2l-6-2-1 3h-3l1-4 3-3v-2h2z" fill="#848E58"/>
<path transform="translate(1219,257)" d="m0 0 3 1-1 1h5v8h-2l-1-2-1 4-10 2v-2h2v-3h3l1-2v4l2-2-1-3-6-1v2l-3-1-1-4 7 1 3 1-1-3z" fill="#43552A"/>
<path transform="translate(1048,442)" d="m0 0 6 2 1 3 6 3v6h-6l-1-5-4-1-3 1v-2h2v-2h-2z" fill="#314318"/>
<path transform="translate(909,395)" d="m0 0 4 2 5 4 7 1 1 5 7 3-4 1-2-1-1 3h-2v2h-2l1-6-3-1-4-5-5-5z" fill="#3C4E26"/>
<path transform="translate(918,363)" d="m0 0 4 2 7 8 16 8 14 8v1l-7-1-24-14-8-8z" fill="#A5AD47"/>
<path transform="translate(407,340)" d="m0 0h4l1 2v13l-2 2h-3l-1-2v-14z" fill="#E5E2C2"/>
<path transform="translate(1227,229)" d="m0 0 3 1 2 11v7l-1 4-1 7h-1l-1-13-1-1-1-15z" fill="#C6C130"/>
<path transform="translate(1137,207)" d="m0 0 2 2v1h2l3 3v-2l6-1 4 1v4 2l-12-2h-3-9l-4 1 2-1v-2h6l2-4z" fill="#42562E"/>
<path transform="translate(1186,266)" d="m0 0 6 2v-2h6v2l-2 2 2 1v2l-8 1-2-2-2 1h-7l1-4z" fill="#314414"/>
<path transform="translate(1203,249)" d="m0 0 1 3 7 1v3h-3v4h-2l-1 3h-6l-1-4 2-3-1-2z" fill="#627042"/>
<path transform="translate(1091,237)" d="m0 0 5 1 1 1h8l4-1-2 4-10 2-7-2-1 2-5-2 2-4z" fill="#3D4E2B"/>
<path transform="translate(372,320)" d="m0 0h4l1 2v12l-2 3-3-1-1-2v-13z" fill="#EFEFD0"/>
<path transform="translate(1164,246)" d="m0 0 3 1-1 8-2 3-8 1-5-1 7-7 6-1z" fill="#36481A"/>
<path transform="translate(1179,199)" d="m0 0 15 1 5 1v-2h2v2l2 1-7 1v3h-6l1-2 3-1h-3-2v2h-6l-6-4z" fill="#BDB27E"/>
<path transform="translate(55,118)" d="m0 0h25l-1 4h-8l-3-1-2 1h-11z" fill="#796D5E"/>
<path transform="translate(1047,240)" d="m0 0 2 3-1 6 8-4-2 4-7 4-1 2h2v5l-7-2 2-9z" fill="#57633A"/>
<path transform="translate(935,407)" d="m0 0 8 2 1 6h2v3h-2l-1 4-1-2-6 1v-2l-3-1 2-1-1-4h4v2h-2l1 4 1-3 2-2-5-5z" fill="#475B31"/>
<path transform="translate(1405,498)" d="m0 0h7v2l2 1-4 1h-27l-1-2 6-1z" fill="#111A1C"/>
<path transform="translate(1069,309)" d="m0 0 4 2 3 3 5 1v2l3 1 4 5 3 1v2l2 1h-5l-6-5-5-3-4-4-4-2z" fill="#233711"/>
<path transform="translate(1125,255)" d="m0 0 6 1h10l-3 7h-6l-5-4-5 2-2-2 2-3z" fill="#36481C"/>
<path transform="translate(1195,407)" d="m0 0h10l-1 6 1 5-6-2-5-3v-5z" fill="#DBD15D"/>
<path transform="translate(1088,428)" d="m0 0h6l1 3h-2v-2l-3 2 3 2-1 3-2-2-2-1v3l4 1 1 4-4-1v-2h-5l-3 2-2-1 1-5 2 1 1 1 1-5z" fill="#293F19"/>
<path transform="translate(1075,425)" d="m0 0 16 2-5 4h-2l-1 5-2-1-1-1-1 3-1-3-2-1 1-3z" fill="#35471A"/>
<path transform="translate(942,407)" d="m0 0h4l5 6 3 1 1 7-3-1-3-5-2-1 1 4h2v5l-5-2 1-6h-2l-2-6z" fill="#344521"/>
<path transform="translate(1e3 365)" d="m0 0h9l-1 2-13 5-7 5-5-1-3-3 11-1 7-6z" fill="#C6C231"/>
<path transform="translate(944,384)" d="m0 0 8 4-3 3 6 1-2 2-8-2v2l-5-1 1-2-4-4 1-2 4 1z" fill="#36481B"/>
<path transform="translate(1061,255)" d="m0 0h2l-1 4h-2l1 3-3 2-2 3-4 1-2-1v2l-4 1-2 4-3-5 2-1-1-5 6 3 2-2 6-2z" fill="#40522C"/>
<path transform="translate(908,386)" d="m0 0 4 1-2 1-1 5 9 1 3 3h3l4 4-11 1-6-6-3-1z" fill="#40532B"/>
<path transform="translate(1214,230)" d="m0 0 2 2h3v2h-2l1 2 3-1 3-5h1v10l-1-2h-2l1 3-4 2v-2h-2l-1-3-4-4v-2h2z" fill="#465930"/>
<path transform="translate(1355,474)" d="m0 0 2 1v3l3 1 4 3-8 3-4-1-7-1 5-5 3-1z" fill="#354617"/>
<path transform="translate(975,398)" d="m0 0 9 3-1 5v3l-4 1-4-2 1-4 1-2-3-1z" fill="#3C4D27"/>
<path transform="translate(1404,343)" d="m0 0 1 2h3l-1 5 4 1-1 2-6 1-5-5h-4v-3l6-1h2z" fill="#B7AB77"/>
<path transform="translate(1146,218)" d="m0 0 1 2 4-1 4 4h8l2 1v-2h5l1 3-4 2-2 2-1-4h-6l-1 3-4-2v-2h-5l1-3-4-1z" fill="#44572F"/>
<path transform="translate(1172,218)" d="m0 0h8l8 3-2 5h-3v-2l-12-1z" fill="#4A5E34"/>
<path transform="translate(1170,261)" d="m0 0 2 1-1 3 3 2-1 2 2 1-14 1-1-5h2l1-2 5-2z" fill="#59673D"/>
<path transform="translate(1431,415)" d="m0 0 1 3-3 5-9 3-7 1 4-4 9-6v2z" fill="#72844F"/>
<path transform="translate(942,395)" d="m0 0 5 2-1 4 5 1 2 1 1-2 1 5h-2l-1 3-4-6h-2l-1 3-6-8z" fill="#283C16"/>
<path transform="translate(1158,232)" d="m0 0h8l-1 5 3 4v2l-4 2h-5l-2 2-1-4 7-4-1-4z" fill="#3D5029"/>
<path transform="translate(1234,203)" d="m0 0 3 1-1 4-8 10-1-2 1-2h2l-1-3 3-1-1-2-6-2v3h-5l-1-2h3v-2l6-1z" fill="#B4AA76"/>
<path transform="translate(1442,482)" d="m0 0h5l-1 2h-2l-1 4-6 1h-1v2l-6-1-1-5 8-1z" fill="#354617"/>
<path transform="translate(1173,325)" d="m0 0 1 3 3 1v2l-4-1v5l-6 1-1-3-4-1v-2l7-2v-2z" fill="#1F320C"/>
<path transform="translate(1066,281)" d="m0 0h2v5h-2v2l5 1v2l-4-1v2l2 2-4 1v-2l-4-1-2 1-1-5 6-3 3-1z" fill="#344621"/>
<path transform="translate(1390,485)" d="m0 0 2 1v2h7l-3-3h8v2l8 1v2l-3 1-5-1-1 1h-10v-2l-3-1z" fill="#283D0D"/>
<path transform="translate(1232,452)" d="m0 0h3v2l-15 10-7 2 2-4 9-6z" fill="#1E2822"/>
<path transform="translate(909,371)" d="m0 0h3v5l4-1 1 3 7-1v2h-2l2 5 3 4-4-2-3-4-7-1-5-8z" fill="#304213"/>
<path transform="translate(1056,324)" d="m0 0 16 2 5 1 1-3v4l4 1-5 1 1 2-5-1-6-3h-7z" fill="#C3C152"/>
<path transform="translate(1208,272)" d="m0 0 2 1-4 1 1 5-6 1 1 3-3 1-2 1v-5h-9v-2l-2-1 4-1v2l4-1 9 1 1-5z" fill="#3F4F21"/>
<path transform="translate(1047,447)" d="m0 0h2v2h2v2l4-1v2h-2v3l-5 1-4-2-4 1v-3l4-4z" fill="#334517"/>
<path transform="translate(1100,244)" d="m0 0 2 2-2 3 3 1-2 4v1h-5v-3h-4-5l3-1v-2l4-2h3v-2z" fill="#32441E"/>
<path transform="translate(1327,457)" d="m0 0 10 4 17 10 3 2-6-1-5-2-10-1 1-3h3l-11-6-2-1z" fill="#42562E"/>
<path transform="translate(1122,432)" d="m0 0 26 2 9 1v1h-22v2l-3 1-1-3 1-2-7 1v-2z" fill="#40532D"/>
<path transform="translate(1209,267)" d="m0 0 1 2h2v2h6l-1 3-6 1h-2l-1 2h-2v-3l1-1-4-1v-3z" fill="#304314"/>
<path transform="translate(1127,263)" d="m0 0 7 1v4 2l4 1-5 1-4-1-7-3-1-2 5-2z" fill="#344617"/>
<path transform="translate(1148,240)" d="m0 0 3 1 1 4-2 4h-2l-1 3h-9v-3l7 1v-2l2-1-5-2 1-2 4 1z" fill="#44582E"/>
<path transform="translate(1326,388)" d="m0 0h4l2 3 6 3v2l-3 3 2 1v3l-4-1v-5l-4-1v-3l-3-3z" fill="#748451"/>
<path transform="translate(1115,344)" d="m0 0 21 5 16 6 1 2-8-2-8-3-8-2-10-3-4-1z" fill="#DBD15D"/>
<path transform="translate(1180,261)" d="m0 0h3v2l-4 1-1 9h-2v-2l-3-1-1-4-4-1h2l1-3z" fill="#2E4016"/>
<path transform="translate(987,472)" d="m0 0 10 1 2 3 13 4 7 3v2l-11-3-18-7z" fill="#283226"/>
<path transform="translate(927,388)" d="m0 0h2v2h2l-1 4v3l-7-2v-2h-4v-2l-2-1 6-1 4 1z" fill="#2E4015"/>
<path transform="translate(1339,235)" d="m0 0 5 1 7 3 2 1v2l5 2v2l-5-1-14-8z" fill="#ECDF8A"/>
<path transform="translate(1175,357)" d="m0 0 10 3 16 8 9 3-1 2-9-3-13-6-12-5z" fill="#C0B231"/>
<path transform="translate(1074,251)" d="m0 0h11v2l-5 5-5 1v-2l-2-1v-3z" fill="#263A14"/>
<path transform="translate(1114,219)" d="m0 0 1 2 4-2 3 1 2 3 3 1-1 3-9-1v-2h-3l-4 1 2-4h2z" fill="#43572F"/>
<path transform="translate(1298,459)" d="m0 0 8 2v8l-4-1-2 2-3-2-2-5 4 1 2 1 1-4h-2l-1 2z" fill="#3A4828"/>
<path transform="translate(1042,257)" d="m0 0 4 2 1 4 3 2-2 2-5-3-1 8-2-2v-10z" fill="#44572F"/>
<path transform="translate(1142,231)" d="m0 0 5 1-1 6h3l-2 7-1-2-6 1 1-5h2z" fill="#A29E68"/>
<path transform="translate(1226,414)" d="m0 0 2 1v3l7 3v3l-4 1h-7l-2-2 3-1v-7z" fill="#CECD4B"/>
<path transform="translate(225,138)" d="m0 0 5 1-1 5-2 2h-5l-1-1v-6z" fill="#EDEDCC"/>
<path transform="translate(1357,473)" d="m0 0 9 2 4 3h-4l-1 3h-5l-4-5z" fill="#3C4C2B"/>
<path transform="translate(1332,410)" d="m0 0 6 1v3l6 2 3 2v2l2 1h-7l-6-4-1-4z" fill="#36471D"/>
<path transform="translate(950,389)" d="m0 0 9 1 3 2-1 5-5-1-2-1v-2l-6-1z" fill="#23360E"/>
<path transform="translate(1e3 318)" d="m0 0h13l11 1-1 3h-10l-9-1v-2z" fill="#DDD36F"/>
<path transform="translate(1008,412)" d="m0 0 2 2 7 1 2 4v2l-5 1-3-3-5-1 2-1-1-4z" fill="#3A4A2A"/>
<path transform="translate(915,379)" d="m0 0 1 3 4-1 5 6 2 1v2l-5-1-4-3-6-1 1-4h2z" fill="#40542A"/>
<path transform="translate(116,144)" d="m0 0h3l1 2v15h-5v-8l4-1z" fill="#9E8F70"/>
<path transform="translate(1127,258)" d="m0 0 5 4 6 1 2-4v3l4 1v1l-10 1-9-2h-3v-2z" fill="#6F784D"/>
<path transform="translate(1201,236)" d="m0 0h6l3 3-1 2-3 1v4h-3-2v-5l-1-2z" fill="#3F5329"/>
<path transform="translate(1291,455)" d="m0 0 2 1 2 2 3 1 2 2h2l-1 4h-4l-1 2-5-5v-2l-1-3z" fill="#304219"/>
<path transform="translate(1221,426)" d="m0 0 17 1v2l-10 1 1 4-2 1h-7v-1l5-1z" fill="#C7B62E"/>
<path transform="translate(1277,416)" d="m0 0 5 4 5 6-1 2-3-1h-5l-2-4 2-4z" fill="#2F441D"/>
<path transform="translate(958,319)" d="m0 0h24v1l-23 2-10 1 3-3z" fill="#D6CE61"/>
<path transform="translate(1066,235)" d="m0 0h1v10l-3 1v-2l-5 3-2-1 5-8z" fill="#2E4117"/>
<path transform="translate(1066,289)" d="m0 0 7 1 3 3 2 6-8-1-1-5-3-1z" fill="#20330D"/>
<path transform="translate(1377,281)" d="m0 0 5 1 17 8 9 8h-3l-5-4-23-12z" fill="#DCD3A1"/>
<path transform="translate(1418,418)" d="m0 0 3 1-8 4-5 2-3-2v2l-4-1 1-2 9-3z" fill="#DBD15D"/>
<path transform="translate(953,398)" d="m0 0 7 2 3 3-1 1 4 2-1 3-6-3v4l-3-1v-6l4 1-2-2-5-2z" fill="#2F4217"/>
<path transform="translate(1297,295)" d="m0 0 1 4-2 7-7-3v-5l4 1z" fill="#CDC55F"/>
<path transform="translate(1219,210)" d="m0 0 8 4 1 4h-2v5l-3-3v-3l-3 1v-3h-2z" fill="#5E7040"/>
<path transform="translate(1443,486)" d="m0 0 2 1v6l-6 1h-3l-1-7 8 1z" fill="#3D4D2B"/>
<path transform="translate(1348,406)" d="m0 0h8l2 2-2 1 3 2v2l-9-1-2-1-1-4z" fill="#738350"/>
<path transform="translate(1088,316)" d="m0 0 6 1 1 2 3 2-1 2h2v2l2 1-4 2-5-6-3-2z" fill="#21350F"/>
<path transform="translate(1057,300)" d="m0 0 5 2 3 2v2h2l3 5-1 3-6-5-6-7z" fill="#45542F"/>
<path transform="translate(915,402)" d="m0 0 2 1v2l3 1 3 3-1 6-5-2-2-6z" fill="#627043"/>
<path transform="translate(1099,255)" d="m0 0 5 3 7 1 1 4-12-1-1-3h-4v-2h4z" fill="#495A2D"/>
<path transform="translate(1132,243)" d="m0 0 5 1-1 2h-2v3l-5 2-7-1 5-4 4-1z" fill="#30421A"/>
<path transform="translate(1048,439)" d="m0 0 3 1v2l6-2v2l4 1-2 1-1 4-4-1-1-3-5-1-2 1-1-4z" fill="#394826"/>
<path transform="translate(1356,418)" d="m0 0 10 1 2 1v3l-5 1-9-4z" fill="#767957"/>
<path transform="translate(954,386)" d="m0 0 5 1 12 5v4l-6-2-6-3v-2l-5-2z" fill="#C0C24A"/>
<path transform="translate(912,385)" d="m0 0h6l4 3v2l-3 1v2l2 1-1 4-3-4v-2h-2l-2-5h3z" fill="#2C3F10"/>
<path transform="translate(1356,353)" d="m0 0 1 4v6l-5 3-2-5-1-2h2v-3l3 1z" fill="#B9AD79"/>
<path transform="translate(1036,341)" d="m0 0 13 1 13 3 1 3-11-2-16-4z" fill="#D7CF58"/>
<path transform="translate(1177,251)" d="m0 0 9 2 1-2-1 5-8-1-2 1h-9v-3l9 1z" fill="#394C20"/>
<path transform="translate(1209,249)" d="m0 0 8 1 1 6-7 1-1-3-4-1 1-2h2z" fill="#304315"/>
<path transform="translate(1096,233)" d="m0 0 6 2-1 2-5 2-4-1-6-1 3-3z" fill="#9E9C66"/>
<path transform="translate(1057,230)" d="m0 0h2l3 6-1 6-3 2 1-11-4 2-2-1-1 3-2-1 4-5z" fill="#7F815B"/>
<path transform="translate(949,396)" d="m0 0 4 1v3l7 2v2l-3 1 1 2h-2v2h-2l-1 2-1-2 1-3h2l-2-3-5-2 3-2z" fill="#3A4A28"/>
<path transform="translate(1045,270)" d="m0 0h4l3 2 1 6-1 2-4-2-3-3z" fill="#293F19"/>
<path transform="translate(1047,252)" d="m0 0h6l1 3-3 3 3 2v2l-7-1-1 2 1-6 1-2h-2z" fill="#3B4D25"/>
<path transform="translate(1161,249)" d="m0 0 3 1-8 2-2 5-2 1 1 2-5 2 1-6h-2l1-2 6-1v-2z" fill="#5F7041"/>
<path transform="translate(1151,226)" d="m0 0 2 2-2 2 5 2-4 4h-2l-4 1-1-3 3-2-1-3z" fill="#465931"/>
<path transform="translate(987,462)" d="m0 0h9l2 6v3l-9-5v-2h-2z" fill="#304318"/>
<path transform="translate(1208,245)" d="m0 0 2 3-5 2-2-1-1 3h-4v2l-5-1-1-2 7-2 2-2h7z" fill="#33461C"/>
<path transform="translate(1354,422)" d="m0 0 5 1 9 2v2h5l2 3-14-3-7-3z" fill="#2D3F14"/>
<path transform="translate(1e3 409)" d="m0 0 8 1 4 1v2h-3v2l-4-2-2 2h-2v-3h-2z" fill="#31431A"/>
<path transform="translate(984,402)" d="m0 0 6 1 2 2-2 4-4 1-4-5h2z" fill="#334416"/>
<path transform="translate(1113,255)" d="m0 0h6l3 5-1 2-9-3z" fill="#45572B"/>
<path transform="translate(1118,249)" d="m0 0 11 1-2 4-4 1-7-2z" fill="#43552D"/>
<path transform="translate(1105,244)" d="m0 0 3 1v2h-2v2l2 1-3 1 3 4-3 1-5-2 3-6h2v-2l-2-1z" fill="#627245"/>
<path transform="translate(1149,234)" d="m0 0 4 2 5 2-5 5h-2v-2h-2v-3l-3-1 3-2z" fill="#808A55"/>
<path transform="translate(1424,271)" d="m0 0 4 2 7 7 8 7 1 2-4-2-3-3-4-2-1-2-5-3z" fill="#B8B94F"/>
<path transform="translate(1404,253)" d="m0 0 5 3 14 12 2 3-4-2-8-6-1-2-4-2-4-4z" fill="#B1B255"/>
<path transform="translate(1247,418)" d="m0 0h1v6l-5 5h-5v-3l8-6z" fill="#ADB446"/>
<path transform="translate(971,397)" d="m0 0 4 1v3l2 1-1 3h-3v-2l-8-2 3-1v-2z" fill="#324418"/>
<path transform="translate(1055,245)" d="m0 0v3l-8 5-1 2h2v5h-2l-2-9 4-5 1 3z" fill="#7E805A"/>
<path transform="translate(1166,233)" d="m0 0h2l3 3 1 3h2l-1 3-5 1-4-7z" fill="#868E5B"/>
<path transform="translate(197,129)" d="m0 0 4 1 3 2v3h-10l1-4z" fill="#F2F2D3"/>
<path transform="translate(1394,478)" d="m0 0h22l3 1h6l-4 1 1 5-8-5-20-1z" fill="#B3B845"/>
<path transform="translate(1077,437)" d="m0 0h2v2l3 1v2l6-1 1 4h-2v2l-2-1 1-2-8-1v-2h-2z" fill="#36471D"/>
<path transform="translate(1085,316)" d="m0 0 4 1 1 3 4 4-3 2v-2l-4-1-3-3z" fill="#30431F"/>
<path transform="translate(1067,248)" d="m0 0 3 1v2l4 1 1 2-4 2h-4l-3-4 3-1z" fill="#2A3E17"/>
<path transform="translate(1079,241)" d="m0 0 1 4-2 3h-2v2l2 1h-7l2-5 3-3h3z" fill="#5C6D40"/>
<path transform="translate(1006,418)" d="m0 0 7 1 2 2 8 1 1 3-5 1-1-2h-7l-1-2h2v-2l-6-1z" fill="#2D4117"/>
<path transform="translate(1341,397)" d="m0 0 3 1v2l4-2 3 3-1 4v-3h-4v3h-2v-2h-2v-2h-2z" fill="#71834E"/>
<path transform="translate(1093,324)" d="m0 0 4 2 3 3 5 1v3l-11-3v-2l-4-1z" fill="#3A4C28"/>
<path transform="translate(1291,322)" d="m0 0 2 4v15l-1 5h-1l-1-21z" fill="#B0A470"/>
<path transform="translate(1069,309)" d="m0 0 4 2 3 3h3l2 6h-3l-5-5-4-2z" fill="#293E19"/>
<path transform="translate(1179,263)" d="m0 0 3 1zm6 0h5l-1 2h-3l-1 3-5 1 1 3h-4l1-8 1 3 4-1z" fill="#6A7548"/>
<path transform="translate(1265,402)" d="m0 0 1 2h2l3 7-5 1-2-1z" fill="#25390A"/>
<path transform="translate(1300,371)" d="m0 0 3 4 2 6h2v4h2l3 5-1 2-8-10-3-6z" fill="#ABB246"/>
<path transform="translate(1111,274)" d="m0 0h3v3l6-2 2 1-1 3-6 1-1 2h-2v-4l-3-1v-2z" fill="#384A1D"/>
<path transform="translate(1078,267)" d="m0 0 3 1v1h7l1 2h-10l1 3-6-2-1-2h4z" fill="#1F320C"/>
<path transform="translate(1073,259)" d="m0 0 4 1 3 5-2 1-2 4-3-2v-4l-1-4z" fill="#233812"/>
<path transform="translate(1079,234)" d="m0 0 2 2 2-2 4 1-4 6-4-1-3 1 1-5z" fill="#455830"/>
<path transform="translate(1323,458)" d="m0 0 6 1 11 6 3 3h-6v-2h-2v-2l-5-2-7-3z" fill="#3A492A"/>
<path transform="translate(1101,442)" d="m0 0 5 4v2h6l-1 2-5 1-3-1v-2l-3 1-2-1 1-3 3 1z" fill="#344517"/>
<path transform="translate(1068,427)" d="m0 0h2v3h2l-1 2v2l-3-1-1 3h-5l1-6 5-1z" fill="#334517"/>
<path transform="translate(1413,422)" d="m0 0h3l-1 3-13 4h-6v-1l9-2v-3l4 1z" fill="#B4B947"/>
<path transform="translate(1191,330)" d="m0 0 1 2 5-1-1 4-3 2v3h-2l-1-2-3-2h2l1-5z" fill="#283C0A"/>
<path transform="translate(1083,311)" d="m0 0 12 5 1 2 3 1-1 2-4-2v-2l-3 1v-2l-8 2-2-1 1-2 1-1z" fill="#394B27"/>
<path transform="translate(1129,251)" d="m0 0h2l-2 4-7 2-10-2 1-2h8l3 1z" fill="#929560"/>
<path transform="translate(1137,207)" d="m0 0 2 2v1h2l-2 5h-9l-4 1 2-1v-2h6l2-4z" fill="#465A31"/>
<path transform="translate(1170,242)" d="m0 0 4 1-2 1-1 5 3 1-6 1-2-3 2-5z" fill="#44572E"/>
<path transform="translate(1118,237)" d="m0 0 7 1-5 5-4 1-3-1 1-3 3-1z" fill="#929660"/>
<path transform="translate(270,144)" d="m0 0h6v6h-6l-1-5z" fill="#786F5E"/>
<path transform="translate(1301,467)" d="m0 0 8 2 2 6-7-2-3-2z" fill="#40512C"/>
<path transform="translate(1213,226)" d="m0 0 6 4v2l-4 1-3-1v-3l-3 3h-2l-1-3z" fill="#808C56"/>
<path transform="translate(1097,438)" d="m0 0 4 4 1 4-10-2v-2l4-1z" fill="#283E18"/>
<path transform="translate(922,379)" d="m0 0h2v3h2v-2l4 1 1 4-6 1-3-3z" fill="#38491F"/>
<path transform="translate(1300,367)" d="m0 0h3l1 5 3 4-1 5-3-4-3-6z" fill="#747158"/>
<path transform="translate(905,360)" d="m0 0 2 2h-2l1 8h3l-1 3-1 5-2 4-1-7v-14z" fill="#818959"/>
<path transform="translate(1115,331)" d="m0 0h2l4 4 2 1v2l-7-1-3-1v-3l-2-1z" fill="#121D19"/>
<path transform="translate(1194,324)" d="m0 0h5l3 2-1 3h-6l-5-4z" fill="#2A3D0B"/>
<path transform="translate(1090,272)" d="m0 0 2 4-3 3-6-3v-2l-2-1z" fill="#1F320B"/>
<path transform="translate(1042,263)" d="m0 0 7 3 2 1-1 2-4 1-2 4-3-5 2-1z" fill="#3A492A"/>
<path transform="translate(1150,260)" d="m0 0h18v2l-10 1-7-1-2 3-3-1 2-3z" fill="#3C4F23"/>
<path transform="translate(1093,242)" d="m0 0 5 1 6-1 1 4v2l-5 1 1-4-7 1 1-3z" fill="#42552E"/>
<path transform="translate(926,386)" d="m0 0 4 1 7 3 3 2v2l-5-1-6-3v-2l-3-1z" fill="#42552C"/>
<path transform="translate(907,372)" d="m0 0 4 5 2 4-3 1-4-3z" fill="#41542B"/>
<path transform="translate(999,367)" d="m0 0m-1 1m-1 1m-1 1m-1 1m-1 1m-11 1h11l-1 3-6 1z" fill="#C9C439"/>
<path transform="translate(918,363)" d="m0 0 4 2 7 8 7 4-1 2-9-6-8-9z" fill="#9CA649"/>
<path transform="translate(1058,284)" d="m0 0h2l1 3-3 1 1 6-2-1-3-2v-2h-2l1-2h4z" fill="#394929"/>
<path transform="translate(1156,265)" d="m0 0 4 1-4 2v5h-6v-4h2v-2z" fill="#526233"/>
<path transform="translate(1142,224)" d="m0 0h2l2 2 3-2 6 1-1 3-4-2-3 2-4-1zm10 4 2 1v2l2 1-6-1z" fill="#91945F"/>
<path transform="translate(1287,427)" d="m0 0 7 6 4 4h-9l1-5-3-3z" fill="#40532C"/>
<path transform="translate(1136,349)" d="m0 0 8 1 13 5v1l-7-1-14-5z" fill="#CECD4B"/>
<path transform="translate(1171,258)" d="m0 0 1 2 9-1h5l-1 2-5 1h-12v-2z" fill="#6A7A48"/>
<path transform="translate(1055,242)" d="m0 0h3l1 3-3 7-6 1-1-2 6-4 1-2h-2z" fill="#46562D"/>
<path transform="translate(1166,243)" d="m0 0h2v4l-3 1-4 2h-5l1-2 4-1-3-3h6z" fill="#939661"/>
<path transform="translate(1160,241)" d="m0 0h8v2l-4 2h-5l-2 2-1-4z" fill="#42552C"/>
<path transform="translate(1202,199)" d="m0 0 8 1-1 2-6 2-2 2-5-1v-2l5-1z" fill="#D0C898"/>
<path transform="translate(1053,458)" d="m0 0 4 1v3l-1 1 2 2-3 2-4-1 2-4-1-2z" fill="#2D411A"/>
<path transform="translate(1251,364)" d="m0 0 3 4v3l3 1v5l-4-2-2-4z" fill="#C8B62E"/>
<path transform="translate(1057,280)" d="m0 0h6l2 5-4 2-1-3-4-1z" fill="#293E18"/>
<path transform="translate(1053,274)" d="m0 0 8 5v2l-5 1h-3l-2-2h2l-1-3z" fill="#35461D"/>
<path transform="translate(1090,242)" d="m0 0 5 1v2l2 2-8 3-1-2h2l-1-3z" fill="#848E58"/>
<path transform="translate(1199,199)" d="m0 0h2v2l2 1-7 1v3h-6l1-2 3-1-2-3 7 1z" fill="#B5AA76"/>
<path transform="translate(1345,353)" d="m0 0 7 2-1 4-4 1-4-5z" fill="#C1B383"/>
<path transform="translate(1184,242)" d="m0 0h8v2l-10 3v-2l-4-2z" fill="#9E9C66"/>
<path transform="translate(1075,214)" d="m0 0 3 1-1 3h-2l-1 4-4-2 1-4z" fill="#647545"/>
<path transform="translate(1425,424)" d="m0 0h6v3l2 1-2 1 1 2-3 1v-2l-3 1-2-2 2-1z" fill="#C8B62E"/>
<path transform="translate(1240,351)" d="m0 0 3 1 3 9-1 4-3-6v-3l-3-1z" fill="#37491C"/>
<path transform="translate(1427,348)" d="m0 0 3 3 1 5h2v8h-2l-3-11-2-4z" fill="#B3A771"/>
<path transform="translate(1077,261)" d="m0 0h3l1 4 8 1 1 2h-8l-5-2 2-2z" fill="#41542B"/>
<path transform="translate(1151,250)" d="m0 0h5l-2 1v2l-3 2-6 1v-3z" fill="#394C20"/>
<path transform="translate(1138,244)" d="m0 0 1 2 5 2v-2l4 1-3 1v2l-7-1v-2l-4 1v-2z" fill="#9B9B66"/>
<path transform="translate(1113,246)" d="m0 0 4 1 5-1-1 4h-7l-1 2-2-4z" fill="#30421B"/>
<path transform="translate(1470,472)" d="m0 0v3l-6 5v-3l-3-2 4-2z" fill="#4F5E36"/>
<path transform="translate(1031,434)" d="m0 0h3v2h-2l2 4-5 1-3-3z" fill="#314417"/>
<path transform="translate(931,391)" d="m0 0 5 2-1 5-2 1-2-1v-3l-2-1z" fill="#243812"/>
<path transform="translate(1176,243)" d="m0 0 4 1-2 4-1 1h-6v-3l4-1z" fill="#3D5026"/>
<path transform="translate(1069,242)" d="m0 0 2 1v2l2 1-2 5-4-3v3h-3l2-4 2-1z" fill="#394A25"/>
<path transform="translate(1442,482)" d="m0 0h5l-1 2h-2l-1 4h-4l-1-5z" fill="#2A3D15"/>
<path transform="translate(1049,431)" d="m0 0 1 2 3-1v3h2l1 4-5 1-2-5v-1z" fill="#394923"/>
<path transform="translate(1145,432)" d="m0 0 10 1v2l-18-1v-1z" fill="#95A04A"/>
<path transform="translate(909,395)" d="m0 0 4 2 5 4h4l-1 4h-3l-5-5z" fill="#304317"/>
<path transform="translate(948,393)" d="m0 0h5l7 5-1 2-8-3z" fill="#3E4F2A"/>
<path transform="translate(921,393)" d="m0 0h2l1 2 7 1v3l-4 1-5-3-1-2-2-1z" fill="#2C4016"/>
<path transform="translate(908,386)" d="m0 0 4 1-2 1-1 5 4 2 5 5h-3l-4-4-3-1z" fill="#A4A16C"/>
<path transform="translate(917,390)" d="m0 0h5l4 3 5 2-2 2-6-2v-2h-4v-2z" fill="#44572F"/>
<path transform="translate(1105,330)" d="m0 0h2l2 3h4v3l6 1-4 1-7-2v-2l-3-1z" fill="#3C4F25"/>
<path transform="translate(1077,322)" d="m0 0 7 3v3l3-1v2l-9-1z" fill="#2E411C"/>
<path transform="translate(1072,297)" d="m0 0 4 1 2 6-5-1-2-5z" fill="#31451E"/>
<path transform="translate(1178,256)" d="m0 0 7 1-1 3h-12v-2z" fill="#374A22"/>
<path transform="translate(1106,238)" d="m0 0h3l-2 4-7 1-4-2-1-2h10z" fill="#263A15"/>
<path transform="translate(1224,223)" d="m0 0 1 4-1 4-2 5-3-1-1 2-1-3h2v-2h2v-2h2l-1-4z" fill="#768751"/>
<path transform="translate(1202,213)" d="m0 0 6 2-1 3 1 2h-5l-2-3v-3z" fill="#74854F"/>
<path transform="translate(160,131)" d="m0 0h1l1 15-2-1v-4h-2l-1-4z" fill="#7A6D5E"/>
<path transform="translate(1e3 478)" d="m0 0 13 4 2 1v2l-11-3-4-2z" fill="#2E342C"/>
<path transform="translate(1077,324)" d="m0 0 1 4 4 1-5 1 1 2-5-1-2-1v-2l6-1z" fill="#C0BF58"/>
<path transform="translate(1213,262)" d="m0 0h7l1 5-3 1-1-2-4-1z" fill="#334414"/>
<path transform="translate(1070,262)" d="m0 0 5 2-2 4 3 1-2 1-7-5 3-1z" fill="#44542E"/>
<path transform="translate(1167,250)" d="m0 0h9l-2 2 2 2-5 1-5-1-1-3z" fill="#848C59"/>
<path transform="translate(1314,393)" d="m0 0h2v2h2l4 5 3 2-1 2-6-4-4-5z" fill="#35471B"/>
<path transform="translate(1429,373)" d="m0 0h4v6l-2 2-1-2-3-1z" fill="#98896D"/>
<path transform="translate(907,361)" d="m0 0 1 2h-2v2l4 2v3l-4 1-1-1v-8z" fill="#42562B"/>
<path transform="translate(1165,222)" d="m0 0h5l1 3-4 2-2 2-1-5z" fill="#475A31"/>
<path transform="translate(1133,199)" d="m0 0h19l-3 2-2 2h-3v-3h-11z" fill="#C3B784"/>
<path transform="translate(1169,198)" d="m0 0 10 1-2 2h-10l-4-2z" fill="#DADEB1"/>
<path transform="translate(1282,445)" d="m0 0 5 2 2 6-5-2-2-3z" fill="#324419"/>
<path transform="translate(1027,439)" d="m0 0 8 2v2l-7 1-3-3z" fill="#3C4D2B"/>
<path transform="translate(946,412)" d="m0 0 2 2v4h2v5l-5-2v-8z" fill="#2D4016"/>
<path transform="translate(934,408)" d="m0 0 3 2v2l4 1v3h-3l1 3h-2l-1-4h2v-2l-4-1z" fill="#384825"/>
<path transform="translate(904,345)" d="m0 0h2l1 5v6h2l-2 4h-2z" fill="#57673D"/>
<path transform="translate(1192,266)" d="m0 0h6v2l-2 2 2 1v2l-6-1z" fill="#3B4D21"/>
<path transform="translate(1139,256)" d="m0 0 2 1-3 4-4 1-1-5z" fill="#2C3F0E"/>
<path transform="translate(1125,255)" d="m0 0 3 1-2 4-4 1-2-2 2-3z" fill="#324517"/>
<path transform="translate(1376,498)" d="m0 0 6 2 1 2h-7l-4-2z" fill="#262F25"/>
<path transform="translate(906,380)" d="m0 0 7 1-1 4-4 1-2-2z" fill="#314418"/>
<path transform="translate(1224,379)" d="m0 0 5 1h4l2 3v2l-4-1-7-4z" fill="#475A2C"/>
<path transform="translate(1077,309)" d="m0 0h5l2 4v3l-4-2-3-2z" fill="#2F421E"/>
<path transform="translate(1093,254)" d="m0 0 6 1v2h-4v2l-5 1 2-5z" fill="#677847"/>
<path transform="translate(1166,254)" d="m0 0 7 2v2l-5 2-3-2z" fill="#293D0D"/>
<path transform="translate(1085,252)" d="m0 0 1 2h2v3l-8 1 3-5z" fill="#586B3D"/>
<path transform="translate(1192,248)" d="m0 0h5l-4 5-5 3-2-1 3-4h2z" fill="#A3A06B"/>
<path transform="translate(1057,233)" d="m0 0h2l1 4-2 2-3 1-1-3-2-1 1-2z" fill="#41552D"/>
<path transform="translate(1078,230)" d="m0 0h2l-2 6-2 2v-2h-2l-1-3h2v-2z" fill="#72844E"/>
<path transform="translate(1066,229)" d="m0 0 1 2h3l1 5-3 2 1-4-4-1-1-3z" fill="#72844E"/>
<path transform="translate(1079,212)" d="m0 0 2 1-1 3 2 1-5 4-2-1v-2l2-2v-3z" fill="#788852"/>
<path transform="translate(1435,487)" d="m0 0 3 1 2 3 4 2-5 1h-3z" fill="#394828"/>
<path transform="translate(989,458)" d="m0 0 6 2v3h-7v-3z" fill="#3A492A"/>
<path transform="translate(1083,437)" d="m0 0 6 1 1 3-8 1z" fill="#304319"/>
<path transform="translate(1227,429)" d="m0 0h11v1h-6l-2 5-3-1h2z" fill="#748650"/>
<path transform="translate(984,413)" d="m0 0 8 1v2h-2l2 4-4-2-4-3z" fill="#304216"/>
<path transform="translate(936,393)" d="m0 0 4 2-1 5h-4l-1-6z" fill="#31441F"/>
<path transform="translate(922,377)" d="m0 0h2v2h-2l2 5 3 4-4-2-4-5v-3z" fill="#243710"/>
<path transform="translate(1229,361)" d="m0 0 2 1v2h2l-1 4 1 5h-2l-2-7z" fill="#87905A"/>
<path transform="translate(1175,357)" d="m0 0 10 3 2 1v2l-5-1-7-3z" fill="#B9AE35"/>
<path transform="translate(906,350)" d="m0 0 4 4 1 5-2-1v-2l-3 1z" fill="#314318"/>
<path transform="translate(1085,325)" d="m0 0 9 3-4 1v2l-6-1 3-1-3-1z" fill="#6A774A"/>
<path transform="translate(1230,285)" d="m0 0h1v12l-2 3-1-14z" fill="#969D54"/>
<path transform="translate(1209,259)" d="m0 0 11 1-1 3-6-1v2l-3-1z" fill="#42562E"/>
<path transform="translate(1190,253)" d="m0 0 6 1-2 4-4-1-2-2z" fill="#54673A"/>
<path transform="translate(1086,238)" d="m0 0h5v2l3 1-5 1-4 1v-4z" fill="#354824"/>
<path transform="translate(1172,234)" d="m0 0 4 2 1 4-4 2 1-3-3 1v-3z" fill="#405429"/>
<path transform="translate(1110,230)" d="m0 0 1 2 5-1-2 3-11 1 1-3 4-1z" fill="#B3A771"/>
<path transform="translate(1224,214)" d="m0 0h4v4h-2v5l-3-3z" fill="#647745"/>
<path transform="translate(1152,199)" d="m0 0 2 1 1 5-7-1-2-1v-2z" fill="#B9AD79"/>
<path transform="translate(1225,200)" d="m0 0h3v3l2 1-4 1-6-2-1 2v-2l-2-1 8-1z" fill="#DBD5A4"/>
</svg>
