<?xml version="1.0" encoding="UTF-8"?>
<svg version="1.1" viewBox="0 0 2048 2048" width="1280" height="1280" xmlns="http://www.w3.org/2000/svg">
<path transform="translate(320,7)" d="m0 0h18l12 3 35 16 29 14 22 11 21 12 24 16 13 10 13 11 12 11 13 14 13 17 12 19 4 8h2l8-15 14-20 11-13 11-12 9-9 11-9 17-13 15-10 15-9 22-12 15-8 58-27 11-4 6-1h18l13 4 10 6 10 9 7 11 5 13 1 6v12l-4 15-8 14-11 15-12 19-10 18-10 21-9 25-6 23-4 21-2 22-2 39 41-19 33-15 25-11 12-3h20l12 3 10 5 12 9 9 10 8 14 4 12 1 5v19l-4 14-6 11-14 20-26 36-12 18-12 21-10 21-8 21-6 19-5 21 1 5 16 11 14 11 11 9 14 12 16 15 14 14 7 8 10 11 22 28 12 17 13 20 14 24 15 29 11 25 11 29 2 8-1 10-5 10-4 5-6 4-3 1 2 10 11 39 7 28 2 7 19-19 5-6 8-7 15-15 5-6 8-7 575-575 5-6 7-6 5-5 7-6 7-3 11-1 11 3 9 7 18 18 7 8 15 16 9 11 9 10 11 14 13 16 12 16 13 18 14 20 12 18 13 21 15 26 13 23 23 46 18 41 16 42 12 35 10 34 9 35 8 36 7 40 6 45 5 52 1 10v93l-5 57-6 48-8 47-9 41-10 37-9 30-13 38-15 38-13 30-14 30-10 20-13 23-14 25-10 16-14 22-11 16-12 17-12 16-11 14-14 18-12 14-9 11-14 15-7 8-9 9-7 8-20 20h-2v2l-8 7-10 10-8 7-11 10-11 9-14 12-17 13-15 12-18 13-20 14-23 15-21 13-24 14-22 12-23 12-31 15-30 13-33 13-34 12-28 9-36 10-42 10-19 5-13 11-12 9-14 10-19 12-18 10-16 8-22 10-28 10-29 8-26 5-22 3-27 2h-35l-33-3-30-5-28-7-33-11-21-9-23-11-24-14-15-10-16-12-5 1-12 12-17 13-14 10-17 10-23 12-26 10-21 6-26 5-18 2-15 1h-16l-26-2-28-5-36-10-15-2h-14l-21 4-27 7-21 4-18 2h-40l-25-3-24-5-26-8-19-8-17-8-17-10-12-9-6-10-1-3v-15l4-8-1-4-10-9-19-19-11-14-9-12-5-8-7 1-13 1-10-3-8-6-7-11-10-22-9-24-9-29-8-36-6-40-2-18v-76l7-48 7-34 8-28 7-21 10-24 9-19 10-17-1-10-9-30-10-39-8-37-8-47-6-48-4-52-1-23v-59l2-38 3-37 6-44 6-35 9-40 8-30 12-38 15-39 11-25 9-19 12-22 12-21 11-17 9-13 10-14 10-13 11-13 9-11 9-9 1-2h2l2-4 16-16 8-7 12-11 10-8 14-11 17-12 1-1-1-11-7-26-7-20-9-21-13-25-18-27-26-36-12-17-8-16-2-8-1-12 2-14 4-12 9-14 10-11 10-7 11-5 11-3h20l15 4 70 32 26 12-2-40-3-27-6-28-10-30-9-20-11-21-12-19-10-14-7-11-5-10-3-12v-12l3-12 7-14 10-11 9-6 12-5z" fill="#010101"/>
<path transform="translate(1735,333)" d="m0 0 4 2 9 10 14 15 9 11 11 13 20 26 14 19 15 22 10 15 13 21 13 22 12 22 12 23 11 22 16 37 11 28 13 37 10 33 10 38 8 37 8 47 5 41 3 36 1 19 1 47-1 38-5 61-5 38-8 45-8 36-12 44-13 40-17 45-17 38-12 25-15 29-14 24-10 17-14 22-10 15-12 17-13 18-13 16-10 13-11 13-12 14-9 10-7 8-12 12-1 2h-2l-2 4-27 27-8 7-15 14-11 9-14 12-16 13-20 15-18 13-17 12-17 11-19 12-24 14-22 12-29 15-23 11-33 14-33 13-38 13-20 6-2-1 8-13 10-18 12-24 11-27 12-36 4-3 30-13 25-12 24-12 21-12 22-13 17-11 15-10 28-20 15-12 13-10 14-12 15-13 12-11 7-7 8-7 22-22 7-8 7-7 9-11 11-12 11-14 10-12 9-12 13-18 22-33 16-26 14-25 14-27 12-25 11-26 11-28 8-22 10-32 10-37 8-36v-11l-4-10-7-8-8-4-7-2-11 1-10 5-7 8-4 10-11 46-8 28-12 36-11 29-12 28-19 39-13 24-17 28-13 20-11 16-10 14-10 13-13 16-8 10-9 10-9 11-7 8h-2l-2 4-32 32-8 7-12 11-11 9-9 8-14 11-17 13-18 13-29 19-20 12-23 13-27 14-17 8h-1v-44l-3-34-5-28-6-25-9-29-9-22-7-16-10-19-11-19-8-12-12-17-13-16-9-11-14-15-10-10-8-7-15-13-20-15-12-8-21-13-23-12-19-9-26-10-29-9-27-6-26-4-20-2-19-1h-20l-33 3-36 6-32 8-21 7-20 8-26 12-23 13-16 10-14 10-6 4-2-1 28-28 5-6 8-7 31-31 5-6 7-6 5-5 5-6 8-7 4-5 8-7 8-9 7-6 5-6 8-7 10-10 6-7 6-5 6-7 8-7 4-5 6-5 5-6 7-6 6-7 6-5 6-7 6-5 6-7 6-5 6-7 6-5 133-133 5-6 6-5 6-7 6-5 6-7 6-5 6-7 6-5 6-7 6-5 6-7 6-5 6-7 6-5 6-7 6-5 6-7 6-5 6-7 6-5 6-7 6-5 6-7 6-5 6-7 6-5 6-7 6-5 6-7 6-5 6-7 6-5 6-7 6-5 6-7 6-5 6-7 6-5 6-7 6-5 6-7 6-5 6-7 6-5 6-7 6-5 6-7 6-5 6-7 6-5 6-7 6-5 6-7 6-5 6-7 6-5 6-7 6-5 6-7 6-5 6-7 6-5 6-7 6-5 6-7 6-5 6-7 6-5 6-7 6-5 6-7 6-5 6-7 6-5 6-7 6-5 6-7 6-5 6-7 6-5 22-22 4 1 11 12 11 13 9 11 13 16 26 36 17 26 16 27 12 22 11 21 13 28 13 32 10 27 10 32 7 26 7 29 6 31 6 40 4 45 1 16 1 46 3 10 4 6 8 7 10 4h7l12-4 6-4 6-9 3-7v-44l-2-36-5-47-7-44-9-41-8-31-11-36-11-31-15-37-16-34-8-16-16-30-9-15-11-18-18-27-12-17-14-19-26-32-10-11-7-8-8-9 6-7z" fill="#EC6461"/>
<path transform="translate(558,506)" d="m0 0h15l35 2 24 3 22 4 27 6 35 11 28 11 29 14 17 9 18 11 19 13 11 8 14 11 13 11 10 9 15 14 8 8 7 8 9 10 9 11 14 18 18 27 9 15 10 18 11 22 13 32 6 14 5 6 10 5 3 1h12l4-1 3 7 12 42 7 28 1 7-4 6-8 7-12 12-1 2h-2l-2 4-16 16h-2v2h-2v2l-8 7-19 19-1 2h-2l-2 4-12 12h-2l-2 4h-2l-2 4-84 84h-2l-2 4h-2l-2 4h-2l-2 4h-2l-2 4h-2l-2 4-4 4h-2l-2 4-4 4h-2l-2 4h-2l-2 4-4 4h-2l-2 4h-2l-2 4-52 52h-2l-2 4-8 8h-2l-2 4h-2l-2 4h-2l-2 4-4 4h-2l-2 4h-2l-2 4h-2l-2 4h-2l-2 4h-2l-2 4h-2l-2 4h-2l-2 4h-2l-2 4-8 7-30 30-3 4-9-3-19-8-21-7-16-4-17-3-22-2h-28l-35 3-35 5-23 4h-7l-12-35-10-23-13-25-9-14-11-16-8-10-11-13-9-10-9-9-11-9-12-10-15-10-11-5-10-1-9 2-9 6-6 8-2 6v14l4 10 7 7 16 11 13 11 14 13 7 8 8 9 13 18 8 13 12 23 9 21v2l-9-1-26-4-11-1h-37l-24 3-24 5-24 7-16 6-20 9-20 11-15 10-16 12-21 18-3 4h-3l-10-40-8-43-5-35-4-39-3-44-1-33v-14l2-46 3-37 4-34 7-43 9-42 11-41 12-36 8-22 11-26 12-26 12-23 17-28 7-11 14-20 22-28 14-15 7-8 15-15 8-7 13-11 17-13 14-10 24-15 26-14 30-13 19-7 23-7 24-6 27-5 21-3 25-2z" fill="#FDCC5D"/>
<path transform="translate(289,1345)" d="m0 0h13l20 1 32 4 32 6 5 2 3 36 1 21 2 11 5 8 2 4 5 2 6 3 4 1h11l10-4 6-5 5-7 3-11-1-33-2-26 16-4 37-6 26-3h39l16 2 22 5 26 10 19 10 15 10 13 10 10 9 8 7 8 8 9 11 11 14 10 15 12 21 11 23 8 21 7 21 6 24 5 26 4 32 2 33-1 32-3 31-5 30-9 36-9 26-11 25-11 21-12 19-8 11-13 16-14 15-10 9-20 15-20 12-19 9-30 10-24 5-15 2h-35l-25-4-25-7-24-6-15-2h-22l-20 3-45 11-18 3-11 1h-21l-21-2-23-5-24-8-20-9-25-14-7-3-8-1-10 2-12 9-4-2-8-7-20-20-11-14-9-12-6-10 7-6 5-8 2-7v-9l-4-12-11-25-7-19-8-28-6-29-4-30-2-23v-55l5-42 6-30 7-26 9-26 11-25 10-19 12-19 12-16 11-13 20-20 14-11 18-12 18-10 22-9 22-6 19-3z" fill="#F79594"/>
<path transform="translate(971,1306)" d="m0 0h27l26 2 25 4 18 4 24 7 25 9 29 14 22 13 13 9 16 12 14 12 15 14 9 9 7 8 13 16 14 20 12 20 11 21 10 24 9 27 6 25 4 24 2 18 1 16v24l-2 24-5 30-5 21-6 19-8 22-14 29-13 22-11 16-10 13-11 13-9 10-17 17-22 18-17 12-21 13-27 14-27 11-26 8-28 6-18 3-20 2h-39l-30-3-27-5-19-5-30-10-18-8-17-8-22-13-19-13-5-4 1-4 9-14 10-18 8-16 10-23 8-23 7-23 8-36 5-35 2-20 1-23v-33l-2-31-4-31-7-36-9-32-8-23-10-24-10-21-16-27-11-16-9-12 1-3 11-9 16-12 12-8 15-9 14-8 22-10 24-9 19-6 23-5 24-4z" fill="#FDCC5D"/>
<path transform="translate(1735,333)" d="m0 0 4 2 9 10 14 15 9 11 11 13 20 26 14 19 15 22 10 15 13 21 13 22 12 22 12 23 11 22 16 37 11 28 13 37 10 33 10 38 8 37 8 47 5 41 3 36 1 19 1 47-1 38-5 61-5 38-8 45-8 36-12 44-13 40-17 45-17 38-12 25-15 29-14 24-10 17-14 22-10 15-12 17-13 18-13 16-10 13-11 13-12 14-9 10-7 8-12 12-1 2h-2l-2 4-27 27-8 7-15 14-11 9-14 12-16 13-20 15-18 13-17 12-17 11-19 12-24 14-22 12-29 15-23 11-33 14-33 13-38 13-20 6-2-1 8-13 10-18 12-24 11-27 12-36 4-3 30-13 25-12 24-12 21-12 22-13 17-11 15-10 28-20 15-12 13-10 14-12 15-13 12-11 7-7 8-7 22-22 7-8 7-7 9-11 11-12 11-14 10-12 9-12 13-18 22-33 16-26 14-25 14-27 12-25 11-26 11-28 8-22 10-32 10-37 8-36v-11l-4-10-7-8-8-4-5-3 6-54 2-25 1-9 16-5 6-4 6-9 3-7v-44l-2-36-5-47-7-44-9-41-8-31-11-36-11-31-15-37-16-34-8-16-16-30-9-15-11-18-18-27-12-17-14-19-26-32-10-11-7-8-8-9 6-7z" fill="#94D472"/>
<path transform="translate(778,74)" d="m0 0v3l-10 14-9 15-12 22-11 26-9 29-5 23-3 16-4 37-2 41v50l2 9 5 8 7 6 12 4h8l13-5 30-15 28-13 29-13 34-15 11-4 7 2-1 7-8 12-12 17-14 19-18 27-10 17-9 17-11 25-9 25-6 21-6-1-29-13-26-10-30-10-32-8-26-5-29-4-20-2-24-1h-31l-34 2-25 3-29 5-34 8-27 8-25 9-26 11-19 9-5 1-15-45-11-25-10-20-15-25-8-11-20-28-13-18-7-11v-6l3-2 7 1 35 15 38 17 24 11 32 16 15 5h8l10-4 8-7 5-10 1-4v-54l-2-39-4-36-6-31-6-22-7-20-8-19-13-25-12-19-7-10v-2l5 2 35 17 21 11 23 14 17 12 10 8 15 13 12 12 9 11 10 14 11 19 6 15 6 19 4 21 3 35 3 11 8 9 11 5 9 1 13-4 8-7 5-10 1-3 2-30 4-23 6-21 9-21 10-17 10-14 10-11 7-8 13-12 14-11 18-13 27-16 27-14 21-10z" fill="#94D472"/>
<path transform="translate(616,1356)" d="m0 0 10 3 21 10 20 13 13 10 10 9 8 7 8 8 9 11 11 14 10 15 12 21 11 23 8 21 7 21 6 24 5 26 4 32 2 33-1 32-3 31-5 30-9 36-9 26-11 25-11 21-12 19-8 11-13 16-14 15-10 9-20 15-20 12-8 4h-2v-2l-4 1-5-2 1-4 9-7 9-12 1-2h2l2-6 10-16 4-7 2-5 7-14 9-20 6-16 4-11 8-25 7-27 5-25 3-17 4-36 1-20v-42l-3-43-6-38-8-36-6-22-7-22-6-16-10-23-10-19-8-13-10-15-10-13-4-5-10-13-4-2-3-4z" fill="#F57D7D"/>
<path transform="translate(764,746)" d="m0 0 13 2 11 7 43 43 4-1 13-13 7-8 20-20 10-7 5-2 11-1 10 3 9 6 6 9 2 5v14l-6 12-12 13-53 53h-2v2l-8 6-8 3h-13l-10-4-10-9-63-63-6-12-1-11 3-10 4-6 8-7 7-3z" fill="#010101"/>
<path transform="translate(356,935)" d="m0 0 11 1 12 6 40 40 6 5 4-2 42-42 10-6 8-2 10 1 12 6 6 7 4 9 1 4v7l-4 11-7 9-65 65-7 5-6 2h-13l-9-3-10-8-63-63-7-11-1-3v-15l4-9 6-7 6-4z" fill="#010101"/>
<path transform="translate(492,746)" d="m0 0h8l9 3 9 6 43 43 4-2 42-42 9-6 8-2h7l11 3 8 6 6 10 2 5v12l-3 8-7 9-67 67-12 6h-13l-10-4-10-9-62-62-6-9-2-6v-11l4-11 5-6 9-6z" fill="#010101"/>
<path transform="translate(623,936)" d="m0 0h14l12 6 45 45 4-1 43-43 10-6 3-1h15l9 4 8 7 5 10 1 4v9l-4 11-9 10-6 7h-2v2l-8 7-48 48-12 6h-13l-9-3-10-8-61-61-6-8-4-10v-11l4-10 5-7 10-6z" fill="#010101"/>
<path transform="translate(1566,932)" d="m0 0 26 1 38 2 11 2 9 4 6 5 6 11 1 5v9l-4 10-8 9-6 4-6 2h-29l-41-2-12-3-9-6-6-8-3-8v-13l4-9 7-8 8-5z" fill="#010101"/>
<path transform="translate(1519,1129)" d="m0 0h12l20 8 31 14 19 9 8 8 4 9 1 4v8l-4 11-7 8-7 5-9 3h-7l-12-4-23-10-15-7-16-7-11-8-6-9-2-6v-12l4-10 7-8 9-5z" fill="#010101"/>
<path transform="translate(1406,1295)" d="m0 0h13l10 4 10 9 41 41 6 10 2 4v13l-4 10-6 7-10 6-8 2-10-1-10-5-6-5v-2h-2v-2h-2v-2h-2v-2h-2v-2h-2v-2h-2v-2h-2v-2h-2v-2h-2v-2h-2v-2h-2v-2h-2l-7-8-14-14-4-7-3-9 1-11 5-10 7-7 7-4z" fill="#010101"/>
<path transform="translate(1596,712)" d="m0 0 10 1 12 6 7 9 4 11v7l-3 9-4 6-7 7-14 6-42 14-16 5h-11l-8-3-10-9-5-10-1-3v-10l4-11 7-8 16-8 36-12 20-6z" fill="#010101"/>
<path transform="translate(531,507)" d="m0 0h11v4l-10 2-19 1-24 4-13 2-7 1-6 2-21 5-15 4-1 1-9 2-8 4-11 5-14 5-2 2-14 5-9 4-6 3-18 10-18 11-18 13-3 3h-2l-1 3-4 3h-2v2l-5 4h-2l-2 4-16 14-12 12h-2v2h-2v2h-2v2h-2l-2 4-6 8h-2l-3 6h-2l-3 6h-2l-2 4-14 18-6 10h-2l-1 4-4 6-3 4-6 11-10 18-8 15-3 7h-2l-1 5-1 3h-2l-3 9-8 18-8 20-10 28-12 37-5 21-3 8-2 12-2 6-3 13-2 8-1 9-2 5-3 20-2 7-3 23-5 31-2 2-2-2v-23l4-31 6-37 9-42 11-41 12-36 8-22 11-26 12-26 12-23 17-28 7-11 14-20 22-28 14-15 7-8 15-15 8-7 13-11 17-13 14-10 24-15 26-14 30-13 19-7 23-7 24-6 27-5 21-3z" fill="#FDD663"/>
<path transform="translate(1047,1403)" d="m0 0h10l11 4 8 7 6 12v13l-4 10-7 8-10 5-3 1h-10l-10-3-10-9-5-10-1-4v-8l3-10 6-8 9-6z" fill="#010101"/>
<path transform="translate(852,1705)" d="m0 0h1l1 13-1 17-4 32-8 37-11 33-10 23-10 18-8 11-4 6-5 5-6 5h-2l1-4 13-23 8-16 9-20 9-24 9-31 7-32 5-35 2-3 2-11z" fill="#FDD763"/>
<path transform="translate(955,1025)" d="m0 0h2l-2 4-79 79h-2l-2 4h-2l-2 4h-2l-2 4h-2l-2 4h-2l-2 4-4 4h-2l-2 4-4 4h-2l-2 4h-2l-2 4-4 4h-2l-2 4h-2l-2 4-52 52h-2l-2 4-8 8h-2l-2 4h-2l-2 4h-2l-2 4-4 4h-2l-2 4h-2l-2 4h-2l-2 4h-2l-2 4h-2l-2 4h-2l-2 4h-2l-2 4h-2l-2 4-8 7-30 30-3 4-9-3v-3l11-1 2-5 7-8 5-5 6-5 5-6 8-7 3-1 1-3 8-7 16-16 4-5 7-6 5-6 7-6 5-6 8-7 34-34h2v-2l5-5 3-1 1-3h2l2-4 4-4h2l2-4h2l2-4h2l2-4h2l2-4h2l2-4h2l2-4h2l2-4h2l2-4h2v-2h2v-2l7-6 5-6 7-6 25-25h2l2-4 25-25h2l2-4h2l1-3 8-7z" fill="#F9D064"/>
<path transform="translate(224,1292)" d="m0 0h8l-1 3-27 9-24 11-18 10-15 10-16 12-21 18-3 4h-3l-2-8v-6l8 2 4-2 5-5 4-2v-2h2l2-4 11-8 3-1 1-3 18-11 7-5 19-9 16-7 20-5z" fill="#FCD763"/>
<path transform="translate(399,1204)" d="m0 0 3 1 4 7 2 4 3 3 3 5 2 6 2 2 2 7h2l3 6 1 3h2l1 6 2 3 2 6 2 3 6 17 3 5v2l17 1 8-4 10 1h14l1-3 8-1 2 1h17v2l-46 6-29 5h-7l-12-35-10-23-13-25-5-8z" fill="#FDD463"/>
<path transform="translate(521,955)" d="m0 0 3 4 3 8v11l-5 9-7 6-5 1v2h-3v2l-5 3-17 17-1 2h-2v2h-2l-1 4h-3l-1 4h-2l-1 4-2 2-1 2h-3l-1 4-5 5-7 8h-2v2l-9 7-4 1-13-1 4-2 11-5 9-7 64-64 6-10 2-7z" fill="#FCD663"/>
<path transform="translate(286,1172)" d="m0 0 7 3 13 12 8 7 11 12 12 15 14 21 12 23v2l-5-2-7-9-3-7-3-6 1-5-5-2-4-3-1-5-4-4v-2l-3-1 1-3h-3l-1-3-3-2-2-4h-2v-2h-2v-2h-2l-6-8-2-1v-2l-6-3v-2h-2l-3-4v-2l-3-1-5-5-2-1z" fill="#FDD262"/>
<path transform="translate(616,746)" d="m0 0h2v2l-11 7-44 44-4-2-43-43 2-2 5 6 3 3h3l1 3 3 1 1 4h3l4 4 1 4 9 8 4 2 8 1 7-4 20-20 7-6 5-5 5-3z" fill="#FEDB63"/>
<path transform="translate(624 1e3)" d="m0 0 4 1 46 46 11 7v2l5 1v2l-9-1-3-1v-2l-5-1-8-6-2-4-4-2-8-8-7-8-9-10-4-4-2-6-3-3v-2z" fill="#FED963"/>
<path transform="translate(1083,1430)" d="m0 0h2l1 4 2 1 1 8-1 6-3 5h-2l-2 4-4 4-13 5-7 1h-10l-7-2v-2l-4-2 3-1 9 1h10l10-4 6-5 5-8 3-9z" fill="#FDD863"/>
<path transform="translate(907,810)" d="m0 0h2v2h-2l-2 4-5 5-5 6v3h-3l-1 4h-2l-2 4-5 6h-2l-2 4-10 10-8 5-4 2-6 5-1 3-8 3h-14l-2-1v-2l11-1 12-5 5-4h2v-2l8-7z" fill="#FED461"/>
<path transform="translate(475,938)" d="m0 0h2v2l-9 7-41 41-5-2-4-4v-2l9-1 7-6 1-2h2v-2l8-7 5-5h2v-2h2v-2l7-6 5-5 8-3z" fill="#FDD663"/>
<path transform="translate(658,768)" d="m0 0 2 1 2 13 1 4-2 7-9 10-5 1v2l-6 3-12 11-7 8-13 12-24 24v-3l65-65 6-10 1-4z" fill="#FBD064"/>
<path transform="translate(794,1434)" d="m0 0 4 2 2 5 3 5v3h2l3 7 2 1 1 7 4 4 1 6 3 5 2 5 2 3-1 5h2l2 7 2 9h2l1 7 3 5 1 5-2 4-3-5-11-33-10-24-10-21-5-8z" fill="#FDD162"/>
<path transform="translate(876,1325)" d="m0 0 1 3-5 2-3 2-5 2-5 3-12 4-3-1v2l-5 1v2l-5 1v2h-6v2h-2l-1 3-6-1v2h-2v2h-5l2-4 18-10 22-10 15-6h6z" fill="#FDD463"/>
<path transform="translate(328,1215)" d="m0 0 5 1 11 15 8 13 11 21v2l-5-2-7-9-3-7-3-6 1-5-5-2-4-3-1-5-4-4v-2l-3-1 1-3h-3z" fill="#FDD562"/>
<path transform="translate(792,959)" d="m0 0h2l1 5 2 1 2 11-5 10h-2v2l-7 6-9 2 2-5 7-7 5-10z" fill="#FDD963"/>
<path transform="translate(749,936)" d="m0 0 3 1-11 7-44 44-4-1-1-4 2-1 4 1 5-5 8-12h2v-2l4-1 1-3 8-6 9-9z" fill="#FCD963"/>
<path transform="translate(500,823)" d="m0 0 7 6 34 34-1 2-6-1-9-8v-2h-2v-2h-2l-9-11-3-4-1-3-8-8z" fill="#FBC862"/>
<path transform="translate(834,1533)" d="m0 0 4 1 1 5v6l3 3 2 7v2l1 8 3 7v9l-3 3-4-16-7-29z" fill="#FCCC62"/>
<path transform="translate(348,1139)" d="m0 0 5 2 13 13 4 5v2l3 1 3 5-1 5-5-4-9-11-13-13z" fill="#FED763"/>
<path transform="translate(849,1586)" d="m0 0 2 2 5 35v2l-3 1-3-3-2-12-1-19z" fill="#FFDE64"/>
<path transform="translate(373,1023)" d="m0 0 4 2 27 27 3 2 2 5-5-2-3-1v-2l-5-2-7-6-6-8-3-5-2-5h-2v-2h-2z" fill="#FED962"/>
<path transform="translate(769,1386)" d="m0 0 3 2 2 5 1 10h3l1 4 2 1 1 5 2 2h2l2 6 2 3v3l-3-1-10-16-12-16-2-5 5-1z" fill="#FDD363"/>
<path transform="translate(746,1023)" d="m0 0 3 1v2h-2v4l-2 1-1 3h-2l-1 4h-2l-2 4-11 10-8 4-2-1 26-26 3-5z" fill="#FEDA63"/>
<path transform="translate(879,750)" d="m0 0 2 2-15 14-12 12-7 8-5 5-3-1 1-2h2l2-6 5-6h2v-2l4-3h2v-2l8-7h2v-2l6-4 5-5z" fill="#FDD563"/>
<path transform="translate(887,832)" d="m0 0 4 2h-2l-2 4-5 6h-2l-2 4-10 10-8 5-4 1 6-7z" fill="#FEDD63"/>
<path transform="translate(784,840)" d="m0 0 5 1 17 17 1 6-6-3-6-5v-2l-3-1-1-3-4-4-3-4z" fill="#FCCF62"/>
<path transform="translate(502,744)" d="m0 0m-7 0h6l1 2-15 2-8 4-5 4-5 8-3 8h-1v-9l4-6 1-3 5-2v-2l8-4z" fill="#FBCF63"/>
<path transform="translate(634,812)" d="m0 0 2 1-7 7-7 8-13 12-24 24v-3z" fill="#F6A662"/>
<path transform="translate(776,993)" d="m0 0 1 4-26 26-4-1 22-22h2v-2h2l2-4z" fill="#F9B65F"/>
<path transform="translate(517,752)" d="m0 0 9 9h3l1 3 3 1 1 4h3l4 4 1 4 8 7v2l2 1h-3l-33-33z" fill="#FED761"/>
<path transform="translate(79,1058)" d="m0 0 3 2v18l-2 4h-3v-16z" fill="#FFDE64"/>
<path transform="translate(616,832)" d="m0 0v3l-1 3-3 1-1 3h-2v2h-2v2h-2v2h-2v2h-2l-1 4h-3l-1 4h-3v2l-6 4-2-1z" fill="#FEDD63"/>
<path transform="translate(848,867)" d="m0 0h3l-2 6-8 3h-14l-2-1v-2l11-1z" fill="#FDD663"/>
<path transform="translate(674,1389)" d="m0 0 5 2 11 10 8 7 8 8 4 5-1 2-23-23-11-9z" fill="#F48786"/>
<path transform="translate(499,1284)" d="m0 0 5 1h17v2l-25 3h-6l4-5z" fill="#F8D163"/>
<path transform="translate(843,1557)" d="m0 0h1l1 8 3 7v9l-3 3-4-16v-5h2z" fill="#FEDD63"/>
<path transform="translate(574,869)" d="m0 0 4 1-6 4-6 2h-9l-7-4v-1h19z" fill="#FCCB63"/>
<path transform="translate(774,1403)" d="m0 0h4l1 4 2 1 1 5 2 2h2l2 6 2 3v3l-3-1-10-16-3-4z" fill="#FCCC62"/>
<path transform="translate(712,1056)" d="m0 0 3 1-4 5-6 2h-12v-1l13-4z" fill="#FBD363"/>
<path transform="translate(600,954)" d="m0 0h1l-1 20-3-4v-12z" fill="#FDD462"/>
<path transform="translate(378,1175)" d="m0 0h4v2h2v2h2l1 6-1 3-8-11z" fill="#FDD362"/>
<path transform="translate(834,1533)" d="m0 0 4 1 1 5v8l-3-1-2-7z" fill="#FDD262"/>
<path transform="translate(829,1515)" d="m0 0h2l3 5 1 5-2 4-3-5z" fill="#FDD363"/>
<path transform="translate(1495,1147)" d="m0 0h1l-1 20-2-1-1-12z" fill="#F27574"/>
<path transform="translate(1539,951)" d="m0 0h1l-1 20-2-2-1-11z" fill="#F37675"/>
<path transform="translate(338,940)" d="m0 0h2l-1 4-6 8-2-1v-5z" fill="#FED762"/>
<path transform="translate(502,744)" d="m0 0m-7 0h6l1 2-15 2-6 1 2-3z" fill="#F6D864"/>
<path transform="translate(787,1370)" d="m0 0 2 1-4 5-4 4-5 1 4-6z" fill="#FDD462"/>
<path transform="translate(702,980)" d="m0 0 2 1-7 7-4-1-1-4 2-1 4 1z" fill="#FED662"/>
<path transform="translate(784,1415)" d="m0 0h2l2 6 2 3v3l-3-1-4-7z" fill="#FDD362"/>
<path transform="translate(629,1295)" d="m0 0 9 2 7 3v2l-10-3-6-2z" fill="#FBC562"/>
<path transform="translate(260,1127)" d="m0 0h1l-1 15h-2v-13z" fill="#FEDC63"/>
<path transform="translate(356,933)" d="m0 0h8l5 2-2 2-11-1h-2v-2z" fill="#F0D666"/>
<path transform="translate(825,1505)" d="m0 0 3 1v2h2v7l-2 2-3-9z" fill="#FCCA62"/>
<path transform="translate(399,1204)" d="m0 0 3 1 4 7v3l-3-1-4-7z" fill="#FDD063"/>
<path transform="translate(735,767)" d="m0 0h2l-1 15-2-4v-9z" fill="#FDD262"/>
<path transform="translate(89,1297)" d="m0 0h2l1 5v12h-1l-2-11z" fill="#FABF61"/>
<path transform="translate(1831,985)" d="m0 0 2 1 5 10v2h-2v-2h-2l-3-6z" fill="#F37676"/>
<path transform="translate(674,1389)" d="m0 0 5 2 8 7-3 1-10-9z" fill="#F68C8B"/>
<path transform="translate(1657,982)" d="m0 0h2l-2 6-5 4-2-1z" fill="#F37675"/>
<path transform="translate(830,793)" d="m0 0 5 1-1 5-4-1-1-4z" fill="#FBC562"/>
<path transform="translate(641,1953)" d="m0 0h4v2l-8 4h-2l1-3z" fill="#F58786"/>
<path transform="translate(361,1267)" d="m0 0h3l2 4-1 4-5-4z" fill="#FCCD62"/>
</svg>
