<?xml version="1.0" encoding="UTF-8"?>
<svg version="1.1" viewBox="0 0 2048 2048" width="1280" height="1280" xmlns="http://www.w3.org/2000/svg">
<path transform="translate(715)" d="m0 0h26l12 7 11 9 11 10 8 7 25 25 7 8 12 14 13 16 13 18 10 15 13 21 13 24 11 23 11 27 9 26 4-2 8-8 11-7 10-3h14l11 4 10 7 14 12 13 12 25 25 7 8 12 14 13 17 12 16 15 23 15 26 16 32 11 27 9 27 3 1v-2l8-7 11-8 9-3 12-1 10 2 10 5 13 11 8 7 13 12 23 23 7 8 1 3h2l11 14 10 12 13 18 8 12 12 19 10 18 12 23 13 30 10 28 2 6 4-2 9-9 12-7 8-2h13l10 3 11 7 10 9 8 7 10 9 26 26 9 11 9 10 11 14 14 19 10 15 13 21 8 14 8 16 13 29 9 24 8 25 8 32 6 35 3 28 1 22v20l-1 25-4 35-5 28-8 32-12 36-12 29-12 25-13 23-13 21-11 16-16 21-11 13-2 4 150 150 7 11 3 10v12l-3 10-7 11-8 7-11 5-5 1h-14l-10-3-9-6-149-149-5-1v2l-14 11-17 13-16 11-17 11-21 12-23 12-24 11-29 11-26 8-32 8-30 5-26 3-15 1h-48l-34-3-25-4-28-6-25-7-27-9-24-10-26-12-22-12-18-11-18-12-19-14-16-13-14-12-12-11-28-28-7-8-11-13-7-12-2-8v-11l3-10 4-8 9-10 4-5 1-2-12-3-24-9-30-13-27-14-22-13-21-14-19-14-10-8-13-11-10-9-8-7-28-28-7-8-12-14-6-11-2-6v-16l4-11 6-9 9-9v-3l-31-11-26-11-30-15-14-8-18-11-12-8-18-13-14-11-13-11-10-9-8-7-29-29-7-8-11-13-7-12-2-7v-13l5-14 9-11 7-7-3-2-20-7-25-10-26-12-28-15-24-15-20-14-25-20-13-11-13-12-28-28-7-8-10-12-6-10-3-8v-15l3-10 6-9 9-10 14-15 15-14 10-9 22-18 16-12 30-20 17-10 22-12 19-9 9-4h2l-9-11-12-14-8-11-11-15-12-18-11-18-13-24-12-24-13-32-12-36-7-25-6-27-6-36-4-39-1-19v-46l1-18 3-14 6-10 5-6 11-7 12-3 17-1h56l38 3 30 4 28 5 40 10 36 12 28 11 20 9 19 10 22 12 23 15 19 13 15 12 9 7 13 11 4 2 3-9 12-25 12-22 11-18 16-24 14-18 8-10 12-14 7-8 7-7 7-8 10-10 16-14 7-4h2zm14 96-9 10-9 11-10 12-8 11-11 16-10 16-13 23-8 17-7 15-8 21-9 30-7 31-4 29-1 13v50l2 21 4 26 7 30 8 25 10 25 4 6 103 103 6 5 5 5h1v-68l3-32 5-30 6-26 7-25 9-26 12-29 16-32 16-27 8-12 7-11-1-12-7-30-8-26-10-26-10-22-12-22-14-23-13-18-11-14-9-11-12-13-11-12-5-4zm-532 42v16l2 34 4 32 5 28 8 32 12 36 10 24 14 29 13 23 16 24 14 19 13 15 9 10 11 12 11 11h7l40-6 25-2h46l35 3 26 4 24 5h5l-7-36-4-29-2-26v-42l3-34 5-32 1-7-12-13-8-8-8-7-10-9-14-11-18-13-18-12-26-15-24-12-26-11-26-9-23-7-30-7-31-5-29-3-17-1zm764 188-5 5-12 13-11 14-14 19-10 15-11 18-9 16-13 28-9 24-8 25-7 29-4 24-3 37v28l3 35 5 29 8 32 10 29 7 16 108 108h2l2 4 4 4h2l-1-25v-36l2-26 4-30 5-26 8-30 12-36 12-28 12-25 14-24 9-15 11-16 1-5-6-29-8-28-9-25-9-21-11-22-16-27-11-16-12-16-8-10-13-15-15-16zm-542 229-25 2-28 4-27 6-27 8-27 10-30 14-27 15-28 19-18 14-11 9-12 11-4 3 2 4 12 12 8 7 11 10 14 11 13 10 24 16 21 12 17 9 23 10 30 11 25 7 29 6 5-1 11-7 15-10 26-15 30-15 32-13 30-10 31-8 32-6 35-4 18-1h38l20 1-6-7-9-9-7-8-90-90-9-6-25-10-26-8-31-7-28-4-26-2zm771 3-7 7-9 11-8 9-8 11-6 8-10 15-11 17-14 26-11 24-9 24-9 29-6 28-3 17-3 29v48l4 35 6 31 8 28 7 20 8 18 105 105h2v2l5 4 4 5 2-1-2-33 1-35 3-32 5-30 7-30 8-27 9-25 12-28 14-28 10-17 8-13 8-12 5-7-1-13-6-26-8-27-10-27-13-28-13-23-13-21-11-15-10-13-11-13-11-12-9-10-5-5zm-548 228-30 3-28 5-24 6-33 11-26 11-24 12-22 13-15 10-14 10-14 11-11 9-12 11-4 4 16 16 8 7 15 13 18 14 27 18 15 9 27 14 23 10 25 9 24 7 24 5 12 1 15-10 19-12 29-16 32-15 27-10 21-7 26-7 29-6 30-4 27-2h51l12 1-2-4-7-7-7-8-97-97-8-5-26-10-27-8-26-6-27-4-24-2zm778 2-9 11-3 3v2h-2l-11 14-14 18-7 11-11 17-13 24-12 25-10 26-8 25-7 30-5 32-2 32v21l2 29 5 33 7 30 12 36 6 14 9 10 101 101h2l2 4 4-1 15-20 11-15 15-24 14-27 9-19 10-26 9-31 6-28 4-29 1-11 1-30-2-36-5-33-7-30-7-23-8-21-8-18-8-16-9-17-15-24-13-18-13-16-12-14-16-17-4-4zm-539 228-35 3-29 5-28 7-30 10-24 10-19 9-23 13-19 12-18 13-14 11-11 9-12 11-3 2 2 4 12 12h2v2l8 7 15 13 13 10 18 13 21 13 18 10 15 8 23 10 25 9 24 7 27 6 9 1 7-4 18-12 22-13 27-14 24-11 24-9 21-7 30-8 25-5 27-4 22-2 19-1h24l30 1-1-3-8-7-8-9h-2l-2-4-92-92-5-4-28-11-30-9-28-6-28-4-29-2zm223 231-23 2-26 4-30 7-29 9-27 11-29 14-24 14-24 16-10 8-9 7-14 12-12 10 1 4 14 14 8 7 10 9 14 11 16 12 15 10 20 12 16 9 26 12 26 10 27 8 26 6 28 4 22 2h43l30-3 24-4 25-6 26-8 26-10 22-10 22-12 18-11 19-13 17-13 8-6-3-5h-2v-2l-6-5-7-8-93-93-8-5-26-10-27-8-26-6-27-4-22-2z"/>
<path transform="translate(335,1319)" d="m0 0h57l27 3 27 5 23 6 26 9 23 10 16 8 17 9 21 14 16 12 11 9 13 11 24 24 9 11 13 16 11 16 11 18 10 18 10 21 9 23 8 26 5 20 5 30 2 24v42l-2 25-5 29-8 32-9 26-12 27-11 21-8 13-12 18-16 21-9 10-1 2h-2l-2 4-21 21-11 9-10 9-14 10-15 10-15 9-18 10-19 9-24 9-21 7-30 7-30 5-3 1h-81l-2-2-28-5-28-7-27-9-26-11-25-13-18-11-17-12-13-10-13-11-12-11-17-17-7-8-13-16-12-17-11-17-11-19-13-28-10-27-8-28-6-31-3-15v-79l3-15 6-31 7-25 9-25 10-23 11-21 8-13 12-18 12-16 9-11 12-13 1-2h2l2-4 8-8h2v-2l11-9 11-10 16-12 18-12 17-10 23-12 21-9 16-6 27-8 29-6 22-3zm21 80-26 2-25 4-26 7-20 7-26 12-19 11-16 11-14 11-15 13-13 13-7 8-13 16-10 15-8 13-9 16-9 21-10 30-6 26-3 27-1 15v15l2 24 4 26 7 26 5 15 9 21 13 25 12 18 12 16 9 10 1 2h2l2 4 12 12h2v2l22 18 16 11 15 9 23 12 20 8 26 8 19 4 22 3 10 1h39l25-3 25-5 26-8 24-10 25-13 21-14 12-9 14-12 9-8v-2l4-2 7-8 12-14 13-18 11-18 11-21 10-25 8-28 4-21 3-25v-38l-3-27-5-24-6-20-8-22-12-25-12-20-13-18-11-13-14-15-8-8-11-9-10-8-17-12-21-12-25-12-19-7-21-6-26-5-18-2-18-1z"/>
<path transform="translate(237,1524)" d="m0 0h16l11 4 11 8 88 88 4-1 91-91 8-5 10-3h16l11 4 9 7 6 7 5 11 1 4v15l-4 11-8 11-89 89 7 8 82 82 9 13 3 9v15l-4 12-9 11-9 6-11 4h-15l-11-4-8-6-8-7v-2l-3-1-5-5v-2l-3-1-5-5v-2l-3-1-5-6-7-6-5-6-4-3v-2l-4-2v-2l-3-1-5-6-7-6-7-8-10-9v-2h-2v-2l-4-2-2-2-8 7-83 83-9 6-9 4-4 1h-14l-12-4-9-7-6-7-4-8-3-12 1-10 4-11 6-9 91-91-1-4-4-2-4-5-44-44-7-6-5-6-6-5-6-7-7-6-7-8-4-5-5-10-2-7v-8l3-11 5-10 9-9 12-6z"/>
<path transform="translate(1882,1785)" d="m0 0 12 1 10 4 10 7 124 124 6 9 4 7v26h-2l-4 8-8 9-10 6-12 3h-10l-10-3-10-6-129-129-6-10-3-11 1-13 5-12 7-9 10-7 9-3z"/>
<path transform="translate(1749,1659)" d="m0 0h18l12 5 9 7 6 9 4 10 1 5v8l-3 11-5 9-5 6-11 7-9 3h-16l-9-3-9-6-7-7-6-12-2-9 1-12 4-10 6-9 10-8z"/>
<path transform="translate(742)" d="m0 0"/>
</svg>
