<?xml version="1.0" encoding="UTF-8"?>
<svg version="1.1" viewBox="0 0 2048 2048" width="1280" height="1280" xmlns="http://www.w3.org/2000/svg">
<path transform="translate(505,15)" d="m0 0h16l24 3 21 6 15 6 19 10 13 9 11 9 15 15 9 12 8 13 8 15 11 27 9 30v2l5-5 8-11 10-11 7-8 10-10 11-9 14-10 23-12 21-7 21-4 13-1h18l19 2 22 5 15 6 14 7 14 10 11 10 10 13 8 15 4 12 2 11v24l-3 15-6 18-8 16-8 11-6 7h-2v2l-11 8-16 8-13 4-13 2h-15l-13-1-7 11-13 15-10 9-16 10-15 6-13 3h-16l-17-3-3-1-10 13-2 3 28 13 20 12 20 15v2l4 2v2l9-1 22-5 13-2 12-1h29l24 3 22 6 17 7 16 9 19 12 14 8-5-15-5-23-3-23v-42l3-24 5-24 7-22 7-17 8-15 12-17 15-16 13-12 17-12 21-12 19-9 28-10 27-7 27-5 24-3h18l8 4 5 5 4 6 3 12 3 27 1 15v37l-3 31-5 28-7 26-9 24-7 16-10 18-8 12-1 3h15l26 4 23 6 20 7 16 7 16 8 20 12 16 12 13 11 12 11 13 14 13 17 10 15 10 18 9 20 9 27 5 24 2 18 1 15v19l-3 34-1 6 17-10 38-24 15-9 7-3h11l8 3 7 7 4 9v104l-5 10-7 6-9 3-11-1-7-4-8-9-2-8v-51l-21 13-13 8-40 25-1 26v301l8-6 15-11 16-9 12-6 20-7h4v-105l3-8 4-6 7-5 5-2h11l9 4 8 9 2 6v101h14l24 4 20 6 17 7 17 9 14 10 13 11 12 12 11 15 9 16 1 5 28-7 27-4 15-1h16l22 2 24 5 22 8 19 10 17 12 10 9 8 7 10 11 13 18 8 13 12 23 8 17 10 26 7 25 4 21 2 15v35l-4 25-4 14-1 8 10 8 8 8 7 10 8 16 5 19 2 17v14l-1 10v13l4 14 3 19v42l-2 35-4 29-6 28-9 31-11 30-16 33-15 26-10 15-12 16-8 10-11 13-11 12-20 20-8 7-16 13-19 14-17 11-15 9-29 15-23 10-26 9-24 7-29 6-28 4-25 2h-1604l-8-4-7-7-3-7-1-8v-1330l3-10 6-8 10-5h11l10 4 19 12 9 6-3-15-1-8v-22l3-18 5-16 5-12 7-14-4-8-11-17-10-17-14-26-11-25-10-30-6-27-2-20v-14l2-19 4-17 8-19 10-16 11-13 12-11 14-10 18-10 20-8 17-4 6-1h31l15 3 15 5 16 8 13 8 13 10 5 5h2l8-17 10-13 9-8 10-6 13-4 15-1 18 2 15 4 12 5 13 7 12 9 14 14 9 13 8 15 2 7 5 1 13 7 12 11 2 1 22-11 20-6 19-3 10-1h44l-7-23v-2h-11l-18-5-15-8-12-11-9-10-9-15-6-14-6-21-8-3-15-5-15-8-10-8-11-11-7-11-7-15-4-18-1-18 2-20 5-19 8-17 11-14 10-9 14-9 13-6 17-5zm0 49-15 3-12 5-10 9-4 5-4 8-3 15v19l3 12 6 9 8 7 10 5 12 3 17 2 8 4 5 5 4 9 3 18 5 18 8 15 8 8 8 4 5 1h16l12-1 11 4 7 8 3 10 3 17 3 1 8-19 16-32-2-17-7-34-8-27-8-21-11-21-9-12-12-12-14-10-15-8-21-7-18-3zm331 69-23 2-15 4-15 6-16 10-15 13-6 6v2h-2l-9 11-7 9-10 14-11 17-9 15-13 24-12 24-13 30-4 10v4l12 3 7-1 9-7 8-8 10-14 8-15 5-5 7-4 10-1 10 3 14 7 12 2 10-2 12-7 12-12 9-13 9-16 6-5 7-3h10l18 4 12 1 14-3 10-6 7-8 7-14 4-15v-16l-4-12-8-11-10-8-16-8-13-4-11-2zm322 57-24 8-20 9-20 12-14 11-7 6-7 8-6 8-8 13-7 16-6 21-4 19-2 18v33l3 23 2 3 5-10 8-20 16-34 15-29 14-24 15-24 13-19 14-19 10-13 12-15zm51 19-7 7-9 11-13 16-13 18-14 20-10 16v2l5-1 55-17 3-13 3-25 1-18v-16zm-886 87-7 4-5 9-4 11-3 14v13l10 17 9 16 12 23 12 28 9 24 2 4 17 6 16 8 12 7 6 5h2l4-26 6-36 6-24 4-11-1-7-5-7-8-5-12-1-10-5-5-8-8-24-7-11-7-8-14-9-15-5zm-166 10-15 4-2 1 2 5 14 27 12 22 17 32 13 24 12 22 18 34 12 22 15 28 8 14 7 14 12 22 14 26 7 12 3 1 12-39 18-56 4-13-1-4-10-3-8-5-5-10-10-28-11-26-9-19-12-22-9-15-12-17-14-17-10-10-14-11-14-8-12-5-10-2zm1025 32-49 15-25 8-12 25-13 32-6 16 6-2 21-11 22-13 14-12 6-5v-2h2v-2h2l7-8 13-17 8-13 5-9zm-1086 2-9 16-3 7-3 16-1 8v10l4 27 6 21 10 25 10 21 10 18 13 21 12 17 6 8 3 8v10l-5 10-9 14-6 12-4 13-2 11v16l4 16 8 17 10 13 11 12 12 10 4 1 22-14 26-16 19-12 24-15 3-2-2-5-15-28-12-22-9-16-7-14-12-22-14-26-17-32-10-18-18-34-10-18-18-34-12-22-13-24-3-4zm438 31-16 2-16 5-10 6-7 6-7 11-6 15-3 13 43 1 34 2 27 3 14 3 8 4 6 8 1 3v13l-6 12-8 5-3 1h-9l-23-3-25-2-24-1h-42l-1 1-5 45-2 28v10l43 2 31 3 27 4 12 4 6 5 4 10v9l-3 8-6 8-9 4-15-1-28-4-38-3h-27l-1 4-2 42-1 32v15l5-2 24-15 19-12 24-15 14-7h11l10 4 19 12 40 25 4 3h2l-1-13-2-27v-17l2-25 3-18 6-24 7-20 12-25 10-17 10-14 14-17 11-12 12-11 10-8 18-13 20-12-1-3-20-11-20-9-21-8-31-9-27-6-32-5-24-2zm663 70-21 2-16 4-13 5-23 13-27 14-1 2 25 6 22 3 9 4 7 8 3 10-2 10-4 7-6 5-8 3h-14l-23-4-24-6-33-11-35-15-24-12-19-10-16-9-20-14-15-7-13-4-16-3h-38l-19 3-23 6-18 7-21 10-16 10-12 9-11 9-20 20-12 16-10 16-11 23-7 21-4 17-3 26v30l3 26 5 26 2 1 20-12 19-12 48-30 14-8 7-3h10l10 4 24 15 21 13 24 15 26 16 15 9 9-5 19-12 21-13 24-15 19-12 18-11 9-4h11l9 4 20 12 19 12 21 13 48 30 3 1 18-11 24-15 21-13 24-15 19-12 10-5 3-1h10l10 4 24 15 21 13 48 30 5 2 5-25 3-25v-35l-3-24-6-24-8-21-12-23-12-17-13-15-12-12-14-11-13-9-17-10-19-9-16-6-23-6-18-3zm-813 87-18 57-16 51-10 30-3 11 9 6 21 13 24 15 7 4 2-62 4-79 1-14v-11l-6-8-9-9-3-4zm-95 177-28 17-19 12-24 15-26 16-14 9-11 4-9-1-15-8-22-14-24-15-21-13-10-6-2 1v1260l1193 1v-3l-22-13-22-15-13-10-11-9-10-9-8-7-19-19-9-11-11-13-13-18-10-15-10-17-12-23-10-22-10-27-8-28-6-29-3-21-1-21 2-18 4-15 5-12 2-6-10-11-10-15-10-19-9-25-5-21-3-19-1-11v-29l3-24 5-21 5-15 11-23 9-14 11-14 16-16 18-13 15-9 16-7 8-4 2-25 4-22 7-24 10-24 9-16 8-12 9-12 12-13 9-9 17-13 16-10 17-8 12-5v-379l-12 7-19 12-18 11-24 15-15 9-11 4-10-2-13-7-22-14-26-16-19-12-23-14-13-8-14 8-19 12-42 26-19 12-20 12-11 3-9-2-16-9-17-11-21-13-19-12-23-14-19-12-10 5-14 9-24 15-21 13-19 12-23 14-12 5-9-1-12-6-17-11-21-13-19-12-26-16-21-13-3-1-24 15-21 13-48 30-15 9-8 4-9 2-10-3-20-12-19-12-24-15-42-26zm1023 16v368l28 2 22 5 19 7 7 2-1-338-15-10-23-14-19-12-16-10zm232 377-14 2-18 5-17 8-11 7-13 10-11 10-7 8 2 4 20 20 7 8 11 13 9 12 16-1h35l30 3 27 5 22 6 25 9 22 10 24 14 18 13 11 10 8 7 11 12 9 12 2 1 19 3 12 4 17 9 12 9 10 9 9 10 11 16 10 19 8 21 7 24 6 32 3 29 7 8 6 8 5 12 22-8 20-4h30l-3-11-4-9-7-8-10-6-13-4-6-4-5-8-1-4v-10l8-16 6-15 4-17 1-8v-29l-2-16-6-25-7-21-9-20-8-16-8-15-10-14-9-10-5-5-11-10-18-11-17-7-21-5-6-1-21-1-27 2-24 5-36 12h-10l-8-4h-2v-2h-2l-2-4-4-12-4-15-6-12-9-12-11-11-14-10-14-8-19-7-17-4-7-1zm-230 40-19 2-17 5-16 7-14 8-13 10-10 9-7 7-10 13-9 15-7 15-7 23-3 16-2 19v26l-3 9-3 4v2l-4 2-28 10-16 8-14 9-11 9v2l-4 2-11 14-9 15-6 14-4 13-4 21v40l4 23 6 20 7 16 9 14 10 11h7l10-3 4-6 5-10 10-13 10-9 14-8-1-8-4-19-1-9v-34l4-24 5-18 8-20 8-16 11-18 11-14 4-5v-2h2l7-8 7-7 14-11 14-9 14-7 15-5 15-2 16 1 15 3 13-12 16-13 17-12 15-9 22-12 25-10 17-6-4-6-7-7-2-3h-2l-2-4-15-14-12-10-16-11-16-9-19-8-21-5zm208 114-29 3-27 6-21 7-25 11-16 9-15 10-12 9-9 7v2l-4 2-3 3 2 4 8 17 7 23 3 17 3 2 19 1 19 3 17 5 17 7 18 11 11 9 14 14 11 15 9 16 8 17 5 15 3 1 8-4 1-36 3-21 6-23 8-18 10-17 14-15 10-9 14-9 14-7 15-5 18-4 19-2 23-1 9-6v-4l-4-5-8-7-16-12-15-9-16-8-19-8-22-7-23-5-22-3-12-1zm-234 83-13 5-11 7-10 8-6 5-7 8-11 14-11 18-7 15-5 14-4 15-2 16v21l3 19 4 12 21 5 16 7 11 7 11 9 4 4 7-1 17-4 7-1h33l17 3 17 5 18 8 13 8 11 8 13 12 9 10 10 14 7 12 4 9 2-3 5-26 9-27 8-16 10-16 3-4-1-9-5-18-7-17-8-15-8-11-12-12-14-9-14-6-16-4-8-1h-26l-7 1h-13l-8-4-6-7-3-7-2-28-4-20-5-13-6-10-8-7-7-3zm462 20-12 4-11 7-3 2v2l-5 2-7 3-37 1-19 3-15 5-13 7-10 8-9 10-9 17-5 17-3 20v27l2 14v9l-4 10-4 5-8 4-16 6-12 7-13 11-9 10-9 15-7 16-5 17-3 16-1 12v32l2 20 2 5 11 9 15 14 7 8 16 20 4-2 10-8 12-9 13-9 3-23 5-23 5-16 8-19 9-15 10-13 9-9 15-11 16-8 16-5 10-2 25-2 7-10 12-16 14-14 14-10 19-10 17-5 10-2 19-2-1-24-4-28-6-25-6-18-9-19-8-12-11-12-10-7-10-5-7-2zm200 200-16 4-18 8-10 4h-9l-15-5-16-6-14-3-8-1h-13l-16 3-12 5-11 8-10 9-10 13-13 24-6 5-7 3h-12l-17-1-15 2-11 4-12 7-7 6-9 12-8 16-6 18v3l9-2 22-7 26-5 16-2 15-1h16l25 2 18 3 21 5 16 5 4-1 10-13 10-9 14-9 11-5 15-4 7-1 4-5 8-13 9-11 8-7 10-7 15-7 14-4 10-2 1-1-1-13-4-13-4-6-5-4-3-1zm-755 6-12 3-10 6-7 7-4 10-3 14-6 8-6 4-12 2-15 2-10 5-7 8-4 11v5l13 3 16 8 4-2 11-7 17-7 18-4 8-1h29l20 4 15 6 14 7 17 12 15 14 7 7 2 3 5-1 28-12 25-7 16-3 9-1 28-1-1-6-5-12-8-15-10-13-10-10-10-7-15-8-16-5-11-2h-22l-16 3-19 9-4 1h-8l-8-3-5-4-11-14-9-8-10-6-12-3zm785 82-11 4-8 6-8 9-6 13-5 12-1 3h-2v2l-10 4-8 1h-9l-12 2-12 6-9 9-6 10-7 13-5 5-9 4h-10l-23-9-24-7-13-3-17-2h-40l-21 3-24 6-19 7-21 10-18 11-14 10-14 11-15 14-11 11-9 11-10 12-10 14-11 17-9 16-11 21-9 21-7 18-8 26-4 14v4h160l23-2 30-5 28-7 24-8 24-10 16-8 19-10 17-11 17-12 16-13 10-9 2-1v-2l4-2 16-16 7-8 11-13 9-12 11-16 8-13 10-18 8-16 10-24 8-24 6-23 5-27 3-24v-5zm-790 41-15 3-9 4-9 6-5 8-4 8-5 4-11 4-11-2-6-4-7-8-3-5-1 3 8 30 10 27 11 24 10 19 14 22 14 19 11 13 11 12 20 20 11 9 15 12 24 16 25 14 23 11 26 10 27 8 29 6 29 4h7l4-13 8-29 11-32 11-26 8-17 11-20 13-21 12-17 10-13 4-5-2-6-11-15-9-10-4-5h-2l-1-3-11-9-9-7-14-8-16-7-16-4-8-1h-27l-22 4-21 7-21 10-15 9-6 3h-13l-8-4-6-7-10-14-11-12-13-11-14-8-15-5-5-1z"/>
<path transform="translate(892,1076)" d="m0 0 10 1 10 6 9 14 13 29 12 34 8 30 6 30 3 23 2 25v47l-3 34-4 24-7 31-9 27-9 21-9 17-9 14-13 17-9 10-7 8-12 11-11 9-17 12-18 11-21 11-27 11-29 9-25 6-30 5-29 3-26 1-10-2-30-11-27-12-24-12-22-13-19-13-16-12-14-12-13-12-14-14-9-11-11-13-13-19-10-16-10-18-10-22-10-27-8-30-5-27-3-25-1-13v-45l3-29 3-13 5-8 5-4 10-4 25-5 38-5 24-2h63l33 3 30 5 22 5 25 8 25 10 18 9h5l20-12 27-14 19-10 24-13 22-13 22-14 17-12 11-9 14-12 9-9 6-3zm-44 93-25 15-21 12-22 12-21 11-16 8-19 11-15 10-16 12-21 18v2l-4 2-7 8-8 9-10 14-8 13-8 17-7 21-4 18-1 9v41l4 27 7 28 10 29 9 21 4-2 10-13 13-16 10-14 11-15 14-20 12-18 14-22 9-15 15-26 12-22 12-23 14-28 13-28 15-35 17-44 7-20 2-7zm50 8-3 9-16 45-17 42-12 27-7 16-26 52-12 22-9 16-3 5v2l13-2 25-5 28-7 21-6 22-8 4-4 5-24 4-32 1-19v-28l-2-28-4-28-5-24-6-21zm-413 30-41 3 4 5 8 7 14 12 12 11 11 9 14 12 11 9 10 8h1v-76zm93 6 1 111 4-1 8-16 10-18 10-14 10-13 12-13 16-16-10-5-24-8-25-6zm-167 34v23l3 29 4 24 6 24 9 26 9 20 8 16 13 21 13 17 9 11 13 14h2l1 3 8 7 14 12 15 11 15 10 17 10 19 10h2l-3-10-9-27-6-24-5-30-1-8v-46l1-16-11-8-14-10-21-16-16-13-14-11-11-9-15-13-11-9-11-10-11-9-15-14zm467 197-36 9-31 6-27 4-24 3-3 3-16 24-10 14-13 18-13 16-8 11 4 1 28-6 25-7 26-10 23-11 16-10 14-10 14-12 14-14 7-9 10-14 3-6z"/>
<path transform="translate(2e3 1073)" d="m0 0 9 2 8 5 6 8 2 5v10l-4 9-5 5-8 5-35 12-9 2-9-1-10-6-5-7-2-6v-10l4-9 7-7 18-7 28-9z"/>
<path transform="translate(1916,982)" d="m0 0h7l9 3 6 4 6 9 1 4v9l-5 13-14 28-6 8-5 4-7 3h-11l-10-5-7-9-2-8 1-9 7-16 12-24 6-8 8-5z"/>
<path transform="translate(1793,975)" d="m0 0h14l8 4 7 8 4 9 12 36v11l-3 6-6 7-9 4-5 1h-7l-8-3-5-4-7-14-12-36v-10l4-9 7-7z"/>
<path transform="translate(1531,837)" d="m0 0h10l10 4 7 7 3 7v13l-5 9-7 6-9 3-11-1-7-4-7-8-3-8v-7l3-8 4-6 7-5z"/>
<path transform="translate(1980,1644)" d="m0 0"/>
<path transform="translate(412,1249)" d="m0 0"/>
</svg>
