<?xml version="1.0" encoding="UTF-8"?>
<svg version="1.1" viewBox="0 0 2048 2048" width="1280" height="1280" xmlns="http://www.w3.org/2000/svg">
<path transform="translate(1776,602)" d="m0 0h18l17 2 17 4 21 8 16 9 12 9 11 9 7 8 9 10 10 15 8 16 6 15 5 20 2 15 1 26 4 11 6 7 23 12 14 9 13 10 17 17 12 17 7 12 8 19 5 17 3 14v36l-7 27-8 20-8 15-10 14-11 12-10 10-17 12-21 11-18 6-19 4-8 1h-28l-19-3-18-5-18-8-14-8-13-9-8-4-9-1-10 3-16 9-20 13-9 6-1 1-4 25-5 21-7 21 5 2 18 12 12 9 13 10 14 12 10 9 22 22 9 11 13 16 12 18 12 20 8 16 8 17 8 21 9 31 6 29 4 30 2 31v36l-3 32-5 27-7 25-6 18h55l19 2 19 5 19 9 13 9 10 9 9 9 10 14 8 16 6 16 4 18v27l-5 21-7 18-6 11-10 14-15 15-11 8-16 9-16 6-20 4-30 2-5 11-11 28-11 24-10 18-10 15-9 12-11 13-12 13h-2l-1 3-8 7-11 9-15 11-20 12-16 8-21 9-21 7-32 7-19 3h-1286l-39-7-25-7-21-8-25-12-19-12-19-14-12-11-8-7-8-8-9-11-10-12-12-18-12-21-12-27-14-35-24-1-20-3-18-6-16-8-14-10-8-7-7-8-10-13-9-17-8-24-2-9v-33l6-22 8-18 4-6-1-7-8-21-6-23-3-15v-36l6-25 6-16 7-13 8-11 9-10 9-8 14-9 13-6 17-5 14-2 17-1 6-3 3-7 2-26 4-24 2-7-1-10-3-26-1-13v-33l3-31 5-28 8-32 11-32 13-30 10-19 5-5 5-4 8-3h14l7 2 12-19 11-16 12-16 8-10 2-2-1-4-5-7-3-10v-7l4-11 8-10 7-7 7-8 19-19 8-7 13-12 11-9 14-12 14-11 20-15 19-13 21-14 21-13 17-10 27-15 29-15 20-9 15-7 31-13 29-11 44-15 42-12 36-9 45-9 45-7 43-5 44-3 25-1h69l53 3 41 4 44 6 44 8 40 9 37 10 32 10 25 9 28 11 33 15 26 13 23 13 22 14 20 14 3 2 10-1 20-3 24-1 24 2 20 4 18 5 4 2h5l9-6 11-7 18-12 6-8 3-8v-10l-9-29-4-21v-31l4-22 7-21 8-16 10-16 8-9 7-8 11-10 11-8 17-10 18-8 18-5 12-2z" fill="#010101"/>
<path transform="translate(926,782)" d="m0 0h93l45 3 46 5 44 7 35 7 37 9 34 10 27 9 29 11 21 9 22 10 19 10 27 15 2 1-1 3-29 12-39 15-38 13-36 10-35 9-9 5-6 7-4 10v11l4 11 6 7 12 6h13l30-7 42-12 37-12 24-9 28-11 53-23 20-8 13-4 16-3 11-1h10l18 2 17 4 12 4 16 8 12 7 13 10 10 9 10 11 11 16 9 17 6 19 4 19 1 13v10l-2 19-5 19-8 20-8 14-9 12-11 12-10 10-11 9-11 10-11 9-14 13-8 7-11 11-8 7-8 8-7 8-11 11-19 1-17 4-11 5-12 7-10 8-13 13-11 15-10 17-7 16-8 21-5 5-6 1-24-5-9-1h-28l-10-9-15-10-18-10-19-8-22-6-17-3-14-1h-15l-18 2-25 6-17 6-5 1-9-19-11-18-8-11-9-11-13-13-13-10-15-9-16-7-19-5-7-1h-36l1-12 5-25 8-26 10-23 13-23 8-11 10-13 9-10 18-18 13-10 16-11 14-8 19-10 9-8 5-11v-12l-4-10-6-7-9-5-12-2-9 2-25 12-21 13-19 14-10 9-8 7-10 9-4 5h-2l-2 4-8 9-11 14-12 18-12 21-12 25-10 28-6 24-4 23-2 18-1 28-1 8-7 7-13 17-8 13-8 16-8 20-6 20-6 26-4 9-6 7-10 5-11 1-5-4-7-11-8-10-9-10-12-10-15-10-16-8-12-5-21-6-20-4-21-3-11-4-8-8-4-10v-16l5-10 9-13 10-15 13-23 13-27 6-17 3-13v-20l-4-18-6-14-7-11-10-12-13-10-15-8-16-5-15-2-17 1-19 5-27 10-27 11-32 14-29 14-22 11-22 12-28 17-22 14-18 13-15 11-15 12-11 9-10 9-8 7-29 29-7 8-14 17-9-1-8-1h-18l-17 4-10 4-3-1 2-24 6-36 9-32 8-22 9-21 8-17 2-7v-10l-7-14-8-7 6-11 15-22 8-11 9-12 8-10 12 6 5 1h9l10-4 12-11 11-11 7-8 13-12 7-7 8-7 10-9 14-11 16-13 19-14 23-16 22-14 25-15 28-15 21-11 28-13 28-12 28-11 37-13 36-11 56-14 41-8 39-6 35-4 38-3z" fill="#A9612E"/>
<path transform="translate(113,1656)" d="m0 0h1819l12 2 10 4 11 7 6 5 8 11 6 12 3 13v14l-3 13-7 13-9 11-11 8-8 4-16 4-423 1-9 4-7 6-5 10-1 4v10l4 10 4 6 10 6 7 2 333 1-3 9-11 25-8 15-8 12-9 12-9 10-7 8-13 12-13 10-21 13-19 9-23 8-23 5-14 2-19 1h-1237l-28-1-21-3-20-5-21-8-21-10-18-12-13-10-13-12-8-8-9-11-11-15-12-21-11-25-3-7v-3l1180-1 10-3 6-4 6-7 4-11v-8l-3-9-5-8-9-6-8-2-1267-1-15-3-15-8-11-10-9-14-4-11-1-5v-18l4-15 8-13 9-10 11-7 11-5z" fill="#D8F3FD"/>
<path transform="translate(113,1656)" d="m0 0h1819l12 2 10 4 11 7 6 5 8 11 6 12 3 13v14l-3 13-7 13-9 11-11 8-8 4-16 4-423 1-9 4-7 6-4 7h-3l-3 3-4 8-15 1-29-1h-16l-10-3-2-2-2 2-3-9-5-8-9-6-8-2-1267-1-15-3-15-8-11-10-9-14-4-11-1-5v-18l4-15 8-13 9-10 11-7 11-5z" fill="#C0E8FD"/>
<path transform="translate(1519,917)" d="m0 0h10l18 2 17 4 12 4 16 8 12 7 13 10 10 9 10 11 11 16 9 17 6 19 4 19 1 13v10l-2 19-5 19-8 20-8 14-9 12-11 12-10 10-11 9-11 10-11 9-14 13-8 7-11 11-8 7-8 8-7 8-11 11-19 1-17 4-11 5-12 7-10 8-13 13-11 15-10 17-7 16-8 21-5 5-6 1-24-5-9-1h-28l-10-9-15-10-18-10-19-8-22-6-17-3-14-1h-15l-18 2-25 6-17 6-5 1-9-19-11-18-8-11-9-11-13-13-13-10-15-9-16-7-19-5-7-1h-36l1-12 5-25 8-26 10-23 13-23 8-11 10-13 9-10 18-18 13-10 16-11 14-8 19-10 9-8 5-11v-14h2l2-5 8-3 23-4 13-2 20-4h7l1 1 2-3 4 11 6 7 12 6h13l30-7 42-12 37-12 24-9 28-11 53-23 20-8 13-4 16-3z" fill="#A9612E"/>
<path transform="translate(926,782)" d="m0 0h93l45 3 46 5 44 7 35 7 37 9 34 10 27 9 29 11 21 9 22 10 19 10 27 15 2 1-1 3-29 12-39 15-38 13-36 10-35 9-9 5-6 7-4 10-1 15-2-1h-10l-12 3-9 2-20 3-12 2-8 3-2 5-4-4-3-6-5-6-9-5-12-2-9 2-25 12-21 13-19 14-10 9-8 7-10 9-4 5h-2l-2 4-8 9-11 14-12 18-12 21-12 25-10 28-6 24-4 23-2 18-1 28-1 8-7 7-13 17-8 13-8 16-8 20-6 20-6 26-4 9-6 7-3 2h-8l-1-13-3-3-4-11-7-24-5-18-5-17-5-23-4-26-3-22-1-14-1-34v-47l2-26 1-14 5-29 4-20 3-13 2-6 3-11 8-24 7-19 7-16 3-7 7-16 10-21 8-14 6-12 5-8h2l1-5 9-15h2l2-5 11-16 9-13 3-7 2-4h2l2-4 8-9 5-7h2l2-4 11-13 9-11v-1l-8 4-15-3h-17l-6 2-26 1-5-1-8 1h-11v2l-13 2h-11l-15 3-2 1v-2l-10 2h-6v2l-13 1-13 3-12 2-12 3-10 1-1 2-2-1-13 4-9 2-8 3-10 2-6 2-7 1-6 3h-7l-1 2-9 3-7 3-7 1-8 4-4-1v2l-5 2-9 3-1 2h-5l-7 4-8 3-10 4-8 3-2 2-16 6-12 5-7 2v2l-9 4-16 8-5 2-5 3-6 3-9 4-4 2-3 1-3 3-10 5-4 3-7 2v2l-7 4-5 2-1 2-2-1v2l-7 5h-2l-1 2h-2l-3 3h-2l-1 2-3 1-1 2-5 3h-2l-1 2-3 1-1 2h-2l-1 2-3 1-4 4-5 1 6-8 18-13 24-16 19-12 21-12 24-13 21-11 28-13 28-12 28-11 37-13 36-11 56-14 41-8 39-6 35-4 38-3z" fill="#BE6D33"/>
<path transform="translate(113,1656)" d="m0 0h1819v1l-61 1h-840l-92 1-17 1-8 2-3 1 3 2v3h2l-1 7-3 5-6 16-5 15-3 15-4 14-2 8-1 2v9l-2 5-9 5-9 1-5 1-3-1 1 4 7 1 509 1v1h-1265l-15-3-15-8-11-10-9-14-4-11-1-5v-18l4-15 8-13 9-10 11-7 11-5z" fill="#A8E2FB"/>
<path transform="translate(701)" d="m0 0h28l21 5 19 7 16 9 13 10 9 8 9 11 8 11 9 17 7 21 3 19v21l-3 20-5 19-7 19-8 16-14 24-8 17-5 16-2 9-1 9v28l4 20 5 15 8 16 14 24 8 19 4 15 2 10 1 10v18l-2 19-5 19-7 17-7 13-8 12-9 11-14 14-17 12-12 7-20 8-20 5-13 2h-20l-13-4-11-8-8-11-4-10-1-5v-10l4-14 7-18 4-16 2-15v-18l-3-20-5-17-7-16-17-29-8-17-8-24-4-19-2-17v-26l3-22 5-21 7-19 8-16 18-32 7-17 4-16 2-14v-21l-3-19-5-19-1-6v-13l3-13 6-12 8-10 9-8 16-8z" fill="#010101"/>
<path transform="translate(1e3)" d="m0 0h27l24 6 16 6 16 9 13 10 9 8 9 11 8 11 8 15 6 16 4 18 1 9v18l-3 21-5 20-7 19-8 16-14 24-7 14-5 15-4 20v31l5 23 6 16 8 15 9 15 8 16 6 19 3 15 1 9v23l-4 22-5 16-7 16-9 15-8 11-9 10-10 10-15 11-12 7-19 8-18 5-18 3h-20l-13-4-10-7-6-7-6-12-2-8v-9l3-12 8-21 5-22 1-10v-15l-3-22-6-20-8-16-16-28-8-18-7-21-5-26-1-9v-27l3-22 5-21 7-19 8-17 12-20 9-17 6-18 3-14 1-9v-20l-3-20-5-19-1-6v-13l3-13 6-12 7-9 7-7 14-8z" fill="#010101"/>
<path transform="translate(1297)" d="m0 0h28l25 6 15 6 15 8 13 10 10 9 9 10 10 15 8 16 6 18 3 16v29l-5 26-8 24-11 23-15 25-8 19-5 21-1 9v22l3 19 5 16 7 16 14 24 9 19 5 17 3 18v27l-2 15-6 22-9 20-11 17-9 11-9 10-11 9-15 10-16 8-16 6-17 4-13 2h-20l-10-3-10-6-8-8-7-14-1-3v-18l11-30 4-18 1-9v-24l-3-18-7-21-8-16-13-22-9-19-7-21-4-18-2-14-1-14v-10l2-22 4-20 6-20 8-18 10-18 10-17 7-16 4-13 3-18v-28l-4-20-4-16-1-13 3-16 7-14 10-12 10-7 10-5z" fill="#010101"/>
<path transform="translate(1381,1836)" d="m0 0h5l-3 2-65 1-654 2h-144l-54 1-20 1-3 1 17 1 368 1 30 2 10 2 5 4 5 1 2 6 3 3 9 36 3 13 7 28 3 11 2 3 2 9 6 5 2 5-3 6 4 1v2l7 1v1l48 1v1l-563 1-28-1-21-3-20-5-21-8-21-10-18-12-13-10-13-12-8-8-9-11-11-15-12-21-11-25-3-7v-3z" fill="#C0E9FE"/>
<path transform="translate(1504,1325)" d="m0 0h12l12 5 10 9 8 11 8 18 7 25 5 15 7 12 10 11 11 7 10 5 13 4 6 1h15l15-2h15l11 3 10 5 10 9 7 10 6 14 3 11 1 7v31l-3 17-6 20-9 21-3 2h-385l-5-8-5-11-6-17-4-16-2-12-1-12v-13l2-18 4-15 5-12 8-12 9-9 12-7 10-3h17l25 6h16l16-4 16-8 6-4 10-10 8-14 5-12 7-19 8-15 8-10 8-8 8-5z" fill="#00C25B"/>
<path transform="translate(1773,662)" d="m0 0h22l8 2 7 2 15 6 13 8 12 11 8 9 2 3v3h2l1 5h2l2 8h2l3 12 1 11h2l1 34 4 17 4 9 3 6v2h2l2 6h2l7 9 8 7v2l5 2 11 7 16 8 11 7 10 9 7 7 1 4h2l5 8 6 12 2 5 3 18v22l-2 13-6 14-6 11-12 15-11 9-16 9-18 6-5 1h-29l-13-3v-2l-5-1-10-4-26-17-5-3-18-6-4-1h-28l-17 4-16 8-15 9-4 2-6-17-5-12-11-21-7-11-9-12-9-10-7-8-10-9 1-3 11-7 11-9 7-7 10-15 4-8 2-5 2-7 2-10v-26l-5-19-4-9-4-22v-20l2-9 3-8 5-12 6-10 9-11 11-10 17-10 15-5 10-2z" fill="#FCF09A"/>
<path transform="translate(622,1136)" d="m0 0h9l12 6 5 4 6 10 1 3v13l-8 20-12 23-14 22-14 21-6 13-4 14-1 5v26l6 21 9 17 9 11 11 10 15 9 14 5 21 4 20 3 16 4 15 6 13 7 1 2-21 9-15 9-12 9-12 11-7 9-9-3-22-7-25-5-9-1h-27l-24 4-21 6-9 3-12-25-11-17-12-14-11-10-15-10-17-8-13-4-12-2h-24l-15 3-18 6-13 6-9 1-5-3-6-9-10-16-9-12-9-10-2-2 1-5 7-7 7-8 9-10 11-11h2v-2l8-7 10-9 9-7 14-11 18-13 16-11 14-9 15-9 13-8 11-6 33-17 27-13 30-13 30-12 22-8z" fill="#995423"/>
<path transform="translate(227,1358)" d="m0 0h12l11 4 10 6 10 9 10 12 16 26 8 10 10 8 14 7 15 4 15 1 17-3 13-5 17-7 9-2h11l13 4 10 6 10 9 8 10 8 15 6 17-1 5-5 5-10 11-13 18-10 17-7 16-6 18-4 16-261 1-53 1-18 3-21 7-5-1-4-17-2-16v-12l3-16 5-12 6-9 8-8 14-7 14-3 21-2 15-4 15-8 12-11 8-13 5-11 3-12 1-7 1-25 4-20 6-14 7-9 9-8z" fill="#00B23A"/>
<path transform="translate(989,1295)" d="m0 0h17l13 4 12 6 10 8 10 10 9 12 10 17 9 20v5l-10 10-11 14-10 16-8 16-7 18-5 19-3 21v31l4 24 5 18 9 22 4 7-1 3h-264l-3-6-7-24-8-19-10-18-11-15-9-11-6-7 12-11 13-8 13-5 16-3h16l21 3h16l17-3 13-5 13-7 9-7 5-4 11-15 8-17 4-15 7-29 7-19 11-21 9-11 6-7 14-10 12-5z" fill="#00C25B"/>
<path transform="translate(1679,1192)" d="m0 0 9 5 20 14 14 11 14 12 12 11 10 10 7 8 14 17 12 18 10 17 11 23 9 25 6 22 5 24 3 22 2 27v34l-2 23-5 25-6 21-9 22-6 12-1 1h-44l-1-2 5-15 5-21 3-18v-37l-4-22-5-17-8-18-9-14-8-10-10-10-10-7-14-8-15-6-19-4-18-1-22 3h-7l-7-6-3-10-7-24-9-21-11-18-11-13-5-5 1-4 10-9 19-19 8-7 11-10 11-9 11-10 11-9 7-7 8-7z" fill="#BE6D33"/>
<path transform="translate(1192,1385)" d="m0 0h23l13 2 15 4 17 7 7 4-2 5-8 9-8 13-8 16-6 16-5 22-2 14v36l3 20 5 21 6 18v4h-118l-10-10-10-13-9-16-6-16-4-17-1-7v-23l3-17 5-16 8-16 7-11 8-10 10-10 17-12 15-8 15-5z" fill="#F65948"/>
<path transform="translate(713,60)" d="m0 0h8l15 3 16 8 10 8 9 10 8 15 4 14v21l-5 21-5 13-8 16-9 15-10 19-7 18-7 28-2 20v27l3 22 5 20 7 19 8 16 9 16 8 15 5 17 1 7v16l-3 16-5 12-6 11-12 15-14 11-16 8-5 1 1-9 4-20 1-8 1-22-2-25-6-28-9-24-11-21-8-13-8-16-4-10-5-21-1-9v-23l3-18 5-16 8-18 11-18 11-21 7-19 5-18 3-19 1-10v-21l-3-26-4-18z" fill="#C0E8FD"/>
<path transform="translate(1310,60)" d="m0 0 14 1 16 5 11 7 10 9 7 8 8 16 3 11 1 11-2 18-4 15-7 18-21 36-8 19-6 19-4 18-2 23v18l3 25 5 20 7 19 8 17 14 24 6 14 3 15v20l-3 15-5 12-7 12-11 13-12 10-17 9-6 1 2-11 3-16 2-17v-23l-2-19-5-23-6-18-11-24-13-21-9-19-5-18-3-19v-19l3-18 5-18 10-21 5-7 6-11 8-15 6-14 8-28 3-23v-29l-3-24-4-17z" fill="#D7F3FD"/>
<path transform="translate(1012,60)" d="m0 0 13 1 14 4 11 6 10 8 9 10 8 16 3 9 1 5v17l-3 17-6 18-8 16-13 22-10 21-7 21-4 19-2 14v35l4 25 8 26 8 18 12 21 8 15 5 17 1 6v17l-3 15-5 13-8 14-8 10-8 7-10 7-16 8h-3l1-8 5-29v-37l-3-21-6-23-10-24-11-20-8-13-7-15-6-21-2-12v-27l3-17 5-17 8-17 9-14 6-11 10-21 7-22 5-25 1-13v-20l-3-25-4-18z" fill="#D7F3FD"/>
<path transform="translate(858,1467)" d="m0 0h2l4 7 5 11 8 16 10 19 9 16 12 20 6 11 8 11 5 8 4 7 115 2v1h-264l-3-6-7-24-8-19-10-18-11-15-9-11-6-7 12-11 13-8 13-5 16-3h16l21 3h16l17-3z" fill="#00B23A"/>
<path transform="translate(588,1506)" d="m0 0h27l20 4 16 6 12 6 16 11 17 17 12 18 8 17 3 10-2 1h-231l-1-2 8-20 8-14 8-11 10-11 14-11 17-10 18-7z" fill="#E84230"/>
<path transform="translate(1231,1658)" d="m0 0h487l20 1 15 1 25 1h17l3 3-19 1-43 1-13 1-59 1-66 1-113-1h-86l-78 1h-48l-39-2-3-1v-2l-2 2h-8-3l-4-1v-1l-7-1v-1l25-1 2-1z" fill="#C4F0FE"/>
<path transform="translate(897,1726)" d="m0 0 2 1-2 10-1 7h-2l1 4h-2v8l2 4v2l3-1v3l4-1 1 4-4 2v2l10-1 6-1 5-1h21l29-1h330l46 1 28 1 4 2 7 1 5 6h-8l-2-1-509-1-20-1v-1l11-1 1-3h7l1-1 10-1 6-4h2l1-7v-7l2-4 4-17z" fill="#C4F0FE"/>
<path transform="translate(557,1838)" d="m0 0h647v1l-540 2h-144l-54 1-20 1-3 1 17 1 368 1 30 2 10 2 3 4-6-2-11-1-17-1-391-1-63-2-64-1-2-3 1-1 30-1h45l-4-2z" fill="#C4EFFE"/>
<path transform="translate(1642,1767)" d="m0 0h168l47 1 29 2v3l-19 1v1l-94 1h-262v2l-9 4-7 6-4 7h-3l-3 3-4 8-4-1 9-17 9-10 6-4 13-4 14-2 5 1h11l5-1 5 1 17-1z" fill="#C4F0FE"/>
<path transform="translate(1943,1660)" d="m0 0 9 1 12 7 7 6 8 11 6 12 3 13v14l-3 13-7 13-9 11-11 8-6 3h-5l2-6 8-7 6-8 4-8 3-5-1-4 1-6 1-2-3-10-12-11-5-13-5-6v-6h4l-4-4-1-5 1-3-4-4 2-2z" fill="#C4F0FE"/>
<path transform="translate(1031,1657)" d="m0 0h80l27 1 16 2 1 5h-21l-5 1-55 2-6-1-6 1h-18l-5-1-5 1v-2l-6 2h-12l-1-1-40-1-12-1v-4l10-1-43 1-3 1-1 5-4 4h-2l-1 5-3 3-4 9-8 24-4 13-2 1 2-15 7-20 6-15 2-3 1-5h-2v-3l-4-2 6-3 8-1 23-1z" fill="#C4F0FE"/>
<path transform="translate(1381,1836)" d="m0 0h5l-3 2-65 1h-761l-173 1h-180l-1 4-2-4v-3z" fill="#A8E2FB"/>
<path transform="translate(204,1839)" d="m0 0 5 1-2 3 7-1h1v11l4 4 10 18 10 19 12 14 4 6 2 1v2l4 2 12 12 11 9 12 9 9 7 8 5 6 1v2l8 1 5 4 7 3 2 4 3 1v1l-9-1-24-10-17-9-17-12-10-8-12-11-8-8-9-11-11-15-12-21-11-25-1-7z" fill="#C2EFFE"/>
<path transform="translate(713,60)" d="m0 0h8l15 3 16 8 10 8 9 10 7 13 2 13v19l-2 2v-18l-3 5-1 6-4-4-6-15-7-11h2l-4-6-11-11-3-6-6-2-8-1-1-4-7 2h-3z" fill="#C3EFFE"/>
<path transform="translate(740,384)" d="m0 0 9 2 10 18 8 14 5 12 1 10v9l-2 7-1 2-4-2-1-7h-2l-1-8-9-21-10-19-3-11-1-5z" fill="#C3F0FE"/>
<path transform="translate(676,334)" d="m0 0h2l2 4v8h2v2h2l9 19 4 3 4 7 5 11 4 4 9 19 3 10 2 7v9l-3 9-2-3-1-9h-2l-5-17-9-21-8-15-8-13-8-16-4-10v-6z" fill="#C1EEFE"/>
<path transform="translate(764,487)" d="m0 0 4 1-1 6-7 12-9 10-5 5-10 8-16 8-5 1 1-9 2-8h2l1-10 1-6 2 1v13l-1 2 3 3v2h5v-2l4-2 3-5 3-3h2l2-4h2l2-4 6-8 7-10z" fill="#C2EFFE"/>
<path transform="translate(293,1239)" d="m0 0h2l-2 4-13 15-8 8-3 4h-2v2l-5 5-1 4-4 8-3 2h-8l-5-2-5-5v-2l7-4 13-5 5-3 2-4 3-7 5-2 5-6h3l2-4h2v-2h2l1-4 4-1-1 3z" fill="#995423"/>
<path transform="translate(864,1983)" d="m0 0 1 2h6v-2l5 2h3v-2l4 1v2l-3 1h-449v-1l433-1z" fill="#C5F1FF"/>
<path transform="translate(1515,1837)" d="m0 0h332l-2 4v-2l-3 1v-2l-105 1h-163l-59-1z" fill="#A8E2FB"/>
<path transform="translate(701,1323)" d="m0 0h6l3 3 1-2 16 3 19 6 9 5 3 1v3l5 2 3 3-3 1-16-6v-2h-9l-4-2v-2h-9l-5-2v-2l-8-1-4-2-8-2-3-3z" fill="#995423"/>
<path transform="translate(1388,1355)" d="m0 0h4l1 7-1 9-1 1-10 1-1 2h10l4-1v2l-5 2-12-2-15-3-9-1h-22l4-2 3-1h18l1 1 21 3-1-4-10-2v-4h3v-2l11-4h5z" fill="#995423"/>
<path transform="translate(939,1658)" d="m0 0h49v1l-58 2-3 1-1 5-4 4h-2l-1 5-3 3-4 9-8 24-4 13-2 1 2-15 7-20 6-15 2-3 1-5h-2v-3l-4-2 6-3 8-1z" fill="#C5F1FF"/>
<path transform="translate(1566,926)" d="m0 0h8l17 8 16 10 16 13 9 9 1 5-5-4h-3v-2h-2l-2-2-4-3v-2l-4-2-7-6-9-5v-2l-7-2-5-4-9-5-6-3-5-1z" fill="#B76931"/>
<path transform="translate(911,1977)" d="m0 0h3l1 4h3v2l7 1v1l48 1v1h-93l4-4 9-1v-2z" fill="#C1EEFE"/>
<path transform="translate(693,225)" d="m0 0h3l-3 9-4 6-2 9-5 12-3 3 1 6-3 3-3-4 1-8 2-9 8-16 6-10z" fill="#C0EDFE"/>
<path transform="translate(1525,1233)" d="m0 0h2l-2 4-3 4-1 6-5 7-10 2-14-2v-1h6v-5l7-1v-2l9-5 4-3 5-1z" fill="#995423"/>
<path transform="translate(978,1208)" d="m0 0h1l-1 11-1 6v8l2 1 5-2 1-2h2l1-4-2-3 1-2h2l1-2 6 3v3l-2 5 9 2 9 1 16 4 5 2-4 1-12-3-7-1h-36l1-12z" fill="#995423"/>
<path transform="translate(1457,934)" d="m0 0 5 1-4 4-5 2-2 2-6 2-4 3h-5l-5 3-5 1-3 3h-6l-1 3-3 1-3-1 1-4 39-17z" fill="#B76931"/>
<path transform="translate(251,1070)" d="m0 0v3l-5 13-4 6-4 2-1 5-3 1-1 2h-3l-1 11-1 2 3 1-1 2-7-1-2-3 12-19 11-16z" fill="#C17338"/>
<path transform="translate(1394,1776)" d="m0 0 9 5 5 6 1 5 4 1 5 10v1l-7-1-2-2-2 2-3-9-5-8-5-4z" fill="#C1EFFE"/>
<path transform="translate(960,785)" d="m0 0v3l-12 14-9 11-2 3h-2l-2 4-9 11-4 5h-2l-1 4-2 4-6 5v-3l6-8 2-3h2l2-6 3-1 2-4 5-7h2v-2h2l2-4 7-9 6-8 5-6z" fill="#995423"/>
<path transform="translate(735,248)" d="m0 0 1 4-4 17-2 20v27l3 22 1 9-2-2-4-21-1-8v-35l5-24z" fill="#A8E2FB"/>
<path transform="translate(723,280)" d="m0 0 4 4 1 33h-3v-2h-2l1-7h-2l-1-20z" fill="#C4F0FE"/>
<path transform="translate(673,1329)" d="m0 0 17 2 8-1 3 1 1-2v2h8l1 3 13 2 1 2 12 3 7 3-3 1-21-6-20-4-21-3-6-2z" fill="#995423"/>
<path transform="translate(778,104)" d="m0 0 2 3 3 11v21l-5 21-2-2 2-9v-13l1-2v-21z" fill="#A8E2FB"/>
<path transform="translate(675,258)" d="m0 0 1 3-4 16-1 13v27l1 14-2-4-2-15v-23l3-18z" fill="#A8E2FB"/>
<path transform="translate(1804,1911)" d="m0 0 1 3-16 17-10 9-3-1 4-5h2l2-4 4-5 4-3h2v-2h2v-2h2v-2z" fill="#E8F6FC"/>
<path transform="translate(720,162)" d="m0 0h4l1 2v7l-5 5-2 9-4 8h-1v-5l4-10 1-3-2-1 3-10z" fill="#C4F0FE"/>
<path transform="translate(1315,525)" d="m0 0 1 2 12 2-1 3-13 6h-3l2-11h2z" fill="#F3FAFC"/>
<path transform="translate(212,1278)" d="m0 0h3l3 3h6v2l-6 1-3-1 1 3-4 4-6 1-1-4 3-7z" fill="#995423"/>
<path transform="translate(1429,946)" d="m0 0h7l-2 4-8 2-3 3h-6l-1 3-3 1-3-1 1-4z" fill="#B96A31"/>
<path transform="translate(1016,527)" d="m0 0h17l-1 3-12 6h-6z" fill="#F2F9FC"/>
<path transform="translate(772,433)" d="m0 0 2 3 2 12v16l-3 16-2 6-1-4 2-13 1-5v-15z" fill="#A8E2FB"/>
<path transform="translate(627,1838)" d="m0 0h52v1l-15 2-37-1z" fill="#C5F1FF"/>
<path transform="translate(416,1984)" d="m0 0h16l-1 2 15 1v1h-36l-5-1v-1h11z" fill="#B9EBFD"/>
<path transform="translate(444,1534)" d="m0 0 1 4-8 16-6 15-2 7h-2l1-7 5-13 4-9z" fill="#00BD50"/>
<path transform="translate(1985,1700)" d="m0 0 2 4 1 6v14l-3 13-2 2 1-11 1-14z" fill="#A8E2FB"/>
<path transform="translate(718,73)" d="m0 0h2l2 5v-2l4 1v5h-2v21h-1z" fill="#C4F0FE"/>
<path transform="translate(673,302)" d="m0 0h2l1 8v10l-1 4-3-1-1-6h-1v-5h1l1-9z" fill="#C4F0FE"/>
<path transform="translate(755,508)" d="m0 0 1 3-6 7-10 8-2-2 5-4 5-8h2v-2z" fill="#CCEFFD"/>
<path transform="translate(389,1839)" d="m0 0h35l2 2-31 1v-2h-6z" fill="#C3EDFE"/>
<path transform="translate(1604,1260)" d="m0 0 2 1-31 31-1-3 12-11z" fill="#AB602B"/>
<path transform="translate(228,1105)" d="m0 0 1 2v6l-1 2 3 1-1 2-7-1-2-3 6-8z" fill="#BB6B32"/>
<path transform="translate(773,449)" d="m0 0h1v15l-2 15-2 3v-8l-1-2 2-13h2z" fill="#C5F1FF"/>
<path transform="translate(710,1330)" d="m0 0 10 2 1 2 4 2-3 1-11-2-2-3z" fill="#AA622F"/>
<path transform="translate(897,1726)" d="m0 0 2 1-2 10-1 7h-2l1 4h-2v2h-2l4-17z" fill="#C5F1FF"/>
<path transform="translate(1104,1291)" d="m0 0h2v2l3 1 4 4 1 7-6-5-4-6z" fill="#BB6B32"/>
<path transform="translate(672,280)" d="m0 0 4 1-1 12h-2l-1 2z" fill="#C5F1FF"/>
<path transform="translate(723,137)" d="m0 0 4 1 1 9-3 5h-1z" fill="#C5F1FF"/>
<path transform="translate(174,1479)" d="m0 0h2l-2 4-12 12-6 2v-2l11-8z" fill="#00BC4E"/>
<path transform="translate(1092,1276)" d="m0 0 4 2 3 2 4 6-3 1-1-2-5-3-2-2z" fill="#BA6A32"/>
<path transform="translate(1939,1658)" d="m0 0 9 1 2 1-1 2-5-1 1 2-6 2-2-4z" fill="#BBEAFD"/>
<path transform="translate(444,1534)" d="m0 0 1 4-8 16-2-1 1-5 6-10z" fill="#00BE52"/>
<path transform="translate(699,215)" d="m0 0 3 2-4 6-3 3h-3l2-5 3-5z" fill="#BEECFD"/>
<path transform="translate(728,254)" d="m0 0 3 2v7l-1 2-3-1v-8z" fill="#C5F1FF"/>
<path transform="translate(925,829)" d="m0 0 1 2-1 2h-2l-2 5-2 3h-2l-1 3-1-3 3-5h2l2-4z" fill="#AA622F"/>
<path transform="translate(677,264)" d="m0 0 3 4-1 4-3 1-2-4v-4z" fill="#C4EFFE"/>
<path transform="translate(372,1982)" d="m0 0h5v2h6l-2 2h-9v-2l-2-1z" fill="#BDEDFE"/>
<path transform="translate(718,178)" d="m0 0 1 4-5 11h-1v-5l4-9z" fill="#C5F1FF"/>
<path transform="translate(777,149)" d="m0 0h1v7l-2 5-2-3v-6z" fill="#C5F1FF"/>
<path transform="translate(1981,1712)" d="m0 0 1 4-1 12-2-2 1-13z" fill="#C1E9FE"/>
<path transform="translate(1310,60)" d="m0 0h7l-3 2h-2v3h2v9l-2-4-2-6z" fill="#B3E7FC"/>
<path transform="translate(1313,527)" d="m0 0h1l1 8 2 2-6 1z" fill="#BDE9FC"/>
<path transform="translate(1492,1786)" d="m0 0 2 1-1 5-3 3-1-6z" fill="#CDEFFD"/>
<path transform="translate(1131,1333)" d="m0 0 2 4 3 1-3 2h-3l-1-6z" fill="#B4662F"/>
<path transform="translate(696,1108)" d="m0 0 4 1v2l3 1v3l-4-1-3-3z" fill="#B96A31"/>
<path transform="translate(716,175)" d="m0 0h2l-1 5-3 8h-2l3-11z" fill="#C1EAFE"/>
<path transform="translate(1394,961)" d="m0 0h4l-2 4-6 1 1-4z" fill="#B96A31"/>
<path transform="translate(733,242)" d="m0 0 3 3-1 4h-3l-1-4z" fill="#C4F0FE"/>
<path transform="translate(713,60)" d="m0 0h8l-2 2h-4l3 4-1 5-2-4z" fill="#A8E2FB"/>
</svg>
