<?xml version="1.0" encoding="UTF-8"?>
<svg version="1.1" viewBox="0 0 2048 2048" width="1280" height="1280" xmlns="http://www.w3.org/2000/svg">
<path transform="translate(482)" d="m0 0h1083l14 7 9 7 8 9 6 12 2 9 1 182 11 20 13 22 30 52 10 17 15 26 17 29 30 52 14 24 15 26 12 21 3 6 1 5v1087l-2 12-6 9-8 6-12 4-1 80 9 1 8 4 8 9 3 7 1 6v223l-1 13-5 16-7 13-9 11-12 9-16 8-15 4h-1375l-16-5-16-8-10-8-9-11-7-12-5-16-1-8v-1457l8-16 15-26 10-17 30-52 10-17 12-21 28-48 15-26 16-27 13-23 10-17 3-6 1-5v-135l1-46 4-12 10-14 12-9z" fill="#010000"/>
<path transform="translate(491,264)" d="m0 0h1030l-1 4-8 15-10 17-14 24-30 52-14 24-15 26-16 27-14 25-10 16-4 6-747 1-12 3-8 6-6 10-1 3v12l3 9 6 8 8 5 8 2 543 1h192l2 4-1 622-2 1-30-5-27-3-41-2h-22l-36 2-33 4-36 7-28 8-25 9-27 12-31 16-22 12-46 25-21 10-26 10-27 8-23 5-26 4-20 2-18 1h-42l-32-2-29-4-28-6-27-8-25-10-25-12-23-12-23-13-34-18-16-8-32-14-20-7-19-6-32-7-35-5-24-2-7-2v-615l1-1 169-1 11-3 8-6 5-7 2-6v-14l-6-12-8-6-9-3-15-1-135-1 1-5 8-13 15-26 8-13 6-11 15-26 14-24 8-14 14-24 8-14 14-24 15-26 9-15z" fill="#FDFCF9"/>
<path transform="translate(333,1236)" d="m0 0 41 5 23 4 24 6 24 8 32 14 19 9 23 13 32 17 22 12 27 13 28 11 34 10 36 7 33 4 11 1 24 1h34l35-2 33-4 36-7 31-9 31-12 28-13 22-12 26-14 22-12 24-13 28-12 23-8 26-7 24-5 27-3 15-1h58l29 2 33 5 18 3 3 2v738l-114 1h-906l-12-1-5-4-3-6-1-88v-651z" fill="#57DBFD"/>
<path transform="translate(1433,560)" d="m0 0h282l1 1 1 1052 2 11 4 8 7 6 10 4 8 1-1 80-1 1-10 2-10 6-6 8-2 7-1 9-1 221-3 6-5 4-4 1h-264l-7-1-1-1418z" fill="#EADAC7"/>
<path transform="translate(491,264)" d="m0 0h1030l-1 4-8 15-10 17-14 24-30 52-14 24-15 26-16 27-14 25-10 16-4 6-747 1-12 3-8 6-6 10-2 11-2-1-7 1-71-1-4-12-6-9-10-6-5-1-15-1-135-1 1-5 8-13 15-26 8-13 6-11 15-26 14-24 8-14 14-24 8-14 14-24 15-26 9-15z" fill="#AFEFFE"/>
<path transform="translate(504,60)" d="m0 0h1039l1 1v142l-1 1h-1039l-1-143z" fill="#57DBFD"/>
<path transform="translate(640,560)" d="m0 0h731l-2 2-8 1 4 9v524l-1 74-3 6-2 1-16-1-27-2-3-1-22-1h-68l-11 2-6 2-12-1-2-1-1-7v-98l1-21h2v-3l-2 1h-16l-6-3-7-7-15-23-11-17-18-27-19-29-3-3-11 14-7 9-1 72-4 6-6 5-6 2h-14l-10-5-5-6-1-4v-236l5-5 6-4 4-1h16l9 4 5 6 1 3v96l5-4 9-13 12-16 14-19 13-18 14-19 9-12 7-7 3-1h9l10 5 9 7-1-30v-195l3-9h-543l-11-1z" fill="#EADAC8"/>
<path transform="translate(1231,1237)" d="m0 0h58l29 2 33 5 18 3 3 2v738l-114 1h-906v-1l842-1v-4h-2l-1-6 1-241v-492l-3-2 27-3z" fill="#46C8E9"/>
<path transform="translate(1269,264)" d="m0 0h252l-1 4-8 15-10 17-14 24-30 52-14 24-15 26-16 27-14 25-10 16-4 6h-736v-1l565-1 1-6 7-14 14-24 14-25 15-25 6-11 10-17 15-26 30-51 15-25 4-9h-76z" fill="#57DBFD"/>
<path transform="translate(537,784)" d="m0 0h17l10 5 5 5 6 7 10 17 15 28 13 23 9 17h2l12-22 15-27 14-26 9-14 8-8 8-4 3-1h18l8 5 5 6 2 7 1 229-5 8-8 5-3 1h-15l-10-5-5-7-1-7v-147l-3 3-6 12-6 10-6 12-14 24-8 13-7 6-3 1h-8l-6-3-7-8-15-29-10-18-13-24-1-1-1 155-4 7-8 5-4 1h-14l-10-5-5-6-1-3v-229l3-9 8-7z" fill="#FC6B31"/>
<path transform="translate(1331,60)" d="m0 0h212l1 1v142l-1 1h-1039v-1l861-1v-3l-2-3v-107l1-27-33-1z" fill="#46C8E9"/>
<path transform="translate(1047,784)" d="m0 0h16l9 4 5 6 1 3v96l5-4 9-13 12-16 14-19 13-18 14-19 9-12 7-7 3-1h9l10 5 8 7 4 9v7l-7 11-11 13-11 14-13 16-10 13-9 11-4 5 1 5 21 32 15 23 29 44 9 14 3 7v9l-6 8-8 7-7 2h-11l-6-3-7-7-15-23-11-17-18-27-19-29-3-3-11 14-7 9-1 72-4 6-6 5-6 2h-14l-10-5-5-6-1-4v-236l5-5 6-4z" fill="#FC6B31"/>
<path transform="translate(1573,294)" d="m0 0h2l12 21 16 27 16 28 28 48 45 78 1 4-4 1h-211l-23-1 2-5 16-28 16-27 16-28 15-26 14-24 30-52z" fill="#EAD9C6"/>
<path transform="translate(880,783)" d="m0 0 11 1 8 4 5 5 1 3v208h85l9 2 5 6 3 12-3 12-6 8-4 1h-122l-7-4-5-6-1-24v-217l5-5 6-4z" fill="#FC6B31"/>
<path transform="translate(789,783)" d="m0 0h8l9 3 8 7 2 8v230l-3 5-8 7-9 3-11-1-8-4-5-5-2-4-1-230 2-10 8-6z" fill="#FC6B31"/>
<path transform="translate(1192,816)" d="m0 0h2l-1 22-1 82v70l-5-3-21-32-32-49-5-7 1-5 14-17 10-13 13-16 11-14 12-15z" fill="#FDFCF8"/>
<path transform="translate(1573,294)" d="m0 0h2l7 12v8l1 4-2 2-3-2h-7l-6 5-1 2h-2l-2 7-6 10-4 8-6 10-8 15-6 10-13 23-5 8-5 10-9 15-12 22-9 15-5 7v6l5 3 12 3-4 2h-29l1-4 16-28 16-27 16-28 15-26 14-24 30-52z" fill="#FCF3ED"/>
<path transform="translate(1368,1248)" d="m0 0h3v533l-2-3-1-308v-215l-1-4 2-1z" fill="#58DCFE"/>
<path transform="translate(1616,379)" d="m0 0 4 1 4 8 3 4 2 6 2 1 4 8 2 1v3l2 1 2 5 2 1 2 6 4 4 2 5v2h2v2h2l2 5v3h2v2h2v3h2v5h2v2l3 1 1 6 3 1 4 6 3 7 1 2-1 2h2l8 11-1 5h-8l-10-2-19-1 2-2 17-3 3-1-2-8-8-13-8-15-7-14-18-30v-3h-2l-8-16-4-7z" fill="#FDFCF9"/>
<path transform="translate(1078,797)" d="m0 0h1l1 92 4-2-2 4-4 2z" fill="#EADBC9"/>
<path transform="translate(1668,459)" d="m0 0h3l10 18 7 12-1 2-6-7v-2h-2l-1-4-5-10-4-4z" fill="#EEC1A5"/>
<path transform="translate(1681,478)" d="m0 0 3 4 4 7-1 2-6-7v-2l-2-1z" fill="#EFB798"/>
</svg>
