<?xml version="1.0" encoding="UTF-8"?>
<svg version="1.1" viewBox="0 0 2048 2048" width="1280" height="1280" xmlns="http://www.w3.org/2000/svg">
<path transform="translate(331,95)" d="m0 0h14l19 3 21 7 23 12 12 8 13 10 14 12 13 12 8 8 7 8 11 12 9 11 14 18 13 18 20 30 12 19 12 20 16 28 15 28 17 33 11 23 15 32 14 32 18 43 11 28 2 2 16-24 8-10 5-7h2l2-4 15-16 8-8 8-7 16-13 13-9 14-9 18-10 19-9h2v-74l-9-1-11-6-8-9-3-8-1-11v-126l2-10 4-8 3-4h2v-2l8-5 5-2 8-1h255l13 2 6 3 9 8 5 9 1 4v142l-4 10-8 9-11 5-8 1v71l1 3 20 9 18 10 12 8 14 10 10 8 14 12 8 8 6 5 7 8 9 10 12 16 4-1 18-10 21-8 19-5 19-3h38l19 3 18 5 18 8 18 10 17 13 15 14 4 5 2 1 3-10 13-25 12-17 12-14 10-10h2v-2l19-13 14-8 20-8 19-5 19-3h33l15 2 11 4 8 6 6 9 2 5 1 11-2 9-5 9-9 8-11 4h-14l-6-1h-25l-15 3-15 5-15 8-14 12-10 12-8 13-5 10 16-4 17-3 13-1h13l21 2 22 5 18 7 21 11 17 12 13 12 12 12 13 17 10 16 13 25 10 26 7 25 5 25 3 23 1 13v51l-2 23-4 28-4 18 18-11 16-7 15-4 18-2h8l10 2 8 4 7 7 5 10 1 4v1e3l-7 14-8 7-8 3-6 1h-1609l-11-4-10-9-4-8-2-8v-999l3-10 6-9 8-6 7-3 6-1h9l22 3 8 2-7-26-10-41-12-55-12-65-10-66-8-69-5-59-3-53-1-27v-80l4-50 5-36 8-39 8-27 9-24 8-16 9-16 11-15 4-5h2l2-4 11-10 14-9 12-6 16-5zm2 65-13 4-12 9-11 14-12 23-7 19-7 26-5 25-4 27-3 28-2 33v57l2 54 4 61 6 61 8 62 9 56 10 53 9 42 12 51 17 63 10 35 3 5 11 7 10 4 17 2 14-2 13-5 9-7 10-9 11-11 9-11 7-6v-2l4-2 16-11 17-9 18-6 17-3 18-1 19 2 15 4 15 6 15 8 13 10 3 1v2l7 6 4 4 1-229 2-29 5-29v-11l-21-58-12-30-13-32-16-37-11-24-16-34-16-32-24-44-17-28-12-20-21-31-14-19-11-14-12-14-11-12-9-10-13-12-17-13-15-9-15-6-12-2zm532 64-1 3v60h191v-63zm32 128-1 15-1 88-4 10-7 8-12 6-25 10-23 12-20 14-14 11-9 9-4 3v2l-4 2-7 8-13 16-12 18-10 18-8 17-7 19-6 23-3 15-2 19-1 24v262l10-1 11-3 10-5 10-8 17-17 8-10 12-12 18-12 16-8 15-5 16-3 21-1 19 2 19 5 18 8 13 8 10 8 10 9 12 14 5 6h2l2 4h2l1 3 10 8 9 5 13 4h21l13-4 10-6 2-2-1-11-6-36-3-34v-31l2-27 4-28 6-29 10-36 10-29 14-31 12-22 11-18 9-13 7-10v-2h2l13-17 1-3h2l7-8 2-4h2l6-8-7-10-9-11-14-15-12-11-17-13-15-10-29-15-27-11-9-8-4-8-2-13-1-94zm416 215-14 2-17 5-17 7-17 10-16 12-14 12-15 15-9 11-11 14-12 18-11 19-8 15-9 20-10 27-9 31-5 24-3 18-2 25v39l1 18 1 6 5-2 16-8 14-5 14-3 11-1h12l22 3 17 5 21 10 12 8 11 9 10 10 1 2h2l2 4 15 16 10 8 9 5 7 3 15 2 13-1 15-5 11-8 10-9 9-9 9-11 13-13 16-11 16-8 10-4 16-4 21-2 19 1 16 3 17 6 16 8 12 8 14 12 13 15 12 13 11 9 9 5 13 4 8 1 3-5 8-19 8-24 6-23 5-26 3-26 1-17v-29l-3-32-4-22-6-22-8-22-12-23-12-17-11-12-15-12-14-8-14-5-10-2h-34l-20 4-16 6-14 7-14 10-12 9-12 4h-8l-9-2-9-6-6-8-12-27-10-16-13-15-10-9-15-10-15-8-15-5-12-2zm-774 393-15 3-10 5-9 7-19 19-7 8-4 4v2l-4 2-9 8-16 10-17 8-21 6-22 3-15-1-17-3-18-6-16-8-11-7-10-8-7-6-1-2h-2l-2-4-15-16-7-7-8-6h-1v916l1212 1 3-1v-916l-8 6-18 18-9 11-12 11-15 10-16 8-18 6-17 3-10 1h-9l-17-2-17-4-15-6-15-8-16-12-10-10-9-11-19-19-13-8-12-4-17-1-15 3-12 6-12 11-14 14-9 11-7 7-14 11-18 10-16 6-17 4-17 2h-10l-22-3-17-5-19-9-12-8-11-9-8-8-9-11-19-19-11-7-10-4-14-2-14 1-13 4-11 7-22 22-9 11-8 8-13 10-18 10-16 6-17 4-16 2h-11l-22-3-17-5-19-9-13-9-11-9-13-14-7-8-4-5h-2l-1-3-11-9-10-6-12-4zm997 11v916l252 1 3-1v-916l-8 6-17 17-9 11-7 7-14 11-18 10-16 6-17 4-17 2h-9l-17-2-17-4-15-6-15-8-11-8-10-9-13-14-7-8-15-14z"/>
<path transform="translate(511,591)" d="m0 0h13l12 5 5 4 7 11 2 6v12l-6 20-16 47-21 62-19 56-13 38-6 11-8 7-9 4-4 1h-9l-11-4-8-6-6-9-3-8v-10l6-21 14-41 17-50 13-38 12-36 14-41 7-11 10-7z"/>
<path transform="translate(438,313)" d="m0 0h9l10 3 8 6 6 7 4 9v15l-24 72-42 124-9 26-5 9-7 7-12 5h-14l-10-4-8-7-6-10-2-7 1-12 12-36 27-80 16-47 12-36 9-25 6-9 6-5 9-4z"/>
</svg>
