<svg xmlns="http://www.w3.org/2000/svg" xmlns:xlink="http://www.w3.org/1999/xlink" width="40" zoomAndPan="magnify" viewBox="0 0 30 30.000001" height="40" preserveAspectRatio="xMidYMid meet" version="1.0"><defs><clipPath id="b90a6bc34e"><path d="M 4 15 L 29.515625 15 L 29.515625 29.03125 L 4 29.03125 Z M 4 15 " clip-rule="nonzero"/></clipPath><clipPath id="c7909dd1b5"><path d="M 24 14 L 29.515625 14 L 29.515625 19 L 24 19 Z M 24 14 " clip-rule="nonzero"/></clipPath><clipPath id="b5c09cacae"><path d="M 20 19 L 27 19 L 27 29.03125 L 20 29.03125 Z M 20 19 " clip-rule="nonzero"/></clipPath><clipPath id="c5cc0b1cfe"><path d="M 2.214844 5.40625 L 11 5.40625 L 11 17 L 2.214844 17 Z M 2.214844 5.40625 " clip-rule="nonzero"/></clipPath><clipPath id="3b294a8ff1"><path d="M 19 5.40625 L 26 5.40625 L 26 17 L 19 17 Z M 19 5.40625 " clip-rule="nonzero"/></clipPath><clipPath id="d88b79fdec"><path d="M 23 5.40625 L 29.515625 5.40625 L 29.515625 17 L 23 17 Z M 23 5.40625 " clip-rule="nonzero"/></clipPath><clipPath id="7f8d9b2c7d"><path d="M 13 5.40625 L 21 5.40625 L 21 17 L 13 17 Z M 13 5.40625 " clip-rule="nonzero"/></clipPath><clipPath id="10fd8b5a9e"><path d="M 8 5.40625 L 15 5.40625 L 15 17 L 8 17 Z M 8 5.40625 " clip-rule="nonzero"/></clipPath><clipPath id="62b194deeb"><path d="M 15 16 L 29.515625 16 L 29.515625 20 L 15 20 Z M 15 16 " clip-rule="nonzero"/></clipPath><clipPath id="26ae438c83"><path d="M 0.484375 1.34375 L 29.515625 1.34375 L 29.515625 16.839844 L 0.484375 16.839844 Z M 0.484375 1.34375 " clip-rule="nonzero"/></clipPath><clipPath id="f4309d7331"><path d="M -3.21875 1.34375 L 29.960938 1.34375 C 30.765625 1.34375 31.414062 1.992188 31.414062 2.792969 L 31.414062 15.386719 C 31.414062 16.1875 30.765625 16.839844 29.960938 16.839844 L -3.21875 16.839844 C -4.019531 16.839844 -4.667969 16.1875 -4.667969 15.386719 L -4.667969 2.792969 C -4.667969 1.992188 -4.019531 1.34375 -3.21875 1.34375 Z M -3.21875 1.34375 " clip-rule="nonzero"/></clipPath><clipPath id="b5b2614aab"><path d="M 3 12 L 9 12 L 9 19 L 3 19 Z M 3 12 " clip-rule="nonzero"/></clipPath><clipPath id="8362a7e7ec"><path d="M 5.007812 12.636719 L 8.699219 14.90625 L 5.898438 19.464844 L 2.207031 17.195312 Z M 5.007812 12.636719 " clip-rule="nonzero"/></clipPath><clipPath id="7427900a91"><path d="M 3.511719 17.832031 C 3.660156 18.011719 3.847656 18.1875 4.0625 18.316406 C 4.273438 18.449219 4.496094 18.535156 4.722656 18.585938 C 4.730469 18.585938 4.734375 18.589844 4.738281 18.589844 C 5.601562 18.765625 6.535156 18.402344 7.035156 17.613281 L 8.699219 14.90625 L 5.007812 12.636719 L 3.34375 15.34375 C 2.863281 16.148438 2.953125 17.144531 3.511719 17.832031 Z M 3.511719 17.832031 " clip-rule="nonzero"/></clipPath><clipPath id="1a6917b538"><path d="M 6 13 L 11 13 L 11 19 L 6 19 Z M 6 13 " clip-rule="nonzero"/></clipPath><clipPath id="1d00b0ef8f"><path d="M 6.480469 13.421875 L 10.816406 13.335938 L 10.917969 18.683594 L 6.585938 18.769531 Z M 6.480469 13.421875 " clip-rule="nonzero"/></clipPath><clipPath id="e7978f7a3f"><path d="M 8.027344 18.601562 C 8.253906 18.671875 8.503906 18.714844 8.753906 18.710938 C 9 18.707031 9.238281 18.660156 9.457031 18.578125 C 9.460938 18.578125 9.46875 18.578125 9.472656 18.574219 C 10.292969 18.257812 10.882812 17.445312 10.878906 16.511719 L 10.816406 13.335938 L 6.480469 13.421875 L 6.542969 16.59375 C 6.574219 17.535156 7.1875 18.320312 8.027344 18.601562 Z M 8.027344 18.601562 " clip-rule="nonzero"/></clipPath><clipPath id="baaadc9315"><path d="M 10 13 L 15 13 L 15 19 L 10 19 Z M 10 13 " clip-rule="nonzero"/></clipPath><clipPath id="3de58e8192"><path d="M 10.191406 13.421875 L 14.527344 13.335938 L 14.628906 18.683594 L 10.296875 18.769531 Z M 10.191406 13.421875 " clip-rule="nonzero"/></clipPath><clipPath id="0543b2415d"><path d="M 11.738281 18.601562 C 11.964844 18.671875 12.214844 18.714844 12.464844 18.710938 C 12.710938 18.707031 12.949219 18.660156 13.167969 18.578125 C 13.171875 18.578125 13.179688 18.578125 13.183594 18.574219 C 14.003906 18.257812 14.59375 17.445312 14.589844 16.511719 L 14.527344 13.335938 L 10.191406 13.421875 L 10.253906 16.59375 C 10.285156 17.535156 10.898438 18.320312 11.738281 18.601562 Z M 11.738281 18.601562 " clip-rule="nonzero"/></clipPath><clipPath id="0b30e9ddb7"><path d="M 13 13 L 18 13 L 18 19 L 13 19 Z M 13 13 " clip-rule="nonzero"/></clipPath><clipPath id="de000ce72c"><path d="M 13.371094 13.421875 L 17.707031 13.335938 L 17.808594 18.683594 L 13.476562 18.769531 Z M 13.371094 13.421875 " clip-rule="nonzero"/></clipPath><clipPath id="7d92c822f3"><path d="M 14.917969 18.601562 C 15.140625 18.671875 15.394531 18.714844 15.644531 18.710938 C 15.890625 18.707031 16.128906 18.660156 16.347656 18.578125 C 16.351562 18.578125 16.355469 18.578125 16.363281 18.574219 C 17.179688 18.257812 17.773438 17.445312 17.765625 16.511719 L 17.707031 13.335938 L 13.371094 13.421875 L 13.433594 16.59375 C 13.464844 17.535156 14.078125 18.320312 14.917969 18.601562 Z M 14.917969 18.601562 " clip-rule="nonzero"/></clipPath><clipPath id="efa0b87adb"><path d="M 16 13 L 22 13 L 22 19 L 16 19 Z M 16 13 " clip-rule="nonzero"/></clipPath><clipPath id="aa4cbcac89"><path d="M 16.898438 13.421875 L 21.230469 13.335938 L 21.335938 18.683594 L 17.003906 18.769531 Z M 16.898438 13.421875 " clip-rule="nonzero"/></clipPath><clipPath id="14c0ea77d0"><path d="M 18.445312 18.601562 C 18.667969 18.671875 18.921875 18.714844 19.167969 18.710938 C 19.417969 18.707031 19.65625 18.660156 19.875 18.578125 C 19.878906 18.578125 19.882812 18.578125 19.886719 18.574219 C 20.707031 18.257812 21.300781 17.445312 21.292969 16.511719 L 21.230469 13.335938 L 16.898438 13.421875 L 16.960938 16.59375 C 16.988281 17.535156 17.605469 18.320312 18.445312 18.601562 Z M 18.445312 18.601562 " clip-rule="nonzero"/></clipPath><clipPath id="25b9b44904"><path d="M 20 13 L 26 13 L 26 19 L 20 19 Z M 20 13 " clip-rule="nonzero"/></clipPath><clipPath id="281e0465fd"><path d="M 20.609375 13.421875 L 24.941406 13.335938 L 25.046875 18.683594 L 20.714844 18.769531 Z M 20.609375 13.421875 " clip-rule="nonzero"/></clipPath><clipPath id="1a4a9ec4c0"><path d="M 22.15625 18.601562 C 22.378906 18.671875 22.632812 18.714844 22.878906 18.710938 C 23.128906 18.707031 23.367188 18.660156 23.585938 18.578125 C 23.589844 18.578125 23.59375 18.578125 23.597656 18.574219 C 24.417969 18.257812 25.011719 17.445312 25.003906 16.511719 L 24.941406 13.335938 L 20.609375 13.421875 L 20.671875 16.59375 C 20.699219 17.535156 21.316406 18.320312 22.15625 18.601562 Z M 22.15625 18.601562 " clip-rule="nonzero"/></clipPath><clipPath id="afbfc5f724"><path d="M 23 13 L 28 13 L 28 19 L 23 19 Z M 23 13 " clip-rule="nonzero"/></clipPath><clipPath id="d9bf606125"><path d="M 23.511719 13.421875 L 27.84375 13.335938 L 27.949219 18.683594 L 23.617188 18.769531 Z M 23.511719 13.421875 " clip-rule="nonzero"/></clipPath><clipPath id="6c3ec974f3"><path d="M 25.058594 18.601562 C 25.28125 18.671875 25.535156 18.714844 25.785156 18.710938 C 26.03125 18.707031 26.269531 18.660156 26.488281 18.578125 C 26.492188 18.578125 26.496094 18.578125 26.5 18.574219 C 27.320312 18.257812 27.914062 17.445312 27.90625 16.511719 L 27.84375 13.335938 L 23.511719 13.421875 L 23.574219 16.59375 C 23.605469 17.535156 24.21875 18.320312 25.058594 18.601562 Z M 25.058594 18.601562 " clip-rule="nonzero"/></clipPath><clipPath id="54fcd701db"><path d="M 25 12 L 29.515625 12 L 29.515625 19 L 25 19 Z M 25 12 " clip-rule="nonzero"/></clipPath><clipPath id="c0c9be0cd5"><path d="M 25.949219 14.007812 L 30.140625 12.917969 L 31.488281 18.09375 L 27.296875 19.1875 Z M 25.949219 14.007812 " clip-rule="nonzero"/></clipPath><clipPath id="e002f6f180"><path d="M 28.660156 18.6875 C 28.894531 18.703125 29.148438 18.6875 29.390625 18.625 C 29.628906 18.5625 29.851562 18.460938 30.042969 18.332031 C 30.046875 18.328125 30.050781 18.328125 30.054688 18.324219 C 30.777344 17.824219 31.167969 16.898438 30.941406 15.992188 L 30.140625 12.917969 L 25.949219 14.007812 L 26.746094 17.082031 C 26.996094 17.988281 27.777344 18.609375 28.660156 18.6875 Z M 28.660156 18.6875 " clip-rule="nonzero"/></clipPath><clipPath id="1c8fa70a3c"><path d="M 6.480469 7.335938 L 29.515625 7.335938 L 29.515625 16.042969 L 6.480469 16.042969 Z M 6.480469 7.335938 " clip-rule="nonzero"/></clipPath><clipPath id="4ae264c044"><path d="M 7.933594 7.335938 L 28.066406 7.335938 C 28.867188 7.335938 29.515625 7.984375 29.515625 8.785156 L 29.515625 14.59375 C 29.515625 15.394531 28.867188 16.042969 28.066406 16.042969 L 7.933594 16.042969 C 7.132812 16.042969 6.480469 15.394531 6.480469 14.59375 L 6.480469 8.785156 C 6.480469 7.984375 7.132812 7.335938 7.933594 7.335938 Z M 7.933594 7.335938 " clip-rule="nonzero"/></clipPath><clipPath id="322e86255b"><path d="M 0.484375 0 L 26 0 L 26 29.03125 L 0.484375 29.03125 Z M 0.484375 0 " clip-rule="nonzero"/></clipPath><clipPath id="0bc8bcd847"><path d="M 7.941406 6.199219 L 9.695312 6.199219 L 9.695312 7.050781 L 7.941406 7.050781 Z M 7.941406 6.199219 " clip-rule="nonzero"/></clipPath><clipPath id="7adc12ab12"><path d="M 9.628906 7.039062 C 6.074219 6.605469 9.265625 5.953125 9.628906 6.316406 C 9.773438 6.460938 9.628906 7.039062 9.628906 7.039062 " clip-rule="nonzero"/></clipPath><clipPath id="aa2e622de9"><path d="M 4 5 L 8 5 L 8 7 L 4 7 Z M 4 5 " clip-rule="nonzero"/></clipPath><clipPath id="cb654ea5f4"><path d="M 4.394531 4.878906 L 7.328125 5.128906 L 7.171875 6.957031 L 4.238281 6.707031 Z M 4.394531 4.878906 " clip-rule="nonzero"/></clipPath><clipPath id="86803e0305"><path d="M 4.277344 6.707031 C 4.140625 5.75 5.148438 5.035156 5.734375 5.011719 C 6.171875 4.976562 6.734375 5.242188 6.925781 5.550781 C 7.183594 5.9375 7.167969 6.957031 7.167969 6.957031 " clip-rule="nonzero"/></clipPath><clipPath id="863998da8e"><path d="M 6.976562 5.496094 L 9.921875 5.496094 L 9.921875 7.332031 L 6.976562 7.332031 Z M 6.976562 5.496094 " clip-rule="nonzero"/></clipPath><clipPath id="1b73608417"><path d="M 7.015625 7.332031 C 6.796875 6.386719 7.742188 5.589844 8.324219 5.515625 C 8.757812 5.445312 9.339844 5.660156 9.554688 5.953125 C 9.847656 6.316406 9.917969 7.332031 9.917969 7.332031 " clip-rule="nonzero"/></clipPath><clipPath id="d9d2b38463"><path d="M 4.09375 6.585938 L 7.257812 6.585938 L 7.257812 9.855469 L 4.09375 9.855469 Z M 4.09375 6.585938 " clip-rule="nonzero"/></clipPath><clipPath id="fea1412916"><path d="M 7.234375 7.257812 C 4.332031 10.160156 4.113281 9.945312 4.113281 9.726562 C 4.039062 9.363281 5.054688 8.203125 5.566406 7.621094 C 6 7.183594 6.652344 6.605469 6.871094 6.605469 C 7.089844 6.675781 7.234375 7.257812 7.234375 7.257812 " clip-rule="nonzero"/></clipPath><clipPath id="6610a43ff5"><path d="M 5.757812 5.851562 L 8.566406 5.851562 L 8.566406 9.230469 L 5.757812 9.230469 Z M 5.757812 5.851562 " clip-rule="nonzero"/></clipPath><clipPath id="7c2bbee654"><path d="M 5.78125 8.855469 C 8.175781 5.804688 8.539062 6.167969 8.539062 6.167969 C 8.539062 6.167969 7.886719 5.878906 7.886719 5.878906 C 7.886719 5.878906 8.46875 6.023438 8.46875 6.242188 C 8.613281 6.75 6.945312 9.144531 6.363281 9.21875 C 6.144531 9.289062 5.78125 8.855469 5.78125 8.855469 " clip-rule="nonzero"/></clipPath><clipPath id="b684b0ea46"><path d="M 5.183594 6.371094 L 7.90625 6.371094 L 7.90625 10.183594 L 5.183594 10.183594 Z M 5.183594 6.371094 " clip-rule="nonzero"/></clipPath><clipPath id="6b243ebced"><path d="M 7.886719 6.894531 C 5.636719 10.089844 5.347656 9.582031 5.273438 9.652344 C 5.273438 9.652344 5.710938 10.160156 5.710938 10.160156 C 5.710938 10.234375 5.273438 10.015625 5.203125 9.796875 C 5.128906 9.363281 6 8.273438 6.363281 7.695312 C 6.726562 7.183594 7.160156 6.386719 7.453125 6.386719 C 7.597656 6.386719 7.886719 6.894531 7.886719 6.894531 " clip-rule="nonzero"/></clipPath><clipPath id="8073e00be9"><path d="M 5.65625 7.585938 L 7.242188 7.585938 L 7.242188 9.238281 L 5.65625 9.238281 Z M 5.65625 7.585938 " clip-rule="nonzero"/></clipPath><clipPath id="e9557af04c"><path d="M 7.234375 8.054688 C 4.332031 10.886719 6.289062 7.621094 6.796875 7.621094 C 6.945312 7.546875 7.234375 8.054688 7.234375 8.054688 " clip-rule="nonzero"/></clipPath><clipPath id="35e008fdbe"><path d="M 0.484375 0 L 24 0 L 24 29.03125 L 0.484375 29.03125 Z M 0.484375 0 " clip-rule="nonzero"/></clipPath><clipPath id="3067ea8303"><path d="M 4.632812 19.453125 L 8.332031 19.453125 L 8.332031 28.160156 L 4.632812 28.160156 Z M 4.632812 19.453125 " clip-rule="nonzero"/></clipPath><clipPath id="7e8cfb15a1"><path d="M 16.148438 19.453125 L 19.851562 19.453125 L 19.851562 28.160156 L 16.148438 28.160156 Z M 16.148438 19.453125 " clip-rule="nonzero"/></clipPath><clipPath id="72fc541bfc"><path d="M 19.851562 21.628906 L 27.214844 21.628906 L 27.214844 29.03125 L 19.851562 29.03125 Z M 19.851562 21.628906 " clip-rule="nonzero"/></clipPath></defs><g clip-path="url(#b90a6bc34e)"><path fill="#1e8c9a" d="M 29.363281 17.996094 L 29.363281 29.855469 C 29.363281 30.21875 29.066406 30.515625 28.703125 30.515625 L 4.980469 30.515625 C 4.621094 30.515625 4.324219 30.21875 4.324219 29.855469 L 4.324219 17.996094 C 4.324219 17.632812 4.621094 17.335938 4.980469 17.335938 C 5.3125 17.335938 16.640625 15.867188 20.535156 16.195312 L 24.328125 15.675781 C 24.328125 15.3125 28.34375 17.335938 28.703125 17.335938 C 29.066406 17.335938 29.363281 17.632812 29.363281 17.996094 Z M 29.363281 17.996094 " fill-opacity="1" fill-rule="nonzero"/></g><path fill="#f7a258" d="M 8.9375 14.703125 L 3.664062 14.703125 C 3.300781 14.703125 3.003906 14.996094 3.003906 15.359375 C 3.003906 17.175781 4.484375 18.65625 6.300781 18.65625 C 8.117188 18.65625 9.59375 17.175781 9.59375 15.359375 C 9.59375 14.996094 9.300781 14.703125 8.9375 14.703125 Z M 8.9375 14.703125 " fill-opacity="1" fill-rule="nonzero"/><g clip-path="url(#c7909dd1b5)"><path fill="#f7a258" d="M 30.023438 14.703125 L 24.75 14.703125 C 24.386719 14.703125 24.089844 14.996094 24.089844 15.359375 C 24.089844 17.175781 25.570312 18.65625 27.386719 18.65625 C 29.203125 18.65625 30.679688 17.175781 30.679688 15.359375 C 30.679688 14.996094 30.386719 14.703125 30.023438 14.703125 Z M 30.023438 14.703125 " fill-opacity="1" fill-rule="nonzero"/></g><g clip-path="url(#b5c09cacae)"><path fill="#50e19b" d="M 26.726562 20.632812 L 26.726562 30.515625 L 20.136719 30.515625 L 20.136719 20.632812 C 20.136719 20.269531 20.433594 19.972656 20.796875 19.972656 L 26.070312 19.972656 C 26.429688 19.972656 26.726562 20.269531 26.726562 20.632812 Z M 26.726562 20.632812 " fill-opacity="1" fill-rule="nonzero"/></g><path fill="#50e19b" d="M 18.160156 19.972656 L 7.617188 19.972656 C 7.253906 19.972656 6.960938 20.269531 6.960938 20.632812 L 6.960938 25.902344 C 6.960938 26.265625 7.253906 26.5625 7.617188 26.5625 L 18.160156 26.5625 C 18.523438 26.5625 18.820312 26.265625 18.820312 25.902344 L 18.820312 20.632812 C 18.820312 20.269531 18.523438 19.972656 18.160156 19.972656 Z M 18.160156 19.972656 " fill-opacity="1" fill-rule="nonzero"/><path fill="#ba3f51" d="M 14.867188 15.359375 C 14.808594 19.316406 9.164062 19.84375 8.34375 16.019531 C 8.21875 15.484375 8.203125 14.730469 8.9375 14.703125 C 8.9375 14.703125 14.207031 14.703125 14.207031 14.703125 C 14.570312 14.703125 14.867188 14.996094 14.867188 15.359375 Z M 14.867188 15.359375 " fill-opacity="1" fill-rule="nonzero"/><path fill="#ba3f51" d="M 25.410156 15.359375 C 25.289062 19.695312 18.960938 19.730469 18.820312 15.359375 C 18.820312 14.996094 19.117188 14.703125 19.480469 14.703125 L 24.75 14.703125 C 25.113281 14.699219 25.414062 15 25.410156 15.359375 Z M 25.410156 15.359375 " fill-opacity="1" fill-rule="nonzero"/><path fill="#f7a258" d="M 20.15625 15.359375 C 20.074219 19.304688 14.46875 19.867188 13.601562 16.019531 C 13.480469 15.464844 13.457031 14.738281 14.207031 14.703125 C 14.207031 14.703125 19.480469 14.703125 19.480469 14.703125 C 19.84375 14.699219 20.160156 15.003906 20.15625 15.359375 Z M 20.15625 15.359375 " fill-opacity="1" fill-rule="nonzero"/><g clip-path="url(#c5cc0b1cfe)"><path fill="#f7a258" d="M 8.285156 15.269531 C 8.261719 15.515625 8.292969 15.78125 8.34375 16.019531 C 8.34375 16.019531 3.003906 16.019531 3.003906 16.019531 C 2.546875 16.03125 2.210938 15.519531 2.398438 15.101562 C 2.398438 15.101562 6.351562 5.878906 6.351562 5.878906 C 6.457031 5.632812 6.695312 5.476562 6.960938 5.476562 L 10.378906 5.476562 L 8.304688 15.1875 Z M 8.285156 15.269531 " fill-opacity="1" fill-rule="nonzero"/></g><g clip-path="url(#3b294a8ff1)"><path fill="#ba3f51" d="M 25.410156 15.359375 C 25.410156 15.585938 25.390625 15.808594 25.34375 16.019531 L 20.09375 16.019531 C 20.148438 15.757812 20.164062 15.449219 20.132812 15.183594 C 20.132812 15.183594 19.433594 5.476562 19.433594 5.476562 L 23.308594 5.476562 L 25.394531 15.226562 C 25.402344 15.269531 25.410156 15.3125 25.410156 15.359375 Z M 25.410156 15.359375 " fill-opacity="1" fill-rule="nonzero"/></g><g clip-path="url(#d88b79fdec)"><path fill="#f7a258" d="M 31.226562 15.722656 C 31.109375 15.90625 30.90625 16.019531 30.679688 16.019531 L 25.34375 16.019531 C 25.390625 15.769531 25.429688 15.488281 25.394531 15.226562 C 25.394531 15.226562 23.308594 5.476562 23.308594 5.476562 L 26.726562 5.476562 C 26.992188 5.476562 27.226562 5.632812 27.332031 5.878906 L 31.289062 15.101562 C 31.371094 15.308594 31.351562 15.539062 31.226562 15.722656 Z M 31.226562 15.722656 " fill-opacity="1" fill-rule="nonzero"/></g><g clip-path="url(#7f8d9b2c7d)"><path fill="#f7a258" d="M 20.152344 15.472656 C 20.152344 15.65625 20.125 15.839844 20.09375 16.019531 L 13.601562 16.019531 C 13.546875 15.753906 13.53125 15.472656 13.554688 15.203125 L 14.253906 5.476562 L 19.433594 5.476562 L 20.132812 15.183594 Z M 20.152344 15.472656 " fill-opacity="1" fill-rule="nonzero"/></g><g clip-path="url(#10fd8b5a9e)"><path fill="#ba3f51" d="M 13.542969 15.417969 C 13.542969 15.625 13.5625 15.820312 13.601562 16.019531 L 8.34375 16.019531 C 8.296875 15.757812 8.242188 15.457031 8.304688 15.1875 C 8.304688 15.1875 10.378906 5.476562 10.378906 5.476562 L 14.253906 5.476562 L 13.554688 15.203125 C 13.558594 15.214844 13.539062 15.410156 13.542969 15.417969 Z M 13.542969 15.417969 " fill-opacity="1" fill-rule="nonzero"/></g><g clip-path="url(#62b194deeb)"><path stroke-linecap="butt" transform="matrix(0.725806, 0, 0, 0.725806, 16.898052, 16.548389)" fill="none" stroke-linejoin="miter" d="M 0.000530495 1.999998 L 19.999836 1.999998 " stroke="#50e19b" stroke-width="4" stroke-opacity="1" stroke-miterlimit="4"/></g><path stroke-linecap="butt" transform="matrix(0.725806, 0, 0, 0.725806, 3.387096, 16.548389)" fill="none" stroke-linejoin="miter" d="M -0.000520133 1.999998 L 19.998786 1.999998 " stroke="#50e19b" stroke-width="4" stroke-opacity="1" stroke-miterlimit="4"/><g clip-path="url(#26ae438c83)"><g clip-path="url(#f4309d7331)"><path fill="#50e19b" d="M -4.667969 1.34375 L 31.40625 1.34375 L 31.40625 16.839844 L -4.667969 16.839844 Z M -4.667969 1.34375 " fill-opacity="1" fill-rule="nonzero"/></g></g><g clip-path="url(#b5b2614aab)"><g clip-path="url(#8362a7e7ec)"><g clip-path="url(#7427900a91)"><path fill="#6efab9" d="M 5.007812 12.636719 L 8.699219 14.90625 L 5.90625 19.449219 L 2.214844 17.179688 Z M 5.007812 12.636719 " fill-opacity="1" fill-rule="nonzero"/></g></g></g><g clip-path="url(#1a6917b538)"><g clip-path="url(#1d00b0ef8f)"><g clip-path="url(#e7978f7a3f)"><path fill="#6efab9" d="M 6.480469 13.421875 L 10.816406 13.335938 L 10.917969 18.667969 L 6.585938 18.753906 Z M 6.480469 13.421875 " fill-opacity="1" fill-rule="nonzero"/></g></g></g><g clip-path="url(#baaadc9315)"><g clip-path="url(#3de58e8192)"><g clip-path="url(#0543b2415d)"><path fill="#6efab9" d="M 10.191406 13.421875 L 14.527344 13.335938 L 14.628906 18.667969 L 10.296875 18.753906 Z M 10.191406 13.421875 " fill-opacity="1" fill-rule="nonzero"/></g></g></g><g clip-path="url(#0b30e9ddb7)"><g clip-path="url(#de000ce72c)"><g clip-path="url(#7d92c822f3)"><path fill="#6efab9" d="M 13.371094 13.421875 L 17.707031 13.335938 L 17.808594 18.667969 L 13.476562 18.753906 Z M 13.371094 13.421875 " fill-opacity="1" fill-rule="nonzero"/></g></g></g><g clip-path="url(#efa0b87adb)"><g clip-path="url(#aa4cbcac89)"><g clip-path="url(#14c0ea77d0)"><path fill="#6efab9" d="M 16.898438 13.421875 L 21.230469 13.335938 L 21.335938 18.667969 L 17 18.753906 Z M 16.898438 13.421875 " fill-opacity="1" fill-rule="nonzero"/></g></g></g><g clip-path="url(#25b9b44904)"><g clip-path="url(#281e0465fd)"><g clip-path="url(#1a4a9ec4c0)"><path fill="#6efab9" d="M 20.609375 13.421875 L 24.941406 13.335938 L 25.046875 18.667969 L 20.710938 18.753906 Z M 20.609375 13.421875 " fill-opacity="1" fill-rule="nonzero"/></g></g></g><g clip-path="url(#afbfc5f724)"><g clip-path="url(#d9bf606125)"><g clip-path="url(#6c3ec974f3)"><path fill="#6efab9" d="M 23.511719 13.421875 L 27.84375 13.335938 L 27.949219 18.667969 L 23.617188 18.753906 Z M 23.511719 13.421875 " fill-opacity="1" fill-rule="nonzero"/></g></g></g><g clip-path="url(#54fcd701db)"><g clip-path="url(#c0c9be0cd5)"><g clip-path="url(#e002f6f180)"><path fill="#6efab9" d="M 25.949219 14.007812 L 30.140625 12.917969 L 31.484375 18.078125 L 27.292969 19.171875 Z M 25.949219 14.007812 " fill-opacity="1" fill-rule="nonzero"/></g></g></g><g clip-path="url(#1c8fa70a3c)"><g clip-path="url(#4ae264c044)"><path fill="#6efab9" d="M 6.480469 7.335938 L 29.515625 7.335938 L 29.515625 16.042969 L 6.480469 16.042969 Z M 6.480469 7.335938 " fill-opacity="1" fill-rule="nonzero"/></g></g><g clip-path="url(#322e86255b)"><path stroke-linecap="butt" transform="matrix(-0.351868, 0.63481, -0.63481, -0.351868, 10.428559, 8.500684)" fill="none" stroke-linejoin="miter" d="M -0.000902396 1.998582 L 12.798408 1.998966 " stroke="#6efab9" stroke-width="4" stroke-opacity="1" stroke-miterlimit="4"/></g><g clip-path="url(#0bc8bcd847)"><g clip-path="url(#7adc12ab12)"><path fill="#ffffff" d="M 3.167969 3.410156 L 12.535156 3.410156 L 12.535156 10.015625 L 3.167969 10.015625 Z M 3.167969 3.410156 " fill-opacity="1" fill-rule="nonzero"/></g></g><g clip-path="url(#aa2e622de9)"><g clip-path="url(#cb654ea5f4)"><g clip-path="url(#86803e0305)"><path fill="#50e19b" d="M 1.496094 1.738281 L 10.539062 2.507812 L 9.886719 10.171875 L 0.84375 9.402344 Z M 1.496094 1.738281 " fill-opacity="1" fill-rule="nonzero"/></g></g></g><g clip-path="url(#863998da8e)"><g clip-path="url(#1b73608417)"><path fill="#50e19b" d="M 3.824219 2.613281 L 12.898438 2.613281 L 12.898438 10.304688 L 3.824219 10.304688 Z M 3.824219 2.613281 " fill-opacity="1" fill-rule="nonzero"/></g></g><g clip-path="url(#d9d2b38463)"><g clip-path="url(#fea1412916)"><path fill="#ffffff" d="M 1.210938 3.703125 L 10.210938 3.703125 L 10.210938 13.054688 L 1.210938 13.054688 Z M 1.210938 3.703125 " fill-opacity="1" fill-rule="nonzero"/></g></g><g clip-path="url(#6610a43ff5)"><g clip-path="url(#7c2bbee654)"><path fill="#50e19b" d="M 2.878906 2.976562 L 11.445312 2.976562 L 11.445312 12.210938 L 2.878906 12.210938 Z M 2.878906 2.976562 " fill-opacity="1" fill-rule="nonzero"/></g></g><g clip-path="url(#b684b0ea46)"><g clip-path="url(#6b243ebced)"><path fill="#50e19b" d="M 2.296875 3.484375 L 10.789062 3.484375 L 10.789062 13.136719 L 2.296875 13.136719 Z M 2.296875 3.484375 " fill-opacity="1" fill-rule="nonzero"/></g></g><g clip-path="url(#8073e00be9)"><g clip-path="url(#e9557af04c)"><path fill="#50e19b" d="M 1.574219 4.71875 L 10.210938 4.71875 L 10.210938 13.929688 L 1.574219 13.929688 Z M 1.574219 4.71875 " fill-opacity="1" fill-rule="nonzero"/></g></g><g clip-path="url(#35e008fdbe)"><path stroke-linecap="butt" transform="matrix(0.362628, -0.628725, 0.628725, 0.362628, 0.0522833, 15.38437)" fill="none" stroke-linejoin="miter" d="M -0.000484425 1.998466 L 15.966054 1.9971 " stroke="#50e19b" stroke-width="4" stroke-opacity="1" stroke-miterlimit="4"/></g><g clip-path="url(#3067ea8303)"><path fill="#1e8c9a" d="M 4.632812 19.453125 L 8.332031 19.453125 L 8.332031 28.15625 L 4.632812 28.15625 Z M 4.632812 19.453125 " fill-opacity="1" fill-rule="nonzero"/></g><g clip-path="url(#7e8cfb15a1)"><path fill="#1e8c9a" d="M 16.148438 19.453125 L 19.851562 19.453125 L 19.851562 28.15625 L 16.148438 28.15625 Z M 16.148438 19.453125 " fill-opacity="1" fill-rule="nonzero"/></g><path stroke-linecap="butt" transform="matrix(0.725806, 0, 0, 0.725806, 7.60773, 19.451615)" fill="none" stroke-linejoin="miter" d="M 0.00226618 1.498261 L 12.80053 1.498261 " stroke="#1e8c9a" stroke-width="3" stroke-opacity="1" stroke-miterlimit="4"/><path stroke-linecap="butt" transform="matrix(0.725806, 0, 0, 0.725806, 7.60773, 26.129034)" fill="none" stroke-linejoin="miter" d="M 0.00226618 1.501387 L 12.80053 1.501387 " stroke="#1e8c9a" stroke-width="3" stroke-opacity="1" stroke-miterlimit="4"/><path stroke-linecap="butt" transform="matrix(0.725806, 0, 0, 0.725806, 18.182411, 19.451615)" fill="none" stroke-linejoin="miter" d="M 0.00162991 1.498261 L 12.799894 1.498261 " stroke="#1e8c9a" stroke-width="3" stroke-opacity="1" stroke-miterlimit="4"/><g clip-path="url(#72fc541bfc)"><path fill="#50e19b" d="M 19.851562 21.628906 L 27.214844 21.628906 L 27.214844 29.023438 L 19.851562 29.023438 Z M 19.851562 21.628906 " fill-opacity="1" fill-rule="nonzero"/></g></svg>