<?xml version="1.0" encoding="UTF-8"?>
<svg version="1.1" viewBox="0 0 2048 2048" width="1280" height="1280" xmlns="http://www.w3.org/2000/svg">
<path transform="translate(136)" d="m0 0h1776v2l6 2 8 7 5 8 2 7 1 142 3 14 24 89 38 140 17 63 21 77 7 28 3 11h1v69l-2 2-5 23-9 27-12 25-12 19-12 16-4 5h-2l-2 4-14 14-11 9-12 9-13 8-18 10-19 8-19 6-16 4-19 3-11 1h-30l-19-2-24-5-27-9-25-12-15-9-15-11-14-12-16-16-9-11-10-14-3-4-10 16-8 12-13 16-12 13-12 11-12 9-10 7-15 9-15 8-23 9-21 6-20 4-19 2h-31l-25-3-21-5-24-8-29-14-14-9-11-8-11-9-15-14-9-10-12-15-10-15-3-3-10 16-11 14-11 12-5 6-8 7-12 10-17 12-16 9-23 11-24 8-27 6-28 3h-18l-28-3-23-5-21-7-25-11-21-12-13-10-10-8-10-9-15-15-13-17-11-16h-2l-7 11-8 11-8 10-9 10-13 13-14 11-14 10-21 12-20 9-25 8-24 5-16 2-14 1h-13l-22-2-23-4-24-7-24-10-17-9-15-10-13-10-14-12-11-11-9-11-10-13-13-21v-2l-4 1-8 12-8 10-12 14-3 3h-2v2h-2v2l-11 9-14 11-18 11-17 9-20 8-25 7-23 4-11 1h-33l-24-3-25-6-20-7-27-13-24-16-13-11-13-12-12-13-12-16-9-14-7-12-9-20-8-24-7-30v-59l6-26 8-31 20-74 18-66 20-74 39-144 2-8 1-17v-123l2-12 4-8 8-8zm44 64v78h1688v-78zm278 142-286 1-5 16-18 67-20 74-17 62-10 38-15 55-17 63-4 20-1 8v31l3 19 5 18 9 21 8 14 12 16 12 13 10 9 11 8 13 8 16 8 24 8 18 3 9 1h26l19-3 21-6 19-8 11-6 12-8 10-8 12-11 9-10 12-17 8-15 8-21 5-19 15-91 16-99 10-61 18-111 13-80v-7zm67 1-10 61-9 56-11 67-30 185-6 38-1 9v31l3 20 5 18 9 21 9 16 12 16 12 13 10 9 15 11 16 9 18 8 21 6 19 3 21 1 21-2 19-4 20-7 17-8 17-11 16-13 11-11 11-14 10-16 8-16 7-21 4-19 2-20 15-277 8-147v-12zm354 0-2 28-9 164-7 134-5 90v26l3 21 5 20 8 19 9 17 10 14 11 13 10 10 17 13 13 8 19 9 21 7 14 3 19 2h19l27-4 20-6 16-7 17-9 16-12 10-9 12-12 14-19 11-21 6-15 5-19 3-23v-24l-14-260-8-149-1-9zm355 0v17l19 352 4 70 3 25 6 22 9 21 9 16 10 13 9 10 12 12 13 10 13 8 16 8 16 6 15 4 18 3 18 1 25-2 19-4 20-7 16-8 12-7 16-12 13-12 12-14 10-15 9-17 7-19 5-20 2-16v-27l-3-23-20-124-19-116-25-155zm354 0 13 82 16 99 14 85 15 93 14 85 5 21 8 22 10 18 10 14 11 12 11 11 16 12 18 10 11 5 18 6 20 4 8 1h31l18-3 21-6 18-8 16-9 16-12 15-14 11-13 12-19 9-20 6-19 4-25v-27l-3-20-6-25-51-188-40-148-7-24z"/>
<path transform="translate(1897,889)" d="m0 0h7l10 3 8 5 7 8 4 11 1 923h74l15 1 10 4 9 8 6 10v167h-2l-6 9-7 6-7 4h-2e3l-11-7-8-9-3-6v-164l7-11 8-7 9-4 10-1h80v-916l2-12 6-10 8-7 10-4h14l10 4 8 7 4 5 3 8 1 7v917l-1 2 1103-1-1-169v-492l1-122 4-11 4-6h2v-2l9-6 6-2h429l9 3 7 5 7 10 3 9v784h106v-923l4-11 7-9 10-6zm-515 204-35 1v746h349l1-1v-745l-156-1zm600 811-1918 1v78h1919v-79z"/>
<path transform="translate(356,1029)" d="m0 0h760l11 4 9 8 6 12 1 14v55l-1 404-4 10-8 9-7 4-7 2-62 1h-76l-622-1-10-4-9-9-5-11-1-6v-464l3-10 4-6 7-7 8-4zm103 64-63 1v393h681v-393l-129-1z"/>
<path transform="translate(18,2047)" d="m0 0 2 1z"/>
</svg>
