<?xml version="1.0" encoding="UTF-8"?>
<svg version="1.1" viewBox="0 0 2048 2048" width="1280" height="1280" xmlns="http://www.w3.org/2000/svg">
<path transform="translate(600,17)" d="m0 0h40l25 3 27 6 30 10 24 11 21 12 14 10 13 10 9 8 4-2 13-11 19-12 17-8 18-6 14-3 18-2h17l23 3 16 4 15 6 16 8 15 10 14 12 10 10 10 13 10 16 7 15 2 7 21 3 22 6 16 7 16 9 12 9 10 9 6 5 9 11 9 12 9 16 7 16 6 19 11-1 9-1h45l27 4 24 6 29 11 7 3 5-1 6-7 6-11 9-13 9-10 10-10 15-11 16-9 18-8 21-6 24-4h36l25 4 21 6 15 6 21 11 17 12 15 13 10 10v2l3-3 8-14 8-12 13-17 14-15 8-8 11-9 12-9 13-8 7-2 10 1 8 4 6 7 3 7v11l-4 8-7 7-12 8-10 8-12 11-8 8-10 13-13 21 6-1h40l19 3 22 6 19 8 19 10 17 12 13 11 15 15 12 16 9 15 9 19 6 19 3 15 2 18v13l-3 23-2 4 1 6 13 27 11 28 8 24 9 36 5 29 1 8v13l-4 8-9 8-9 2 1 44 10 4 5 5 5 8 1 10-3 9-7 8-6 3-5 1h-7l-2 13-6 25v6l8 5 6 9 1 3v9l-6 17-11 25-10 21-14 24-9 14-12 17-7 9-3 5 16 15 7 8 12 15 10 15 10 17 14 27 11 25 9 24 8 28 5 26 3 28v28l-3 26-6 25-5 14 2 4 10 7 10 9 10 12 9 16 6 17 3 13 2 15v26l-2 16v8l4 11 4 17 2 15v44l-1 29-4 39-5 29-6 27-9 31-10 28-13 30-15 30-15 25-14 21-12 16-10 13-12 14-12 13-9 10-10 10-8 7-12 11-11 9-18 14-14 10-17 11-20 12-22 12-25 12-27 11-33 11-40 10-35 6-29 3-15 1-94 1h-118l-48-2-37-3-33-5-11-3-16 2-46 6-49 4-47 2h-87l-81-2-70-3-52-3-48-4-54-6-36-6-21-5-20-7-16-8-10-6-9-7-11-10-11-14-7-12-8-19-5-19-4-23-2-22v-57l1-5-28 11-23 7-1 20-4 17-5 13-8 14-12 13-7 7-13 9-16 9-15 6-18 6-14 3-3 18-7 21-9 17-13 16-10 9-14 9-16 7-17 5-20 3h-18l-21-3-15-4-19-8-10-6-12-9-12-11-11-14-7-12-6-16-4-18-3-23v-18l2-21 5-24 9-27 13-27 7-11 11-15 13-15 11-11 14-11 13-9 21-12 19-9 21-8 30-10 27-7h3v-2l-5-2-17-12-13-10-16-13-15-14-17-17-11-14-7-10-10-17-9-20-7-21-4-18-3-22v-36l4-27 6-22 8-20 9-16 10-14 12-13 12-10 15-9 17-7h2l2-12 7-22 9-21 9-17 8-12 12-16 11-13 7-7 7-8 12-11 13-11 17-13 12-8-2-4-8-9-29-1-19-3-20-6-20-9-11-7-12-9-13-12-10-11-9-13-8-14-6-14-5-16-3-13-23-4-17-6-16-8-13-9-12-11-7-7-10-14-10-19-5-15-3-14-1-7v-17l-4-6-9-10-11-15-12-21-9-23-5-20-3-23v-21l3-22 5-21 6-16 8-17 10-16 11-14 3-3-1-7-5-12-5-19-2-20 1-18 4-19 7-19 9-17 11-14 6-7h2l1-3 13-10 11-7 8-4h2l-6-34-1-12v-20l3-24 6-24 8-21 9-17 5-9 10-14 12-14 13-13 14-11 15-10 21-11 18-7 19-5 17-3 9-1h30l22 2 9-20 9-17 10-16 10-14 11-13 7-8 19-19 10-8 19-14 15-9 23-12 20-8 21-7 22-5 20-3z" fill="#000101"/>
<path transform="translate(610,64)" d="m0 0h20l24 3 23 5 23 7 20 9 17 9 15 10 14 11 13 12 10 10 11 14 11 16 10 18 7 15 7 19 5 18-1 5-11 9-9 8h-2l-2 4-9 9-6 9-2 5v10l4 9 7 6 8 3h9l9-4 11-11 5-6 11-9 15-10 16-7 16-5 21-3h14l16 2 21 6 21 10 11 8 14 12 10 12 8 13 7 14 5 15 3 14 1 9v21l-4 22v9l5 10 10 6 7 2 10-1 8-5 5-8 5-22 1-8v-29l5-7 11-9 13-10 18-11 19-9 25-8 19-4 19-2h20l19 2 26 6 20 7 23 11 21 14 8 6v2l4 2 19 19 12 16 9 15 8 16 7 18 6 22 4 25v31l-4 25-6 23-8 19-10 19-12 17-8 10-12 13-10 9-16 12-15 9-21 10-24 8-25 5-25 2-8 3-5 4-11 14-12 12-12 9-16 9-19 7-18 4h-32l-16-3-19-7-17-9-16-12-11-11-9-12-9-16-7-19-3-13v-6l9-15 8-18 3-10v-11l-5-10-6-5-5-2h-13l-8 4-6 7-9 22-7 11-9 10-8 7-12 7-15 5-10 2h-16l-15-3-12-5-12-7-10-9-8-9-8-15-4-14-1-6v-21l2-10v-9l-3-8-6-7-9-4h-11l-8 4-7 8-3 10-2 12-1 11v10l2 15 2 8v7l-10 13-11 12-16 16-18 13-18 10-17 8-21 7-24 5-8 1h-37l-21-3-23-6-20-8-14-7-1-4 3-7 1-4v-10l-5-10-9-6-2-1h-14l-8 5-5 6-10 24-8 11-9 10-13 9-11 5-14 4-6 1h-15l-10-2h-12l-9 3-6 5-4 7-1 8 3 9 3 5 11 7 11 4 6 1h25l17-3 5 1 4 8 6 16 3 12 2 13v25l-5 25-6 16-10 18-8 11-14 15-13 10-14 8-16 7-17 5-12 2h-30l-20-4-19-7-14-5-9 1-19 6-10 2h-14l-18-4-16-8-11-8-10-10-8-13-5-13-3-15v-14l1-11-3-9-6-8-13-13-12-16-8-15-7-19-4-20v-31l4-20 6-17 10-19 9-12 12-13 15-12 14-8 15-7 18-5 12-2h20l4 6 7 14 12 18 9 11 9 10 8 7 8 3h9l9-4 7-8 2-5v-11l-5-10-12-13-10-13-8-14-8-18-5-19-2-12-1-11v-12l4-26 7-21 8-16 7-11 8-10 10-11 11-9 11-8 19-10 21-7 14-3 9-1h24l18 3 20 6 21 10 20 13 5 2h11l9-4 6-7 3-9-1-9-4-8-7-7-15-10-21-11-19-7-13-4-22-4-11-1-3-5-3-16-2-17v-31l4-27 6-23 7-20 7-16 11-19 12-17 12-14 18-18 17-13 15-10 23-12 20-8 24-7 22-4z" fill="#00B286"/>
<path transform="translate(654,1526)" d="m0 0h22l26 4 34 8 57 16 28 9 9 3-3 9-11 25-19 48-13 38-8 30-1 7v8l5 10 10 6 4 1h11l9-4 5-6 4-12 7-26 11-33 11-28 14-34 10-22 3-1 19 7 37 13 56 21 34 13 38 15 27 11 25 11 27 12 1 3-8 20-7 15-15 40-7 20-1 10 3 8 4 5 8 5 4 1h12l8-4 6-7 19-51 8-20 7-15 2-5 2-1 23 13 19 12 24 16 19 14 13 11 11 9 7 6v2l4 2 10 10v2h2l9 11 11 13 11 18 4 14v13l-4 13-6 11-8 9-13 9-18 10-21 10-26 10-26 8-28 7-36 7-46 6-34 3-16 1-30 1-80 1-3-1v-94l1-17v-19l-5-10-6-5-8-3h-9l-8 3-6 5-3 5-2 11-2 33-1 41v49h-28l-59-2-56-3-66-5-21-2-6-2-1-69 1-36 2-29 3-21v-15l-4-8-8-7-5-2h-11l-8 3-5 5-3 4-4 16-4 40-1 19-1 52v43l-20-4-20-6-17-8-13-10-9-11-8-16-5-17-4-26-1-13v-44l3-35 4-30 8-41 7-27 9-29 7-19 11-26 9-19 10-16 8-10 11-11 14-9 10-4z" fill="#FEA203"/>
<path transform="translate(1528,435)" d="m0 0h43l24 3 19 5 16 7 11 6 16 11 13 11 10 8v2l4 2 24 24 7 8 11 13 11 14 1 3 4 2 8 5 9 1 10-3 8-7 4-9 4-18 1-8v-28l-3-21-3-16-2-6 10 3 20 9 18 10 14 9 8 9 11 18 9 16 13 28 11 30 7 25 6 27 5 30 4 10 7 6 7 3 7 2 1 42 10 4 5 5 5 8 1 10-3 9-7 8-6 3-5 1h-7l-2 13-7 29-15 1-8 4-6 7-12 29-12 25-12 22-16 24-15 20-6-1-11-5-21-7-21-5-19-3-11-1h-31l-24 3-36 7-17 5h-6l-10-21-9-14-9-12-12-13-12-11-17-12-17-10-19-9-20-7-18-5-22-4-10-1h-34l-26 4-22 6-21 8-23 12-18 12-14 11-15 14-8 8-7 8-4 5-3 1-21-12-22-11 1-2 12-5 18-10 14-11 13-12 12-15 8-13 8-16 7-20 3-13 2-19 24-8 21-9 21-11 21-14 17-14 12-11 9-10 9-11 10-14 12-20 10-21 9-25 6-25 4-29v-30l-4-29-4-18-2-7 1-1 33-4z" fill="#FA5A58"/>
<path transform="translate(1960,1543)" d="m0 0h7l-5 43-4 24-8 34-12 36-7 18-9 20-8 16-11 20-12 19-12 17-13 17-9 11-11 12-7 8-20 20h-2v2l-11 9-10 9-20 15-27 18-21 12-27 14-26 11-31 11-33 9-31 6-22 3-23 2h-225l1-2 12-5 27-15 16-11 12-11 9-13 8-15 5-17 2-9v-25l-4-18-7-16-7-12-10-13-9-11-9-10-14-15-13-12-14-12-10-8-17-13-23-16-19-12-20-12-14-8-20-11-21-10v-3l17-6 22-5 15-2h31l14 2 19 5 15 6 17 9 17 12 13 11 14 14 9 11 11 15 9 14 12 19 9 6 4 1h9l8-3 10-9 15-15 11-9 9-8 16-12 20-13 18-10 21-10 21-8 25-7 21-4 27-3h28l27 3 29 6 22 7 30 11h11l10-5 6-9 8-16 8-11 10-9 16-8 8-2 25-1 9-3 7-6 9-22 7-12 9-10 7-6 12-6z" fill="#00B286"/>
<path transform="translate(1420,864)" d="m0 0h19l24 3 20 5 25 10 19 11 11 8 10 9 8 8 11 15 9 19 4 14 3 13 4 7 6 4 5 2h13l27-10 22-6 19-4 23-3 23-1 23 2 24 5 18 6 16 8 12 7 12 9 10 9 11 11 15 20 11 19 14 27 12 29 8 24 6 25 3 18 1 10v35l-3 19-5 17-7 17-7 12-3 10 2 9 6 9 8 4 15 5 10 6 5 4 7 10 6 13 3 11 1 12-22-3h-14l-17 2-20 5-21 8-6 3-3-1-5-17-6-10-4-5-7-6-1-5-2-24-5-32-5-23-7-24-7-18-8-18-10-17-12-17-14-15-9-8-13-9-14-8-19-7-16-3-12-1-10-13-8-10-14-15-11-10-17-13-18-12-17-10-29-14-24-9-25-8-27-6-24-4-18-2-15-1h-40l-24 2-5-5-10-13-9-11-12-14-9-9-7-8-15-14 1-5 9-10 6-7 8-7 12-10 15-10 21-11 22-8 25-5z" fill="#42C988"/>
<path transform="translate(1670,1185)" d="m0 0h20l11 3 14 8 13 10 10 10 12 16 12 23 9 24 7 25 5 31 3 29v23l-28 3-17 3-21 7-17 9-14 10-10 9-11 11-11 14-13 20-1 1-24 1-19 3-20 6-16 8-10 6-12 9-3 3h-2l-2 4-8 8-12 17-9 17-9 23-6 22-4 22-4 28-4 4-17 12-14 11-13 11-6 5h-2l-13-18-9-11-12-13-17-17-14-11-3-6-2-16-1-16v-37l2-21 4-20 5-17 7-17 9-15 10-14 16-16 15-10 7-4 12-4 9-4 7-3 5-2 2-5 3-11v-11l-2-16v-34l3-22 4-14 6-16 7-13 10-13 9-9 13-9 14-7 13-5 17-4 23-2h33l9-3 6-4 11-8 12-7z" fill="#9CCC08"/>
<path transform="translate(1120,915)" d="m0 0h17l18 2 17 4 17 6 25 12 17 11 16 12 11 9 15 14 13 13 7 8 11 13 1 3-9 3-34 12-28 13-20 11-17 11-14 10-14 11-11 9-13 12-5 5-5-1-9-3-12-2h-20l-19 4-15 6-15 8-16 11-11 9-10 9-12 12-11 14-11 15-9 15-11 21-9 23-6 20-4 20-3 29v13l1 14 4 25 5 18v4l-15 8-12 9-11 11-7 10-11 22-13 3-9 3h-5l-12-11-9-12-10-18-8-19-6-19-5-25-2-18v-34l2-18 5-21 7-20 12-23 10-14 11-13 13-12 17-12 19-10 21-8 18-6 4-3h2l2-4 4-11v-40l3-23 6-25 7-20 7-16 12-20 10-13 12-13 8-8 17-13 18-11 23-11 18-6 15-3z" fill="#42C988"/>
<path transform="translate(661,1031)" d="m0 0h2v49l1 24 7 66 11 84 5 44 3 36 1 16v52l-1 19-4 32-5 24-2 2h-21l-19 2-19 5-16 7-16 11-13 12-10 11-16 24-11 20-14 32-7 18-4-2-15-12-15-10-4-3 2-11 3-13 1-9v-13l-2-15-5-15-8-16-8-11-11-13-10-9-14-11 2-19 6-25 6-20 8-22 13-29 15-29 12-20 13-21 20-30 24-34 13-18 14-19 12-17 13-18 15-22 10-15 12-19 12-21 12-24z" fill="#FBCBA2"/>
<path transform="translate(963,698)" d="m0 0 4 1 2 9 12 25 8 12 8 10 9 10 1 5-6 21-4 16-10 42-7 31-8 40-5 22-4 8-8 10-12 18-10 18-8 19-8 24-6 29-3 19-2 30h-2v2l-14 5-23 11-16 10-14 10-13 12-10 10-1 2h-2l-7-10-12-17-11-17-9-15-10-18-8-15-11-24-6-13-9-23-4-10-10-29-6-9-9-4-9-3-3-8-5-18-7-24-7-22-5-17-5-18-6-19-7-25-9-30-8-26-2-5v-3l3-1 27-3 18-3 17-4 20-7 14-6 4-1 2 3 3 13 7 22 7 26 8 27 3 9 7 25 8 28 8 26 7 26 6 19 7 25 7 24v8l-8 36v15l5 8v2l5 2 9 3h10l8-3 5-5 4-9 10-47 7-32 15-72 13-62 15-73 13-63 5-2 16-4 15-5z" fill="#9CCC08"/>
<path transform="translate(1099,1160)" d="m0 0h9l9 2 10 5 10 9 7 11 6 13 5 20 3 24 1 22 3 8 5 6 8 4 10 1 13-2 20-1 23 2 21 5 18 8 12 7 11 9 11 10 10 13 10 16 8 18 8 24 4 17v6l-9 12-9 15-10 21-9 26-6 29-2 13-1 18-1 6-2-1-5-15-9-19-11-18-12-16v-2h-2l-7-8-11-11-13-10-18-11-19-9-18-6-24-5-8-1h-28l-22 3-18 5-7 2-13-13-14-10-19-10-15-5-10-2-10-1-3-4-5-17-3-18-1-12v-13l1-16 5-25 5-17 10-23 10-18 10-14 11-14 17-17 16-12 14-8 15-5z" fill="#9DCD08"/>
<path transform="translate(1396,1056)" d="m0 0h17l27 2 32 5 25 6 33 11 24 11 17 9 16 10 17 13 10 9 14 14v5l-14 8-5 4-28 1-5 1-17 1-7 2-18 4-21 7-16 8-16 10-15 13-9 10-9 13-9 16-8 19-6 22-4 24-1 15v38l-3 3-16 8-2 2h-3l-3-7-5-15-9-21-10-19-11-16-9-11-14-14-2-1v-2l-4-2-14-10-20-11-21-8-22-5-14-2-15-1h-17l-2-5-3-20-6-24-8-19-6-11-4-5 1-4 8-7 11-10 20-15 17-11 23-13 24-11 28-10 28-7 24-4 18-2z" fill="#D7F48D"/>
<path transform="translate(271,1350)" d="m0 0h24l19 5 12 5 13 7 9 7 8 11 4 8 3 11 1 8v12l-2 16-4 15v9l4 9 5 5 4 3 14 7 18 12 11 9 10 10 8 12 4 10 2 8v11l-4 15-10 20-1 4v10l4 9 8 7 19 10 12 8 10 8 12 11 8 11 2 4v8l-6 27-1 2-10-3-30-12-28-12-26-12-40-20-24-14-16-10-12-8-18-13-16-13-15-14-12-12-4-5v-2h-2l-9-13-12-23-7-21-4-20-1-7v-37l4-22 6-19 9-17 8-11 11-11 14-8 11-4z" fill="#9DCD08"/>
<path transform="translate(350,1708)" d="m0 0h6l26 13 36 16 22 9 9 4-1 3-16 6-23 5-13 2-10 6-5 9-1 3v11l3 14v10l-3 14-5 10-8 10-12 9-15 8-18 6-17 4-17 3-6 3-5 5-4 8-2 22-4 16-5 13-7 10-7 8-9 6-12 5-11 3-7 1h-18l-14-2-16-5-10-6-10-8-8-10-7-14-5-19-1-8v-31l5-25 7-21 8-17 10-16 11-13 9-10 10-9 16-11 16-9 19-9 30-11 28-8 40-9z" fill="#00B286"/>
<path transform="translate(1921,1434)" d="m0 0h17l11 4 5 5 4 5 4 8 4 14 2 19-1 5-1 1-18 2-20 6-17 9-12 9-11 11-11 15-9 16-1 1-25 5-15 6-14 8-14 12-9 9-11 15-24-8-24-6-31-5-31-2h-13l-27 2-26 4-26 6-33 11-6 3h-3l1-9 6-22 6-15 8-15 10-13 9-9 14-9 11-5 15-4 7-1h25l7 1h8l10-4 5-5 12-23 12-17 11-12 11-9 15-9 17-6 10-2h28l21 4 23 8 17 7h8l10-4 17-8 21-7z" fill="#42C988"/>
<path transform="translate(976,1442)" d="m0 0h20l14 4 11 6 13 11 10 12 7 9 10 5h10l10-4 12-6 17-5 7-1h31l17 3 20 7 17 9 11 8 10 9 8 8 11 15 9 16 8 17 5 15-1 4h-35l-19 2-25 5-21 6-25 10-22 11-1 1h-6l-31-13-80-31-38-14-81-29-11-4-4-1 1-5 9-7 13-4 25-3 10-4 4-5 3-8 3-15 6-12 6-7 13-9 14-5z" fill="#41C988"/>
<path transform="translate(313,237)" d="m0 0h28l10 2-1 9-2 12-1 13v33l2 20 2 13v7l-25 8-17 7-17 9-20 14-15 14-11 11-13 18-11 19-8 18-6 19-4 19-1 10v43l-2 1-26 4-23 6-19 8-12 6-4-1-3-13-1-14 3-18 6-16 7-11 9-10 9-8 12-7 14-5 12-5 7-6 3-7v-11l-9-27-4-21-1-12v-10l3-23 6-21 7-17 8-14 10-13 11-12 10-9 16-11 19-10 21-7z" fill="#00B286"/>
<path transform="translate(1506,248)" d="m0 0h12l17 2 21 5 15 6 17 9 14 10 12 11 7 7 7 10 16 28 6 5 9 3 10-1 12-5 8-3 16-5 13-2h22l18 3 11 3 12 5 16 8 10 6 12 9 10 9 9 9 12 16 8 17 5 14v4l-5-2-23-13-28-13-30-10-18-4-9-1h-16l-9 3-8 9-2 7 1 11 10 23 9 27-1 4-10-10-4-3v-2l-4-2v-2l-4-2-12-11-16-12-14-10-21-12-16-7-20-6-23-4-24-2h-57l3-3 18-11 26-13 5-3 4-4 3-7v-13l-5-9-7-7-15-10-19-10-13-5-14-5-23-6-12-3-23-4v-2l22-12 11-5 19-5z" fill="#9ACC09"/>
<path transform="translate(909,91)" d="m0 0 21 1 17 4 15 6 11 6 13 10 12 12 7 10 9 17 9 26 6 7 8 4 10 1h9l16 2 20 6 17 9 11 8 10 9 9 11 8 14 8 18 2 11-4 3-16 7-27 16-9 7-4 3-3-1-12-23-10-14-9-11-13-13-16-12-16-10-15-7-13-5-25-6-21-2h-13l-21 2-22 5-4-1-11-33-12-26-10-17-13-19 1-5 14-11 16-9 16-6 14-3z" fill="#00B286"/>
<path transform="translate(577,1080)" d="m0 0h2l-2 4-15 22-24 34-14 19-20 28-13 18-13 19-17 26-13 21-9 15-15 28-9 19-6 13-7 17h-3l-9-13-12-13-13-10-14-8-18-8-18-5-13-3-1-3 7-19 8-16 8-14 9-12 8-10 11-12 15-15 11-9 13-10 21-14 22-13 25-13 49-22 22-12 29-17z" fill="#FBCBA1"/>
<path transform="translate(500,724)" d="m0 0 16 8 24 10 23 7 11 3 3 8 19 63 16 54 26 87v5l-8 7-3 4-9-3-26-13-22-10-16-8-47-23-26-12-1-3 8-17 7-20 5-24 1-9v-30l-2-15-5-21-6-17-6-13 2-4 11-9z" fill="#00B286"/>
<path transform="translate(713,1114)" d="m0 0 3 3 14 26 15 24 15 22 13 17 9 12 2 4-6 12-8 22-6 24-4 29v45l4 30 7 28 7 20 8 18 10 18 11 15 11 13 3 3-1 5-5 7-11-3-49-14-25-6-2-1 1-10 4-24 3-26 2-33v-45l-3-45-4-38-14-107-4-38z" fill="#F8CA9F"/>
<path transform="translate(808,669)" d="m0 0 4 1 7 8 11 9 18 11 13 6 10 4 1 4-14 68-9 43-13 63-5 19-2-1-40-138-16-54-1-8 9-8 8-7 15-15z" fill="#00B286"/>
<path transform="translate(250,987)" d="m0 0 7 1 18 6 23 5 9 1h34l17-2 11 9 12 10 11 9 10 9 11 9 12 11 11 9 16 15 9 8 1 3-10 5-16 7-11 6h-5l-13-12-12-16-7-6-6-2h-10l-7 1h-26l-18-4-16-7-12-7-9-7-13-13-10-15-7-16z" fill="#00B286"/>
<path transform="translate(1254,764)" d="m0 0 1 4-7 18-9 15-11 13-9 8-14 9-15 7-19 6-6 4-6 10-3 10h-37l-24 3-23 6-25 10-18 9-4-1 7-30 9-38 7-28 3-1 19 8 19 6 22 4h34l20-3 19-5 22-9 14-8 12-8 11-9 10-9z" fill="#00B286"/>
<path transform="translate(449,950)" d="m0 0 6 1 23 11 16 8 41 20 26 12 17 9 6 2-2 4-12 9-18 13-15 10-19 12-7 4-5-1-7-7-8-7-7-7-8-7-12-11-11-9-12-11-10-8-14-12-5-4 1-4 12-7 12-9z" fill="#9DCD08"/>
<path transform="translate(1731,17)" d="m0 0h12l9 4 6 7 3 7 1 7v38l-2 10-6 9-10 5h-14l-8-4-6-8-2-5-1-6v-43l3-9 7-8z" fill="#000504"/>
<path transform="translate(1868,175)" d="m0 0h20l14 1 9 4 7 8 3 10-1 9-6 10-5 4-6 2-15 1h-29l-13-2-8-6-5-10-1-8 3-10 7-8 5-3 4-1z" fill="#000504"/>
<path transform="translate(1842,63)" d="m0 0h12l9 4 7 8 2 5v13l-5 9-11 12-18 18-10 6-3 1h-9l-10-4-7-8-3-8v-8l3-8 9-10 26-26z" fill="#000303"/>
<path transform="translate(1419,321)" d="m0 0h9l31 6 25 7 9 3-5 5-12 9-14 12-10 11-4-1-10-14-11-13-9-10-10-9 1-3z" fill="#FA5A57"/>
<path transform="translate(1932,720)" d="m0 0 4 1 10 4 5 5 5 8 1 10-3 9-7 8-6 3-13 2-8-3-8-8-4-9v-9l3-7 4-6 9-6z" fill="#000202"/>
<path transform="translate(1957,1378)" d="m0 0h1l1 12h-3l-2-4 1-5h2z" fill="#03B386"/>
<path transform="translate(1204,1224)" d="m0 0h1l1 8 16 1v1l-16 1-2-5z" fill="#28BB6F"/>
</svg>
